<mxfile host="app.diagrams.net" agent="Mozilla/5.0 (Windows NT 10.0; Win64; x64) AppleWebKit/537.36 (KHTML, like Gecko) Chrome/135.0.0.0 Safari/537.36" version="26.2.14">
  <diagram name="Página-1" id="17d42XiQUmmVLxyawchu">
    <mxGraphModel dx="1069" dy="539" grid="1" gridSize="10" guides="1" tooltips="1" connect="1" arrows="1" fold="1" page="1" pageScale="1" pageWidth="827" pageHeight="1169" math="0" shadow="0">
      <root>
        <mxCell id="0" />
        <mxCell id="1" parent="0" />
        <mxCell id="Y-hvcmrSchfvY5Ri_YWS-1" value="&lt;b&gt;INSTALACIÓN DE ANEMÓMETRO&lt;/b&gt;" style="text;html=1;align=center;verticalAlign=middle;whiteSpace=wrap;rounded=0;" vertex="1" parent="1">
          <mxGeometry x="202" y="110" width="445" height="30" as="geometry" />
        </mxCell>
        <mxCell id="Y-hvcmrSchfvY5Ri_YWS-2" value="&lt;div style=&quot;-webkit-user-drag: none; -webkit-tap-highlight-color: transparent; margin: 0px; padding: 0px; user-select: text; clear: both; cursor: text; overflow: visible; position: relative; direction: ltr; color: rgb(0, 0, 0); font-family: &amp;quot;Segoe UI&amp;quot;, &amp;quot;Segoe UI Web&amp;quot;, Arial, Verdana, sans-serif; text-align: start;&quot; class=&quot;OutlineElement Ltr SCXW107485866 BCX0&quot;&gt;&lt;p style=&quot;-webkit-user-drag: none; -webkit-tap-highlight-color: transparent; margin: 5.26667px 0px 0px; padding: 0px; user-select: text; overflow-wrap: break-word; white-space-collapse: preserve; vertical-align: baseline; font-kerning: none; color: windowtext; text-align: center;&quot; class=&quot;Paragraph SCXW107485866 BCX0&quot;&gt;&lt;span style=&quot;-webkit-user-drag: none; -webkit-tap-highlight-color: transparent; margin: 0px; padding: 0px; user-select: text; font-size: 16pt; font-style: italic; line-height: 25px; font-family: Arial, Arial_EmbeddedFont, Arial_MSFontService, sans-serif; font-weight: bold; background-color: light-dark(#ffffff, var(--ge-dark-color, #121212)); font-variant-ligatures: none !important;&quot; class=&quot;TextRun SCXW107485866 BCX0&quot; lang=&quot;ES-ES&quot; data-contrast=&quot;auto&quot;&gt;Prototipo para el Control de Humedad por Sensores&lt;/span&gt;&lt;/p&gt;&lt;p style=&quot;-webkit-user-drag: none; -webkit-tap-highlight-color: transparent; margin: 5.26667px 0px 0px; padding: 0px; user-select: text; overflow-wrap: break-word; white-space-collapse: preserve; vertical-align: baseline; font-kerning: none; color: windowtext; text-align: center;&quot; class=&quot;Paragraph SCXW107485866 BCX0&quot;&gt;&lt;span style=&quot;-webkit-user-drag: none; -webkit-tap-highlight-color: transparent; margin: 0px; padding: 0px; user-select: text; font-size: 16pt; font-style: italic; line-height: 25px; font-family: Arial, Arial_EmbeddedFont, Arial_MSFontService, sans-serif; font-weight: bold; background-color: light-dark(#ffffff, var(--ge-dark-color, #121212)); font-variant-ligatures: none !important;&quot; class=&quot;TextRun SCXW107485866 BCX0&quot; lang=&quot;ES-ES&quot; data-contrast=&quot;auto&quot;&gt;SISRIEGOSENS &lt;/span&gt;&lt;/p&gt;&lt;/div&gt;" style="text;html=1;align=center;verticalAlign=middle;whiteSpace=wrap;rounded=0;fillColor=default;fillStyle=dashed;" vertex="1" parent="1">
          <mxGeometry x="75" y="10" width="700" height="60" as="geometry" />
        </mxCell>
        <mxCell id="Y-hvcmrSchfvY5Ri_YWS-3" value="" style="endArrow=none;html=1;rounded=0;" edge="1" parent="1">
          <mxGeometry width="50" height="50" relative="1" as="geometry">
            <mxPoint x="150" y="80" as="sourcePoint" />
            <mxPoint x="690" y="80" as="targetPoint" />
            <Array as="points">
              <mxPoint x="430" y="80" />
            </Array>
          </mxGeometry>
        </mxCell>
        <mxCell id="Y-hvcmrSchfvY5Ri_YWS-4" value="" style="group" vertex="1" connectable="0" parent="1">
          <mxGeometry x="40" y="910" width="250" height="100" as="geometry" />
        </mxCell>
        <mxCell id="Y-hvcmrSchfvY5Ri_YWS-5" value="&lt;div&gt;&lt;br&gt;&lt;/div&gt;&lt;div&gt;&lt;b&gt;LEYENDA&lt;/b&gt;&lt;/div&gt;&lt;ul&gt;&lt;li&gt;&lt;span style=&quot;background-color: initial;&quot;&gt;Alimentación 3.3 v (positivo)&lt;/span&gt;&lt;/li&gt;&lt;li&gt;GND&lt;/li&gt;&lt;li&gt;Transmisión de datos&lt;/li&gt;&lt;/ul&gt;" style="text;strokeColor=none;fillColor=none;html=1;whiteSpace=wrap;verticalAlign=middle;overflow=hidden;" vertex="1" parent="Y-hvcmrSchfvY5Ri_YWS-4">
          <mxGeometry width="250" height="100" as="geometry" />
        </mxCell>
        <mxCell id="Y-hvcmrSchfvY5Ri_YWS-6" value="" style="line;strokeWidth=2;html=1;strokeColor=#FF0000;" vertex="1" parent="Y-hvcmrSchfvY5Ri_YWS-4">
          <mxGeometry x="200" y="45" width="30" height="10" as="geometry" />
        </mxCell>
        <mxCell id="Y-hvcmrSchfvY5Ri_YWS-7" value="" style="line;strokeWidth=2;html=1;" vertex="1" parent="Y-hvcmrSchfvY5Ri_YWS-4">
          <mxGeometry x="200" y="60" width="30" height="10" as="geometry" />
        </mxCell>
        <mxCell id="Y-hvcmrSchfvY5Ri_YWS-8" value="" style="line;strokeWidth=2;html=1;strokeColor=#00FF00;" vertex="1" parent="Y-hvcmrSchfvY5Ri_YWS-4">
          <mxGeometry x="200" y="75" width="30" height="10" as="geometry" />
        </mxCell>
        <mxCell id="Y-hvcmrSchfvY5Ri_YWS-15" value="" style="endArrow=none;html=1;rounded=0;edgeStyle=orthogonalEdgeStyle;strokeWidth=2;movable=1;resizable=1;rotatable=1;deletable=1;editable=1;locked=0;connectable=1;startFill=0;" edge="1" parent="1">
          <mxGeometry width="50" height="50" relative="1" as="geometry">
            <mxPoint x="160" y="410" as="sourcePoint" />
            <mxPoint x="350" y="300" as="targetPoint" />
            <Array as="points">
              <mxPoint x="160" y="430" />
              <mxPoint x="300" y="430" />
              <mxPoint x="300" y="300" />
            </Array>
          </mxGeometry>
        </mxCell>
        <mxCell id="Y-hvcmrSchfvY5Ri_YWS-16" value="" style="endArrow=none;html=1;rounded=0;edgeStyle=orthogonalEdgeStyle;strokeWidth=2;strokeColor=#FF0000;movable=1;resizable=1;rotatable=1;deletable=1;editable=1;locked=0;connectable=1;startFill=0;" edge="1" parent="1">
          <mxGeometry width="50" height="50" relative="1" as="geometry">
            <mxPoint x="140" y="410" as="sourcePoint" />
            <mxPoint x="360" y="280" as="targetPoint" />
            <Array as="points">
              <mxPoint x="140" y="450" />
              <mxPoint x="270" y="450" />
              <mxPoint x="270" y="280" />
            </Array>
          </mxGeometry>
        </mxCell>
        <mxCell id="Y-hvcmrSchfvY5Ri_YWS-14" value="&lt;b&gt;&lt;font style=&quot;font-size: 19px;&quot;&gt;3.3 V&lt;/font&gt;&lt;/b&gt;" style="text;html=1;align=center;verticalAlign=middle;whiteSpace=wrap;rounded=0;movable=0;resizable=0;rotatable=0;deletable=0;editable=0;locked=1;connectable=0;" vertex="1" parent="1">
          <mxGeometry x="453.00000000000006" y="150.00000000000003" width="60" height="30" as="geometry" />
        </mxCell>
        <mxCell id="Y-hvcmrSchfvY5Ri_YWS-13" value="" style="shape=image;verticalLabelPosition=bottom;labelBackgroundColor=none;verticalAlign=top;aspect=fixed;imageAspect=0;image=https://lastminuteengineers.com/wp-content/uploads/iot/ESP32-Pinout.png;clipPath=inset(0% 36.67% 30% 37.33%);direction=west;fontColor=none;noLabel=1;movable=0;resizable=0;rotatable=0;deletable=0;editable=0;locked=1;connectable=0;" vertex="1" parent="1">
          <mxGeometry x="351.6000000000001" y="211.34499999999994" width="233.47" height="440" as="geometry" />
        </mxCell>
        <mxCell id="Y-hvcmrSchfvY5Ri_YWS-12" value="" style="endArrow=none;html=1;rounded=0;strokeWidth=4;endFill=0;exitX=0.465;exitY=1.001;exitDx=0;exitDy=0;exitPerimeter=0;movable=0;resizable=0;rotatable=0;deletable=0;editable=0;locked=1;connectable=0;" edge="1" parent="1" source="Y-hvcmrSchfvY5Ri_YWS-13">
          <mxGeometry width="50" height="50" relative="1" as="geometry">
            <mxPoint x="215.28243596465262" y="336.5126402742399" as="sourcePoint" />
            <mxPoint x="477" y="180" as="targetPoint" />
            <Array as="points" />
          </mxGeometry>
        </mxCell>
        <mxCell id="Y-hvcmrSchfvY5Ri_YWS-19" value="" style="shape=image;verticalLabelPosition=bottom;labelBackgroundColor=default;verticalAlign=top;aspect=fixed;imageAspect=0;image=data:image/png,iVBORw0KGgoAAAANSUhEUgAAAHUAAABECAYAAAC/Inq0AAAAAXNSR0IArs4c6QAAAARnQU1BAACxjwv8YQUAAAAJcEhZcwAADsMAAA7DAcdvqGQAAA78SURBVHhe7Z1ZTFTn+4Cfc4YZmIVhAFFARIRR2SqgRSvVNnWtdlFRoU2tSWti0/SiMY1JL9qmsRe9aNNeNDWpTf1pWmlq1WpMq6LYgkJRqoAiimBZZBUYYBaY7cz8bpgTwf/ShWVYnuQkDHPmMGee+b73fc/5vg/B6/V6mWZSIQ7/xTQTn2mpk5BpqZOQaamTEGG8EiWPx4PD4UCSJBQKBUFBQQiCAIDb7cZmswGgVCpRq9UIgoDX68XtdjMwMIBSqUSlUqFQKIYc02azIUkSSqUSjUYjH9Pr9TIwMIDb7cbr9cp/MyAgQH69JEk4nU6cTicAAQEB8jHcbjdOpxOXy8Xwj0yhUMjvRxTHv52Mm1S73U57eztWqxWtVktsbKz8gVgsFmpqagAIDw9n7ty5iKKI2+3GYrHw559/Eh4ezqxZs9BoNPIxHQ4H1dXVOBwOQkJCMBqNBAQEyFIaGxvp7e3F7Xaj1WqJiYnBYDDIr7darXR3d9PR0YHH4yEsLIyEhAREUcRsNvPgwQNMJhOSJMmvAdBoNISFhREZGYlKpRry3HgwplK9Xi8Oh4O2tjaqq6s5f/48Xq+XxYsXs23bNoKCgnA6nVRVVbFv3z7sdjtLlizh9ddfJyYmBpfLxc2bN/nss89YvXo1L7zwArGxsQA8ePCA8vJyvv76azo6OkhLS2Pfvn3o9Xr6+vq4ffs2P/30EzU1NTgcDqKionj22WdZvnw5cXFx9PT0UFZWxsWLF7l27RoOh4OFCxeSk5NDRkYGHR0dFBQUkJ+fj9lsHnJeCxcuZO3ataxbt47Q0NAhz40HY9pXSJJER0cHhYWFHD16lN9//53Kykru378vf/tdLhddXV1cuXKFwsJCLl++zPXr17FYLLhcLkwmE1evXqW+vp7+/n4AnE4n9+7d48KFC5SXl1NWVsaNGzfk7rKxsZH8/HwqKiro6enBbrdTWlrKxYsXqaysZGBggJqaGgoLCyksLJS76lu3bpGXl8fdu3dxOBwolUoCAwPRaDQEBQUhSRLV1dVUVVVhMplwu93Dznh8GHOpDx48oKysjMuXLyNJEpIkDfkwfI9FUSQgIICenh4uXbpEV1cXHo9nSIz0eDwAdHd3c/PmTYqLi4mIiCAsLEw+3sDAAHfu3OHcuXMEBgayfv16cnNz0Wg0lJeXU1paSl9fHyUlJZSWlmKz2di5cye5ublERETw/fffU1lZiUqlYuXKlezevZs9e/bw5ptvsnnzZmJiYtBqtYSFhQ2J7+PJmEpVKpUsWLCAvXv3sn//fpYsWYJOp3skRikUCvR6PVlZWSxYsICSkhJqamowm82oVCoEQUAQBDkGFxUVUVZWhlarJScnh7S0NARBQKFQ0NXVxb1792hqaiIrK4sNGzawfv16du/ejVqtpra2lra2Ns6ePYskSeTm5vLMM8+wYcMGnnzySdRqNa2trfT392M0GsnKyiIrK4s5c+Zw9+5dtFotixYtYtmyZWi12iHnMV6MqVRRFNHpdMTGxmI0GodktQ/ji71z584lOTkZnU5HQ0MDra2tskhBEHA6nbS3t1NeXo7H42Hjxo2kpqYSGhqKIAioVCokScJut+NwOJgxYwYRERFy8hUQEIDVasVisdDV1YUoisyePZvQ0FDCwsIwGAyoVCqcTicejwe1Wo1er0cQBDo7O6msrGTWrFmkpKQwc+ZMlErlkPMYL8ZUKoOtUBRFuTwZLpTB0mRgYACDwUBycjLLly/n3r17VFVVYTab5W7XYrFQWVnJzZs3sdlsREdH09XVhdlsxm6309DQIGe7giCgVCpRKBTyz6IoIkkSDocDr9eLKIpDulBfa/d1+Qx+4VpbW7lz5w6NjY3MmzePxMREgoKC/KKcYTyk/h1UKhWJiYns2rWLqqoqfvnlF+7cuYPT6UQURTo7Ozl58iTV1dVcunSJL774gk8++YSrV6/S3NzMl19+KSdZfwWPxzMkvnu9XnnzPXa5XFRXV1NeXk5QUBCPPfYY8+fP9xuhjIdUj8eDJEm4XC754oPb7cZqtf6PhX1QUBBRUVEsXboUtVpNRUUFDocDQRAIDg4mKSmJVatW8dRTTzF//nyioqLQaDQEBATI3WhYWBjBwcG0tbXR2dlJX18ft27dAiAqKorIyEji4uLwer3U1dVhs9no6uqivb0di8WCVqtFq9Xidrvp7OykoqKC+vp6MjMzMRqNQ2pdf2BMpXo8HiwWC7dv3+bKlSs0NDTQ3t5ObW0tly9fprGxkYGBAbkL9CVQGo2GzMxMgoODuXnzJg6HA4/HQ3BwMMuWLWPTpk1kZ2ezbt06li5dyqxZs9Dr9SxZsoT4+Hiio6MJCwvj2rVrnD9/noKCAn777TeUSiVGo5GIiAgSExMRRZFr167x66+/cuHCBaqqqtBqtURFRREaGorL5aK+vp67d+9is9nIysoiOjqawMDAYWc6voypVEmS6OrqoqioiOPHj1NTU8P9+/epqKjghx9+4MaNG5jNZgIDA9FqtfJVJFEUWbRoEeHh4bS1tcmXB/V6PcuWLeP5559n69atbN68mdWrV5OQkEBUVBSrVq0iOTmZ+Ph44uLiKCsrIy8vj++++04uf9LS0jAYDKSnp2MwGKiqquLw4cPk5eVRXV1NWloaiYmJRERE4HQ6qaurw2QyYTAYWL58+ZDyyV8Y0ytKbrebtrY2SktLqayslFucKIpotVqeeuopEhISsNvtHDlyhIyMDDIzM4mJiWFgYIDy8nKKi4sxmUxkZWXJrdKH70O/dOkSAwMD7Nq1i6CgIKxWKw0NDZw/fx6TyURgYCB6vZ7ly5eTmJiIwWDAZDJRWVnJ9evXMZvNCIIgd/sJCQno9XrMZjOnT5+mpaWFyMhIsrOz5a7enxhTqR6PB6vVSmtrK93d3XJy4fV6EQSB2bNnYzAY8Hq91NbWyiWIr/7r6emhvb0dm83GzJkziYiIQK1Wy8eXJIm+vj7a2tqQJInExES5zHC5XNTW1mI2mxFFkZCQEKKjo9Hr9fLrTSYT7e3t9Pb2yjE5Li5Oztjtdjt3797F7XYTEhJCfHz8kMzYXxhTqdOMDWMaU6cZG6alTkKmpU5CplRMffjqkA/fzYHJxJSR6vV6sdvtmM1meaiMRqNBp9Oh0+mG7z6hmTJSfcNZrl+/Tk1NDaIoEhsbS3JyMmlpaYiiOGlarN/FVO/gzW9Jkh7pKv8NkiTR0tJCQUEB33zzDf/5z384c+YMt2/f/l/vFk1U/E6qx+PB6XTS398/osNDvF4vTqcTk8lEc3MzjY2NdHd3Y7fbh+864fE7qU6nk9bWVk6ePElRURGNjY3y/dN/i68XcLvduFyuSddCffidVGlwcNqpU6c4evQop0+fpqSkhPr6eiwWy6SUMNL4nVQGRzRcunSJAwcOsG/fPj788EN+/vln6uvrRzzWTkb8UurD9PX1UVFRweHDhzl06BD5+fk0NjbKw0OneRS/l+p0Ounu7ubWrVvk5+eTl5fHiRMnKC8vx2QyDd99mokg1YdvcPXx48c5ePAgp06doqysjKamJvr6+nA6ndNd8yATRqoPh8NBXV0dBw8e5J133mHPnj2cO3eOxsZGLBbLiGXKE5kJJ9U7OCa4u7uburo6iouL+eqrr9i/fz+nT5+ms7NzROvbiciEk/owDoeDjo4OLl68yNGjRzl27BgFBQVUVFTQ3Nw8aevQ/48JLfVhWltbOXv2LB988AGffvop586dw2q1PjKlYyrgd1KFh+bI/F1cLhft7e0UFRVx5MgRDh06RHFxMa2trXi9XnmEvg/f2KPJhuL999//0PvQSPTx3BgsYZqamjhx4sQ/qkVdLhdWq5Xe3l66u7tpaWnBarUSGBhIb28vFRUV8kDu+Ph4UlJSSElJke/QDH9PI709fJnSd6lypDehtrbWb4KOQqHAYrHwxx9/sHfv3hGrQzMyMsjOzkav13P27FnOnDkDwIoVK9i4cSMvvviiPLdmtPFJdbvdo5apCykpKX4jlcGT7u/vp6WlBfcIZbEajQaDwYA4OM3fNxNcp9Oh1+sJCQkZsxEQvhbr+3k0EFJTU0fnyP8AcXAWms1mk7PXkcI30+3hSVDBwcEYDAZCQkKG7z5qKBQK1Gr1I/F9JBHee+89v5GqUChwOBw0NTVx8uTJfxRTh6PT6QgPDyciIgKFQkFzczMtLS0AGI3GITF1LFpqQEAAOp3ukZVhRhLBZrP5jVRRFLHZbJSWlvLaa6/R2dk5fJe/TVpaGhs2bGDTpk10dnby7bff8uOPPwKwdu1atm7dyvbt28d0uRxfhj9aXyLB4/H4jVRBELBarZSUlPDqq6/y4MGD4bv8JTQaDXPmzOGJJ54gMzOTxYsXYzQaqaio4MCBAxw7dgwGpebk5LBjx44xS5R8jJZQANHX7fjD9m8JDAwkPT2dDRs2kJOTw8svv8z69etJTU0lODgYhiUnvuxz+PsYi200Gbuv5ighDK7toNVqmT17Nq+88gp79+5lz549rFu3DqPRKAudKkxoqQqFAq1WS2ZmJjt37uTdd99l8+bNpKSkEBwcPOotwl+Z0FLDw8N5+umnycnJITc3lzVr1hAbG4tOpxu1zHIiMOGkBgQEEBkZSVJSEitWrGD79u1s2rSJFStWMG/ePL9YG3C8mXBSQ0JC2LJlCx9//DGff/45OTk5xMTEjFohPxGZEFJFUSQpKYlNmzbxxhtvsH37dh5//HGioqJQq9XTQofh11J1Oh0JCQmsWbOGLVu28NJLL7Ft2zaWLFlCZGSk36ww5m/4pVRRFFGpVMTFxfHcc8/x0Ucf8fbbb5OdnU1GRgZ6vX66df4f+J1UQRCYMWMG27Zt46233mLHjh0kJSURGho63TL/In4nVaVSER0dTXZ2NmvWrCEpKYng4GCUSuWUrTv/Ln4nValUMnPmTFauXInRaJx0E4LHAr+TOs2/Z0pJdbvdQ0YXSoMrg082poxUQRDQaDTMnTuX9PR00tPTmTdvHiEhIaN6b3M8mFJrPjQ1NVFbW0tzczMAYWFhxMfHk5qaOqnEThmp3sHVWfr7++UlAZSD/8hIp9NNGqFMJalTiSkTU6cS01InIdNSJyHTUich/wXiqN+e+60NLQAAAABJRU5ErkJggg==;movable=0;resizable=0;rotatable=0;deletable=0;editable=0;locked=1;connectable=0;" vertex="1" parent="1">
          <mxGeometry x="570" y="490" width="117" height="68" as="geometry" />
        </mxCell>
        <mxCell id="Y-hvcmrSchfvY5Ri_YWS-18" value="" style="shape=image;verticalLabelPosition=bottom;labelBackgroundColor=default;verticalAlign=top;aspect=fixed;imageAspect=0;image=data:image/png,iVBORw0KGgoAAAANSUhEUgAAAP4AAAHbCAYAAADrgCdgAAAAAXNSR0IArs4c6QAAAARnQU1BAACxjwv8YQUAAAAJcEhZcwAADsMAAA7DAcdvqGQAAP+lSURBVHhe7P3XlyTXdeePfs4JH5GuXFdXewMQBEAnipQ0o9GM1vwe7pr3ebxv9x+ZP+y6te4aI1Ej0RO2Dbq7fKXPDH/OfdgnsqobAI1IkOKgNlaiqrKqMyMjYvvv/m5lrbVcy7Vcy9dK9JtPXMu1XMv/+XKt+NdyLV9DuVb8a7mWr6FcK/61XMvXUK4V/1qu5Wso14p/LdfyNZRrxb+Wa/kayrXiX8u1fA3lWvGv5Vq+hnKt+NdyLV9DuVb8P4lY97iWa/nTiLrG6nfyZadBvfnE7ylXlf6LXvuLnruWa/nDyrXiw5d6YHlGfU4ZL3/6vAJ3p9Nai35TibUCLBbjnpDff/7Vr5X/Wr5a+Ror/tWP/cWnoDMHr/2lNXhKY02L1m8oqLUYa7HWgLVgQSuFUkqUXklmZTDYKwquP2cifp3i/7rfXcu1/HbyNVX8N9X5TXFeG4Vx/tliUVisMVjT4LmfPa1Aa8DQ1hVN27JereCKihZFzmg0Is4ymtqggxiL3ih/93/lDkmpX6fc1xHBtfz+8jVU/C9T+s9HAJ3itzgvjkVj8DBgG2gbrG2Zzaa0bUNd17Rtw2QyderpXscabt2+zdbWDlb7KC/BKH+j+Fc9vrKgXGTw5XKt/Nfy+8m14n/hc296fIOxBoXBNCV1saRcL6iLnKapOD8/o2lbmrqhaRpWq5X8602+33L/wUMObt8l7Y0I4iEGH4sWX6/E6wMoq64V/1q+crlW/C987qriO59vW7QyNNWaTz74GcVqRlWuKYs1VVXTNi113WCMwVrrlFnSgeVyzp179zm4dY/B1g32bz/GEmDxsOhNaL9RfmcQvlyuFf9afj+5VvzXnv/896L4DdgaZWrm0xN+8bMfsZyfsV6M0Urh6WgDibDWysOI0oMlCBTGQm+wy87eHW7d/QbDrZt4UQ+IsNRX3vta8a/lq5ffFFN+jeSLlUm5kF1ZQ5EvmE5OaeslbbPA90rCoEarAo9y89CUeKpEU+FR4ns1mJzpxTGnRy9ZziYUqyVNntNWaynqfZEtupZr+YrkWvF/C1EWNJbVcsZ0fEpTr7AmR/s1YWTQqkJ1Dyo0l1+1rjHtGs9rsKZkcnHKcj5FK/A8vSkaKq6V/1r+ePI1VPwv9uyX8vrvFRqsZb1asVzOKMoldVNgTCMKqzVYBVajrAd4l6dVtRhTgzJgDb4G29Y0VYmvFcrT+FF4+dbXci1/JPkaKj5XlFseXaR9GXG//nvlRdRVyWR8zuHRSybTCXVrsTaiqQM8v0+eKxYLi21TomCEp1MaA41pwXqYVmEaI5V+08rDWnA1AQH+SG1gUydwj2u5lj+0fE0Vn8959s+n2Ze/N9WaPF+T5yvyIscqMFZhrE/T+syXFX6YcePmA27feYu9/Xts7eyTZD3QUrkHBVZAOh1Q57J7cC3X8seVr7Hi/7bSmQTjNNa6KEFt4Dxpb8Ctew956513efTON7n36DE3Dm6TDbcI4gSrJKoQdF6H1Hs9xriWa/ljyrXid+H8a/7/qlh0GJGkIUkSEccxAEp51A1YfG7fe8jDx9/g1sO36B/cYXTzFsPtXZJsgBdEXenu8hWt9Pq7MP91+eKj+H3kX5M6/K5/fy1/XnKt+J0nvvLfRmz3v5Io9ohiH2Ma4iTDWE3TKLZ39rl3/zHD0Q5Yj2ZZgBeztXeT7b0D/DBBaw+tPZSnUJ7Cuv8uvf3VmkL38x9GOsW9qsBfqMzd4RgLxm5SEmX/dYbjWv5ty7Xib+QNn283mgC2om0rmramaRvWeU7TGJQXECd9tB+h/Rj8COVHoDxUmBAmGX4YE4QhYRgQhgFBFKC0G9TTCrWZ8HtT+f9w0imsMWaDLOy+N63BNA2mdQ/Tuojk8nEt/+fJteJ/oXQVOCNTd01J3ZTUTUXV1CwWS6qmxQsisv4Q309QfgI6xgtiMAqICaIEPB/teWhPozyN9hSNaWlNizEtpm3ffPOvVIwxNI0MFNV1Td24r3VF29RyTE75LyOSay//f5pcK/7nxIKVvrt4e0Pb1rSNUw7n8eu6wfN8kqSH1iHoCPDBC0H78jpa4wcBSslXP/DQvsYqi90UCn9Xpfr1UcFr3ty87q07b9+2DXVVsV6taJsGa93fW/sFnt7S1LUzUN3vf9djvpZ/a/I1xOo76T71azpkwbai8MZ5PFWBrnj52U/57OWn/OKXP6XMC7QO6fdu8Dd//ffcu/sNtEoI4syZ0hprF6yKU37yz/+dfHxCuVyQZQPy0nDj4CHvfuuviLM90Amo8DUb/OZ03uvz+b9e6a+G9Z7nbb7vfj+bzSiLHNO21E3NfD6nbVq01mgtk4KBH9DUNVZBmmaMtkbEcULkCpu+76O198a7X8ufk3w9Pf5VU7f5/or3tcYZgNZ9bfA9H9/zaJvG/cllrd4aKRDSGvcyrYTNTY1pa9rWyNPKYmhpraG1nYf9Mrt7Nef/7fJ/pZTz6K1TTo3neRhjODw85J//+Z/56U9+wpMnTxiPL6iKEt/z8H0PY1qqqqIsS5aLOfO5PGazKacnp0zGY5bLOU0jn+fNaOJa/rzk66n4v1acAdB0IH1oGwI/IAgCmloUv/s7ZR2dxpVioG1K2qbE1AVtVYJyZB4uxLebkvkbb/0HEKUUvu9vjMBkMuHnP/85P/7xj/n4448ZT8aslktR7MWctm1pmpqqKqmqkrapXegvxb4u1y/LkslkynK5pCxLmkZGkK/lz1OuFf9LpVNkizEtSmu00pjWOByPQHg203tcRgmmKbHuYZoKuty4a+Op7jtp6r0uv581kJBdLut0OuXJkyf84z/+I59++glVVbG9tcXe3i6+79O2LVVVUlcVCovvabTqcAby6IaJwGJNS57nrNcr6qpCa4Uxf9zi5LX8YeRa8bmi4wBKOd27VHylwbjQXCuFMhZbt5SrnHK9xrQl2gNCD2zD0YtnPPnoV/zzj/6B+WTMYjrFGMP5+IJlvhKF7/RbfVEo//spP8ByueTs7Iwf/ehHvHz5govxBXm+oqwKjDWEobQVq6rENDW+VoS+j1YQeB7DXo+drS16aUqaxOzt7nBw8ybbWyNOjg65OD8Da7DXXv/PUq4V/6q86X6d/imlaE1L27QoFHVVYZqGpqqYT6esl3NMuYbljPXZMS+ePeFXP/8JL58/ZT4dowDTtkLiZTull6+v+/zfnMf/NmKtZTqd8urVK05OTpjNZhwfHfHBhx/wL//yL3zyySe8OnzFcrEgz9fUTb2JYDAyWZDEMTsuOhgNh4RhQNs05PmaX/7ylzx58oTlYrGJBq7lz0u8//bf/tt/e/PJr7Vc6d9vvlcN69WM+WzCi8+ek69XeMrHtpoojIUq01iW8xlPn3zMJx//gsnkBNPmeBqiMKRpW6xSGDQ7Owfc2L9DEGZoFaC1j0JLsPEFDLtf9Nyvk9lsxng8ZjKZMJ/PMbZltVoxm88oioKVy9OrqqKpGzFKxlDXNXmeU9f1Jn+v64bVes16tWa+mDObzfnlL3+F53n0+wMUijhJfudjvJY/rVy3866Ksq6SXwuLrjKgamDNyfFzPnv2Cf/rf/z/mI4v6CU9MD4H+3cYDba5dXCHump48uQTZvMz0CVxbPF80NoTpfc0LQFvv/M93vvWX5Fke2iVoHUMtmuPfV6BflelyvOcTz/9VEL8iwvquuLJk085PjoCYGs0xPc9Aj+g3++RhBFRFLripdCAeQ6D4JIdoiQhCENA8eMf/4THjx/zd3/3d2xv7zAYja4c4+92rNfyp5Gvb6h/Na2+GmF3LbbX7l8p46EUxlXvg0CTZR5nZ8948eJX/PSn/53//aP/N/nqFE8L737btNRVQ900GGsxRmON3pBsbt74MuG/+qa/tVxWI+QRRhFN0xCGAQ8e3Ocvvvc93n7rLd5//z0ePbzPwf4NHj94wIN7d0gigRNPp1NOT09o2pqyLNBaCcqwbSjKnKLIMcYQhiF37txhOBxhjCXN0isov+5xLf/W5eur+F8iFqeLX3ALX+27l1VOVa1QqqaplzTVgrpeUNdLFDWKrvqvMK3FWIU1GmM8sL54eNspP/9qpe/k6vEa0+L7HoPBgL29PfZv3ODu3bu89+43+Yu/ECNw+9Yt9m/scfvWLXZ3dxgM+mxtbXHnzh0e3L/P/Qf3uX//Pg8e3OfevXvcuXOH/f199vb2iOOYIPAdddibZ+mLzty1/FuTa8X/rcTbhLLi8SFf5+TrtYsFhHMf1YJqUTTyPdYptMa0ovjWeCgVoJSPUh5Kafdw/Pq/Y1j/24gfBGxvbfHg4UPef/99/vIv/5K3336bBw8f8vbbb7O7u8tgMGBnZ5v79+/z9jfe5u233uKtt97i7bff5s6dOxzcvMnu7i7D4ZAsy4jjWFKYzyn+tfw5yLXi/wbZ3NZK/qeshOdlWVKWpfsLp/RcKr2ilRoBFqwovDUe1nYe38dahVK/Hvp6FYbbKdnVnztDdFW09mialvl8ztnZKfP5nLIsCXxfcvo0wVqzyecD35evgc9wMGB7a4utrS22t7fY3toiDAO0p7G2pW1r4jgiCALpRP4G7/7m8V/9HNfyp5NrxX9DlJLllh3DjuDyXNPNavH+VtHPevR6PUzb0rYVeb4kin3p5yOe3xhZqQUeaTogintk2ZA4zmgb6wp62o3Af7FSXI0AOjQeTqG6QZy6qWncEFFVVxjTblZ61XWDpxWLxZxnz5+xWq0xbUsURSilWMxnJGlMvlqwmM2kj+/7lEVOmefEUUgUBNi2oSoLwIoh0EqASNZtDPo1yiyf4WpEo37dn1/LH0GuFf9z4gpuaPe4qngeSnn4XoDnC3Y/CDyC0CcMPcLQJ4w8wsgnCD3CUH43HI7Y2b7B22+/y7e//Rfc2LtFkvTROsBeyfPf1IWr4X9nAJSj8bIgaEKtCfwA3w+IgpAoCDGttOI833dAHUWerzk5OebZsyecnBwzX8wASLMUTyusFQNSVSXT6ZjPPnvOhx/+il/96pc8e/aU2WyGpxVZmryWx2/s0psH7+TyuK8+9/rP1/LHl2vF/xLZ5N7OAFz1vH4QEPg+fuAThAFJEpGkEVkWkyTuEUfESUiShAR+yP7+AW+//Q6PH73NrYO7xOkATwdYK1t23izuWTdsc1WqpmaV5yxXS1brFcvVkuVqyXwhuPvpYs5sMWcynbJYLARTX0s0UFYFy+WS6WTCZDpmtVxQVgV1Iz37qqpYLRdMpxMmkzEvX77g5csX7vuXnJ+fs1qvWSwWrx0TcIVM5IvFkfpsHp3Z+EM9ruV3l2vF/0KRUNRaXKjvgw3kdFklk3q+7756+IG3YdiRR0gQRoRBTBCkhGGP4WCPfm+baHALgqG8pnu9N5UeV0Rsmoa6qSnriuV6zXQ2YzafMZlOGU8mnJ2fc3R8zIuXL3nx4sXmcXZ2ysX4gtlsynK1dOmBJQh8kjQGLHVTsVotmc+n1HVFUeSs1isWizlFkbuWnmY0Gsln9T18zyOK4t9QgLz8PK0x1I3wF8zmC2bzBYvViqppN4OMVdOSlyVFVVFUFWVd07QtMtnweSW3V96hU3rrzteXpUtvynW94Vrx3xCn8Ea+BwXWY53XJPEWUZjh+wH9/oD9/QP29vaJ45QsTUnSmCAMiOOENO2RRD08nYFJ0GSYOqbMNdVsDnW5uYOVgqsOs1MqawxN2zKbzxmPJ0ymE9Z5TlXXGGup24a8LFjna5q6ZjabMZvNNuO0YRgQRSFxHKE9TZb10J5iPp8RBL57SKqyXi+pmwpjGqEFU+LFuxTD8xRVVRGG0WbOv6prV9wElI8UN+R2apuWqmqo65ayEjTgeDLm5OyUk9NTPvr4Y3714Qd89MmnHB0fM5lOmUynTGczprM58+WSxXLNuigo64bGGBpj5fvWsqEIsVA3LXXTbqKmN4lN35SrNZIve3wd5Frxv1DUlcUWCkVA4Mdsbe3w6NFbPHz0iL3dGwwGQ4bDEYPBgH6/T5ZmBEGA7wUYq2kbaGtF22iqqiVflyyXOWVRYpsW3sQJXRFrLa1pWa3XXIwvhDDDGIIwpNfv0+v1yNKMJEmxCiIH2jk9O2UyGTOfz1mvVxRFgVbS22/dKK0U/xz1l2lR2gJmY4SU7r4qlGZDE9a2LaY1wi/gIL2BH2Db2sGcHVGn0mjt4fk+nudT1w2LxZKT01MOjw4lFVkumC8WLopZsFiuWK3XzOaSqoghkBRmsVyxXK1Y5xKVrNYFhRuPDn2P0PfwtUJ3x98Zzy9R4jcV/M2fvw5yrfivydXg8VK0p/B9j+2tbd59913e+cY3uXFjnyzrM+gPSdOMKIzwfOnNdyG8hLo1bVtTljnL1ZzZfMx4ck7TlFhHhWW/oC1nrcW04l2TNCHNMtIsJU5iacW5NKBupCVnrGW5WpHnOavVSpB2rUF7+pLfzxgZNnLdgNaIEmstXIDdw9MKreWrp2UUuTMUrWlRStqZk/GY4+Nj8jynWOfUZUHl6Mk21F0dGKqzcErj+Z6jIpM2YWtayqokLwrKqmQ6m3ExvuBifMGrwyOePH3Cs+fPOb84Z+bqGNPZjOl8zmy5Yl1Ukj5s6ghyTn99SvL1lq8dVr/7uJ+/KSx0c/PWYq0D4ChD2xa09ZpAt5hmhU/D0cunnJ0e0dYrIMe0JXVtMC00jaIqDXlRURSKXv8Wt++8RToYURmL8mLuPXhEnGQoz0d5PhYlDUR3XE3Tsi5y5osFeVFgFdJLN8KBVxQFRVFIfz7wWa9zmbSrKkxTU6zXRFHIwcE+Bzf3+eUvf8HZ+Sn9LOXOrVvYK14/jgL+5//8HwD8+3/374iiiMNXh2gv4NHjt/jnf/4xQRhx/8FDwihmMplzMR6jtcdwOCTNeviej+d7aO3L0JHnoT2PumlYrlZMZ1OatiVOpEaglJLoyJe6iNQRfLTSKK2kWxEEeJ6QijR1Q1mWtG1DEsW0rRz/er3G9zy2t7ZI0lRmDDy9mUXQ3iU4qju3fImXv+xAvHlv/CHlTXX7Kt/ry+VrO533eQMgOb1S0trqikXGtChlCHyF72u8MEApS1PknBwfYkxFWa5o21pMh1XUVUtrLW0LrVUMhzvoIKQ1hnWRoz2PNMvojwav97UsAhByhcWiLFkuVxLeriRsn0ynjC/GzGczyqKkqRsWyyVVJX87Hl+wXCxYrVZorcmylK2tLV6+fElZlkRhSC/L5HZTCqUEuPPZi89Awf37D9DaYz5fYCykaY/xeILWHlnWw/MCzs4uOD09d4w8KxbLJdPpjPFkwngyYTqfs1guWa0l+pjPFyyWS4yx1E1DWVYUeUFdScQiBugyCqHbb6CE/AQrRiLLevT7A4wBpTysgSRJJc1pDcZFQt3kYVVVlFUlbEFWuAIvT7ekc03T0tTNppiL/bzi/+HsgHuDz8kf7A1+a/laefwvDv/Ey19+f2kQ5G9brC2wpgBTok1FvpwwPj3i009+hacrjF2jVAtWY4yiqS11balqQ9N4xOk2abYNXkBetfhhyv0Hj3nw8DFBvIWl3WAGrJXiWNO2LBYLTs/PuLi4YDqfMZvPWa5WFOu1MAE5QE8Y+igt4fdysSDQGoVld3eHhw8fcHBznx//+F/I8zWj4YC93W1HFSafGdXyT//0IwB++IMfkiYpLz57iUVx7/4DPv3kKdrz2b95QJr1ODo65ZNPhbfPWMiLQhaGONqvOM0IIwfpRVh66qYhjCKyXobvyfEGfoAf+G4yUAqOvh8ShiFhEMnPQUgcJxvqszCQr92iD2klioGuqkpGjB1Lcl1LyhFF0cZA+J6Hpz28LqLw37wfuuLupbzBffqvlC9TejZO548pX2vFb9uWuq5ornDLGdPSNDLkIjekAltRlSuacklbrWmKJZOLY148/5QotKL4tO7iadpW0TRQ14a60TStT5j0qVtYrEvSbMijx+9w78EjdvZukpcGi4eymtZYNydfs1wtOT+/4OziXKr7kzF5nks13chnsVby9iDwsW6ddxwENHXFYNDn3v273Lt7l5//7Kc0Tc3O9hajQf9S8ZWlbgp+8YufA/D++99i2B/w4oVT/HsP+PTTp2jtc/PgFkna4/jklI8//oTDw0PqusEgMGExlhrleRgLrfOoXfqU9XoMRkPB+SuFH0iYnyTJZixYGIaltuAHAb4njL6SCkirNIljIQn1fLQnob3ne2IwwgCtlLAIu30BVVXRtgbP0/ieTxiGAr7yAzzfo9froZTC23yGzS0ip+ha8f+8peOH01pTVRVFIQCWfL12s/hyKs7OzoiikF4vI44DokhRFgvy5Yw6XxB6huX0gsNXz0kTTWvWgtFHsPfGKFrTKb5isazwgoSibpnO12zt7PONd95na2uPrL/tFN8XcItxhT0jWPvJdEpZVbTGUNVCnCFc+JeKH8cxcRKhlaIsSjSWxXyGUrC7u0M/y/jgw19h2oabN/eJw1DYdgCwFMWKJ08/xVrL40eP2d7a4cWLF4Dibqf4ns/Nm7ecxz/h0yfPnMe3NG27UXxjkXC+qqmqmqquRfmB4WjIaDQiCAJwQChpZdrXcvogCFw0EBBFEWmSibcOgo3CBu53HXZCqW5vgCHwu9fwN/9GKe3mE4RFqCpL6rqhaRq2tkbEcUzqho+iKOxuGeD1duu/Xq4V/08i1kobq2kaqroiz1csHPVUWQit9Gq9oixL5vMZWkN/0Gdvd5teL6Ktc6piSVuuiTxDVSxYL2dU5RJrC8HnI3miRWEcMMfgM18U5GVLXjYY67G9u8/+zXvEyYC8tLTWJwhS4jghDCO01g4+W7m+vUFrT0ZhtbcpUnXpiFJsOPG1UqzmC549fcpsNmFvb5eDg30+/OBXGNNw9+4d7GuIQClkfvrkE9qm5e7du9zcv8mvfvUBoHj3vfd59eqIqjEMhyM8L+DTT5+SFyWr9Zq8KOj3ew5wJD31unZtQ2uxKLQnVfwoivD9gK2t0aaLYdqWpq4kVvLEtZpW/q3I55ViZ3v3yut5eBo87/L8JGnicAyRGAk/wPOEatzTstXosl1rWCwWRFFIkko6kDpGIe1JW9L3XGvyX+35f53S4/Y1Xiv+VyLWGpq2oakr1vma1WrBZDJhtVoymcwoy9KF0QXz+QylYeAUf3u7T1ksyZdT6nzJIIsw9Zq6XFNXa0x7qfgoWCxXMuSjFG2rqFtN3SgaA1YFDLd26Q93ieIB1oY0rUcUS+EqjhO2trbI85zFakme5/iBQwkGAZ7WcotY6bNrJa23DnCjUcwnUz7++COm0wn9fsb9e3f4+OMPaeqa+w/uEfpu04+T9XrF06dPaZqa23fusLuzw5OnT8EqHj9+m5evjqiblsFwC88L+OSTT/F88c6eey1rLXXbYlwfXyktt7uCpjEkaUKv1ydJYjxP0hJ3ZYS/sG2cF66JoujyehTl68qvFEp7sjPAkYMOBr3XvPJwOHRRk+wGPLh5E8/9vac1SZLIWjMt1X/P7RaQr7KPAIRdWOoWEmEEgaQd6neaNfhNSn+t+F+pXFX8yXTCdDrh9PSY2WzG1Cn+Ol9TlgXWGpSGoSuE3djfZrWYMJ9csJ5PSELQpsaaCtNUGFNdAlgUrNZO8QFjNYYIg49VAa3VxGmfMOoRJ33CsE/daHq9LUZbW/T7fe7cuUPpllsUVSkkn679pZTw+3VpC6ILl98DTVnxT//0I6bTCYHv8fjxQz75+EPqpuLB/fsEvvfabbZar3j29Cl1Uzt2nQFHx8dgFbdu3RbFrw2DkSj+xx9/wtbWNge3brO9s01d1xvFbxupzEvk42C7LhUQDy3tuY7TryvGCRxYCnpJklwxxBWr1fo1xbgYTwSL0MoUYttUbjpRHkppkiQmyzLCMGQ0HOI5z609jziOCcNQCEV8n4NbN4kiWYEeRRGjQY+6tZsdAp7z/BJVBPi+bD+WKMt1A75IvmRN2tWNzNeK/ztId8hXC3W/SawVMsmqLrk4P+NifM7h4SHj8QVl6UL9ldBPB763Ufzd3W1u39pjPhszPj1iMbugKVZ4NHja4imLtY0QcYjvc+y5ci1b42FsSGs8rA4weMTJAFSAxSMIM6pKMRhus3fjBoOh5JtBEBCEwSZ31lo8j4S2enMvKWCxnG8+p9xrhv/1P/4nZ+en+J7m8eOHfPTRB1RVyf17d2nb5kqOL4CXZ0+fUtcNd+7cptfLGI8ngGJnZ9cpfrtR/I8+/Jg7d+/xzXff487dO+7mt9StoWlasjQTII17j7qVllnlahXAaz11sJgrLT0r+NvL4R+XNkkNQWoKdSOv19Q1y8WcuqnI11L4XK6WSLFOPPfF+cWmiq+15PpRFNHLesRJjNaKrdGIG/s3GI1G3Lp1iyAIN6mEcUSkxgjYSWoRl8XFL74PncKr7jx/vqPULWX/Uyj+n10f/007dfVkmtbStEZO6OcqMhL6NW2zGUiZToWFtqpkh1yer1FKOW+RkmUpnqfIspR8tWQ8PuP46BVNVcgqLSteN/AdU67n4/khYZTg+SGNAWM9lI42hJpahQR+QhL3CIMEz4+I4gzt+VR1w3K5oqxK2tYQBAFxJF7I83xx7Vaor5dLSQO0Vizmc7ByHF1VezwWkk1rDFtbW5yfnVNXNb1ejygMJdzVijzPscBkMqFtG/r9vjDrrlYopcmyPvOF9ODb1hCGEfm64M6dO9y7f4+d7R1XiIsIw4goitGeQHX9IBAFCiNZFe4KbVrJOHEcRa7CLiPOYRAShTFRFBNFCVEYE7jXlVBbqvphGDojKKCfOE4JwxjfD/H8gDCM8PxAsPx1Q5qkoDR5UbJcrbDGUhQli8WS2WyGMZbTk1POz8esVzmnp6eUVUmv1yNNU6xhc/5t1251hkwiAgn/tRam5Ndk84TaeP4vMgDXiv9binHrnpumFUCIKzat1mvJhd3FuBSn+E3N+cU54/EFR0dHnJ2dkq8LkiRhOBzSH/TxtHYTdr54Wk+zXM5YzKaslnMHaRUmWq0daYeVSn5rZd9m0xrZu6l8LD7gY/HcDL63Id0Ej9ZAWdUslytmszkX5xeUVeXCSU2/10ddKeRdXJxT15XkqJ6PtVLc0i7/Xy1XvHr1kuVyQdu2bG9tcXp2SlVV9HqZC10VTdNQFAUA48mYpm7p9foAFHnhQuaM5WqFMRbteYRRRFlWHNy6zf7+/mWfPQikMp6kWDdZWBQFVVWRpdmm2BZHMb0sI05iMVTOMHRhtjw65Y+J45imaVzv/UpxTi4pSmvX5ouJ44Qsy+gP+gwHA3q9Pr1enyiOiaOYwL3P2fmZjCjPZsznC9artQCR5gtOT0/5+OOP3c6Bgny9pihLPN9nMBySZTEWzTrPZfbg8JD1OqdtG3xfugtdjeBSuiUt7qcrN+a1x/8tpbuprJV9bkVZStvIWd+yqgBRBM/zrpzzS48/GY+ZTCccHh5ydnZGayzb20I3Jd7Ec2G2RjnK7dVqznIxE059Zwy0iyqs61m3RgpZddPStIDyZHJNBRjlYZWHQUA+rQGrfJrWUtctVVlRODqvuqqEWCOWFlZTN6zXa9brNavVErBimIKAuq5pG2lLlUVJUeTMZ1NevnzBer2ibRsGwwEnp8cURUEvE8UHRe2U02K5uBjTNDX9Xg9rLXkuBiFJUvKixFiD5/lEUcx8Pufg4Caj0RZFWdA4+Kxyo32+76b/wggAYzusvwT/aZJIPz4VgxGEIfFG6SMZaY4uH8DG0wdhSBCE+L6P53Xj0PLvfF/4EeI4Jgy6qCAgTROiWF4rjiLiJMYPhG5Ma82Lly+o3bShtZbpbMp8seDw1SteHR7y7Plzt5OgZLmUqHC+WDCdzwRkdXpKWZY0jdQXumN7Ta4V//eT2s1rS+uoxrSXhaQOKNI0DdaBSqSHK783Vtp5eV6wWCw4OztjOp0RBCH9fp8oimma2hFJapRD0nXY+HydUxWVhKvacxRd3WsjXt9CVTcbPj3lBaA9rNIY5W88vDwUbWtpagH/hC4E397ZYTgaSpXfhcOdx9dKsbW1RX/Qw9Naqv9zaUsuV0uWiwVFnnN4dERRSBg/Gg05PT2lqkp6/Z5EQ1rRXlH8yXhM27T0ej2wUOQ5KE2SpoL/txbP84ijmOOTY27c2CdJU2azGet87fJ3uS5JHAtKL8ukUOc8/3q9dgoihjvw5XN1Sts9vI7vwJf2XBwnglWIE7euW8L/MAiJopgkSR3rr4cf+Jv7oINdB4G8j3VK1xX6gjDEWojjiDTNKMuS8eSC6WRCURbkRS6w6ZWkBEcnx0ymE87Pzzk7P2O1WlE39WZ3gUB/7cbweZ4YF+j0WpT7dcVXjuzljyv/5ot71g1TaK0xxmw8fON60UophsMRtSOOfPnyJWmasbuzgx94rNdrAIpCuOEXiwVlnnNycsKTJ084Pj4S9FaWufHaHrhqs4yiCsCnKnPy9YJivSQOPRQtWhu0Ng61J6fROhipETgbxoL2Q6wKMNbDGA+tQ3w/JggTPC/EGk2SZiQOQDIYDKjrehM+e1pz48YNqrJkNBqhNIwvLqiqSiKWVgxaWVbk+XqDUWjqiratee+9d/nHf/gHwtDn/r17+L6WKKGuaZqGIPB59uwpdS1V/SiKmM/nBH7AjRv7nJ1dUFYNfhDS6w9YLJaMtrYYjbY5PDyS/D2M2N7ZZW9vjzCKGG1t0esNXCQgVfz1ek2eF8RxjHWY+CDw0Y7kw/MFaLNe5ZtIwPc8QNE0rvjnblerHAagbT9X92kc32BVCeehNZaqLFkulxRFwXw2paqka1DkOZPJmMViwWw2o6oq8vVSlL4oNniBxC0UMcYwHA5J4pgs65EkAiLqugJpkpClGYNBn93dXZIkYWdnm+FwQOgHLNcrokg4EuhMgb1a5/98DeCrkH/zHt86CiqttYBvqpraXeyuvxpFAXXdoLSiqmtOTk7xfI+2bVm6Xvh0MmU8HktBZzpjNpuzXK6oXN84CANMayQC8EMZmTWQ5wVNLW0q01pZdQVyyRSyIccaNw4qRBBJmmGtoqoairLCD2NAFN7zI4aDLZIkI0l7JEnGzs4ew+GILMuEy8/3KfKcpm0JfJ/IKX8H3pnP5zx/9ozxeExVVhKGa4/1asXx8RHLpUzD1XVFmqX0ez1evnpJEPjs7Gzje77ccVZqT0rJZl1jDIPBgCiOqet6QzqyWq03Hj+KIuaLOet1zmw247kbl13nuQvnpXrtuwq6MUaKeZ4mTYS0ZLmQNtl6nW9ASq1pNuO/CpnO05u6hnQ2PM+TsNg5yO45z7XaOo/v+wF+EBJFYpC6WkGcJKRpSuiUWTx9StbLiGNR3CAMiCMpJvp+gMFSlCUoxTrPWSwXFHnBarVisVwwm89eq5ecnZ2xXq03hqdpGvqDvkRtWtM0MswlU4jasTa/HuhfK74L7a0DY8jJLTFGwrcgkCGP0PO4cAwu5xcXvHr1Cs/3aY0RJZ9KLiY5r6yG1kqAHIPBYNPT9bRH2wis07RGCoarlZubb9/oywo5lLEtxlpaYzeovba1WCssvdoLSLI+Sdqj1xvSH2wxGG6RZQOybMhgMCKOU7SnaVoZNMmdEjWObacqS2azGWVRMJ1OmU2nfPbis01qsFquOD8/59nzZ7x48YJXr14xnYyx1tIf9LHW8PTpUzxPM3IbcKS1KX3vqiw4PT2hKEuiJCEMQtZrSRPiJKEopQ3n+R5RHHN+dsGrw0NevnzFxx9/BEpufM/zSNNMUoLEVeUdN2HXvvMcWEZCb0tZihJ1x9NFCJtr3rYYVz/wvI4e6LLQCR1hyJVOjhLDEUbRxhiEziNnaUoYBsRxRJLKjIBSQqcWhqEzLkiK6LxyZ4xbwVPTtA1ta6irirwoUG4QyVrrooFEir4OTn1xce6YkBvBYrg7SCsxblwr/mVo3118sZyVhHlO+bUr6nR54Mn5OT/92U/52c9+zk9/+lOOjo7QnoexhvPzM9pGgB64/nGapgwGQ3Z3d7hx4wa9Xn8zcoqF6WRGnufk65y6quR4XItQa8DKCKi1xm3AlUq+MdC2lnVegPJeU/Zef8RwtMNotAPKJwgSoijB9yPaTXtpwWI+J80ybty4we7eHoN+n6aR9loSx6xXKyaTCVVZsbu7S5alPP/sOT/58U/42c9/xvnZOT/96U8oipydnR0eP36EH/hcXJwzHA65ffs2iSuuBW7aTWvFar3C8zx2d3bZ2toCFEmSsr2zzWw2F8IO5/GPjk94+fIlL1++4umzZ0wnE6YzOWdVVZEkkounaYLWMjyjnDIqBTs7Qzxf2IC72kldN1SV4Oe12wtQlm42oZVzjcuJLxVfeuhaST1GFEYiMGEBcjBd94hC6c0HgRROsywljmIODm6ytbUtuwS2tjk4uMlwNKLfH7C1vUUQBCRpivZlgYgMEgn+oW1lEnCd5zJCvVqBayO2bUue5+zu7pFmGWEQUlUVnieG0F5BX1p7yTHIFffCV2QI/k0pfperdeF97XLQuq4l9HOho3Hedb1e8/z5c378k5/wy1/9itOTEw4PD8myHtvbW1gsvufR7/ekzdPv03eUVXJjplIBDkMGgyG+70uBpjUbuKjn+YRBIAw2rjKttKLd4AHWbgINtA7w/YjBYETWG5CmPcIo4+atO4RRhlIBTQtBkNI0oPAJAqlWz2YzVssVaZZyY2+PmzdvMhwOaduWOIqJo4heryez9ssVTV1z6+CA4+MTfvnLX/IP//APrNdrXr16KYZPK7a3t9jfv8l6Le0qawyxK6QZI2O92tMslnOODg9pmoa93T0G/QFN3RAGPoP+gLIqmc3m5HmOF0jI+onjy1vnObkjBTk/OyfwA7a2tvjW++8xGAzRDkjTPXzfp2kkNZE9ADLE0ymv1po0SQAlaV1db5TfmM7byiwASrAbxljouPqVjPvqK1X1ziB091fn3eM4otfvEXhdBJCS9XoYY2X2fzAg6/VkejCMsEghUpRdlNu0rSD8ikIi0rykaaTm08v6pFlGlvU4OLhFFMVSe2lalBLi0iDwJWKwRqKZK0r/ZQr/Zc//LvInVfzuQnQfRKy4XKCiKMjzHFzLJQiCTXFvPp9zeHTEhx9+wKefPuGf/vc/8erlS4qiIElS7t27z9bWFnESk8TxJq8LXYsON8stByE3Qpdz+Z5HEsduM6zgBVrHN5/na4piTV2XYK3w5/sBSZySZT0yF9KPtrY334dRQlW3NI1bmolPrzciTfvEcYrnBRweHTGdTdFKsbO7w9b29ibUDXzfFYDk/MxnM168eEFRFAwGQ5RWPHv+jH/+l3/h5auX5Hnu2kqKMAoJfB9jLLPpjKapN22ssigoncI2TctiMcfzhFEnDONNUTSOE45PTpnPF6wcMu7Fi5d89PHHnJ6ecX5+jrWW8XjMer3m9u07vPvNb/LW48cMBgOZvXfdiA730LbtJiw3Ds4buJFcz/MYDIav5efak39TVtIRaDuWpCv8CZvricTNHUhIWambqyttXbEQFuEZdFBoLZ2OIAgYDobCpzgasr2zzfb2jkSFvZ7gAqKIIAjRzpDVm/aykH70ez05N2dnlGXl9irs0Ov1qOqGqqxYLlcoIM0ytO4mRz+v0J0B+EOnAn9SxcddsDc/SFEUnJ6eMh6PpTdfShh8fHzM888+46OPP+HnP/8Fv/jFL/jsxWcUZcnu7i53797lzp273Lx5sCnYZFlG6DyAcjdaZ7GVuxsUiryQvDrwAxcZdAMlHoN+bzP66fsaz1OEgU8Y+qRJQpKkxFEqBbs4xfdlmMMirb2irGhqg/Dz+yRxj15fJt2apubly5fMFzO0Uty8edOh6sRDaq2JohgUNHXDfDbnxWefUeS5REGexzrPefHZC05OTrDWkCRSnCsrwQQ0bcN0OhXa7KLg7PyMk5NTTt3DIopbVhVKaaq65vxizHq1prWWV4dHTKdSHD2/uODTJ084PjmhqQXpV1UVQRCyv3+Tv/7rv+b9b73PW2+/TRTHG95A7QmbjtaKpm3x3DRd27aEYYRSepMnx0m8KdzGsVvP3eX91kiU4LYFWSzWiNfvHEcX9lsrVGbi7xEOXtUxnMprWSvRo0J4FbXWxJEgN4fDoQN2DUiz1EWKMYP+gDRNXMok8xNKuTzfWMYXF0wmE0zb0ssyXr54wdn5OdrzuHXrFjf297HWbrAZ1loih1e4Kq85xC94/veRP6niy0mXVl0nxhim0ymvXr3i/PycopD2T57njMdjjo+OOTk54ezslNl8Ttu2pGnCt7/9bWeZe2Sp5G5pmpDEsXsfCRVbI+y2l3minMTVSir8QRAQhSH9Xo/ERQpB4GNMI0rU1OzubpNlKWmWkCYpvh/g+QJP9YNAqtV1TVlV1HXDcrnGovC8EO0FGKPo9wdYa5nNZizmM7eeCnq9DK01vSxzYXFDHEWS2zpo7fn5uXjsqkJpzfb2NlVdMZ/PMdYShdFmK44xhrZuWC2XFLm0NLGKoigd4KegbVtmszllWdEa8VwXFxes8ly8+WTCep0znc0YjycsliuOT05YLBbM5wvCMOTx40d873vf4+/+49/x3nvv8fDhQ3AG1Q/cxNuVGQZjzAYAFUUxAFUlI8ituZKjOyOqPU0UhVIMU6LEdVXSNjXGNICsMgNpr3pKxqQUxk3uGfeze39rNisNrMWlEgYF0iVwU3qe76O0xvN8Yqfog/7A0YD1pc3nixHTbu6/20lQNw2TyYSyqtja2kI7HgjZOrwNSjObTSmrgiiOCUOpMfGGcr/2/R9I8f9kfXx7ZfdbF8avVitOXJ7eefrW9agLV9F+8uQJRVEQhCFpkjIYDbl79y63bt8mCHyqqiZJUjzdATTkYvKGBdVXNtR2x9NJmiRUXbupLMjzFXVVUJRr6iqnKtcsFzPAojREoZA/WgPrXAqCs/nczauXBGFMGCUk6YAoygjChCCI2d7epmkaLs7PSeKYvFiTxDFvvf0W29s7ZFmKaQ1JkuC5YuViPudnP/8ZH3/0EWVZEicxNw8OWK/XPHn6hOfPnnNycsRiPufi4oKyLBj0BezTjfV2ZBhRFBH4PmHkc3Z2hrKwt7cnf+d7Gzz8eDxmvliwXucorTk6OpEcG7hxY58HDx7wzjvv8IMf/JBvfetb3Dw4QGuPoigwxgiUtWPsdWmWNXbDr+dpN+3meTx/9lxStixj78ZN1nl+CcBxLEmCT3CPpnZ5kCXwZWjGU9LiC3xB+Mmgk1xvqxRGyX5jqyzG8RxKjUGOC4Sfr3MOTdvQOrh3kRe0TSvDQIsFi+Wc6XTM+fk5z58/4/TklJWboxAsRYP2NHu7e9y+LdOM/9d//s+89fZjwiBk7KjQPU/z+NFjSTfc+PAXKbj63IDTv84Q/Ek9fuv68R2R5HQ65fz8/LUQv6oqnjx5Iv3i83M8z+Pw8JDd3V3ef/89/vL73+fu3bukWbq5aFEYAQIa6cJA60J7ebge6hcovUJ62mUp3lJrRZokgg93VfwiX1NVJU3buCozXFxc8Pz5c168eMHp+bnbZjNhsVySFwVV1VDWNWVRslisOTo+oXXgGYwlCAJB2llLGITs7OzQy3q4dZ0orQgDKUi1pqVySr9crjg5OyGOYx49esTu7i5KCdpQBo9ylssljWuLApuW4XK5YulIMBeLJXVV0zpCzPliwcV4zNnpGWfnF0wmU1brNW1rqKqa7e0dvv3tb/M3f/M3/Nf/+l/5u7/7O95995sEQYC1lsVySVmVEoG4BZ1qE9lJZV5rCf/lOljapuHs7IyiKPH9gF6/T+t4/OVeMVjTopXF8yAMNGEAUaQJQ9DdinJT0TYlTZ1jmgpamZ68fPtLDMYm8nP/dSFJl1tba3Fk/bKLMAhJ03SD/EuShNFoQBzH9Pt9BkOhFosc4jKMIuazGUVZMJvL+PfLVy84OT0BBbu7u5to01orbMWO3vxqJHxV5Hhf//l3lT+p4hvHK9/BZw8PD1ksFiglU2Oz2YzJRCboPvzwQ168eEEYhvzgBz/g7bff5tGjRwwGA7zAZ7USyKoQOkhI3jQ1xkhkAaL8cqGvXNQ3RAG1w/t3P4OgzmazKYvFjOlk4rjyBf21XC65uLjg+OREVludShqyXC0pq4owDN39pLFWsVpJJ2B7WwpH1lXYZVJMWkBZlhFGEtWEYbhJiaIoBGtJs5S7d+6yu7tDWZZ89uIzPv74E44OXzEajcjSlN3dXUxr2NvdIU0z8ZaNYyGqBOVXFCXLxYo8LzeDTnUjzL2LxZLlaiW9dGtJkpT9/Zt85zvf4Qc/+AH/4T/8B9577z0ODg7Y3t4mSRIs0po0RrD9gZuou2p0ZdjGVfo9LXiIVrzo8ckx+bogCAIpXoKbhBSlF9pzh5pULb4PQWDxPYtWLRpDXa2xbYVtKkxdQiv/HuOMh5LCoBgiBRu1d8qPxRppX3IlJVWuSBm6lmAcx/iellpAGpP1MtIkoW0alFK0bobB94V4pChkf+FyKfsOozDi5s2beJ5HL+tRVRVhFLpwXlqfX6T8fwjF/5OG+qVbwfTS7X4bj2U0dLVac3R0yNOnzzYDEKenJ9y5c4f/+Hf/kb/9D3+L50l/OAgCTs/OxMOUJVEUUVW1tOHcwI12XYGudaZdNVZr7RSqu8CSFqRJKkq9FmKO6eSC2WzC2dkJ89mYKPTwPcVqteD8/JyXrqOwWucUeUFZVpulEdrz8IKAIIhJ0j5hmLJY5Ozv3+L997/FYDBAuWjk5ORYPF/bsre3x/3793n//ffdqKzMgweBMN6s8zVRFHF+fsF0NuPw6JCf//zn5Os1URhsFFsATGOphjuYc/e5KzfYVDethI9Wtub0h308x0vv+z5pmhIEAaPRiO2dHR49esxbb73F/v5N6qpif/8mRVGglCJJE8qqdhgLRxzi7ssNWEVdht64CKSqKlbLJR98+BFFXnLjxj4PHz0CBD1prWz6MabG1xatW7Rq8TyDUrXjRJCoIV+t3TnVYBQaH88LUV6AF8Z4UYIKIvAjGaJyDMcdik6chBhapTtClUvF9/1LQFLTNKRpwGpVuF2E0hqdTqZMJmPOzoQleTy+4OzsjPl8zmq1ZGtrxL179/j2d77D/v4+b731FovFgl4vY/+G4DeiKzMMXe6PO49/lopvjIRu8/mco6MjJpMZq9WS8XjC2dkZs9mMTz75hE8//VSGQFYrkjTh7//+7/kv/+W/cPfuXcIwoG3bzc61q56saVphVHXEFb4fkCSxbLyJpIIchuGGZVWOx4iRUIoiL9BKMZlOOT0+ZjabMJ1eUNUFcRSwnE+EmGN8wfHxEednZ/LBlN7AS5XbQ2VRhHFMVbco5ZNlQ8DjG994l2984x0ODg7wPZ/xxQVayxz9ZDqhbVr6/T53797l3Xff3aAMlZK1VtZxxQ0GQ4qy5OzsnIuxDJg8+fQTlouFeJAwpHKsQp3XEgUSlGBdNyxXawlLgxCwRIlMsPWy3mZ2oKorgjAiy3p85zvfQbmIqXHHGceJ+xpTue6A/I1s88lde1CWXkjrTrt0yxjDixcvOD8/5/DVK3zP5/bt29y//wClBPochgF1lVPkS8pihaJB0aJUjVIFIIqvgHydi+IDymqs0URRShBlREkfFSTgxyg/xqoA7flfSKUr51oUv1MSUTqXfm0UzrUqPS31nemUqix5+fIlz54/Y7VcMp/POD095ezsjPOLM4xpJT0YDHj/W+/x/vvvo7VmMBiwt7vD1mjIYCBUbJ1j6OQPofh/klC/rt0ixfGY2WzOZDJlsVwym06ZTCZ88MGHPHv2jKPjYxaLJSi4f/8+3/3eX/D++++TJFK1llRg5oAejUxINZderZtnj6IY341KKhzs04FFlAN2dMsYarfkcTqdcnx0xMnJ8WZ/vOSkiuOjQ46Pj3j16iUXF2du6YPcHK0xtG40t24a6qYhL0uqusG0lsFgxNb2Lvfv3Wd7Z0faOKYL46Xg1ratIwSVvvnJ6SlN0/DON79JkiZUVUXW69G4zkFRlOSFUHRZLPfuSkvz4YOHfOOdt9m/sc+tWwfs7u2xsy0DI/1+n/6gT38wYH9/n+3tbfZ297h1+za379zm4ODAVZ/3uHP3rgykpKms8krTDeqsbVqyrEcQOLiry907McYQJxHWXE73db+X1mrLfDaTuk5RsF6vCf2ArdFQSDxNSxrHJHFA4ClsW5Gv5mAa2dnXFlizgjbH1iW2qajyFbatMG2FbWpMU6GxKCsTm1hJuYz7inWLOxy19yb8d+lJ97N2v9+o+5XfWQvGWBdpCmFnr9cndkM7QSgchXGSbOYiuhZkXTv8vieU7lprhz5UMrzkZhQ6BVd/AMX/k3j8PBeWk6OjI+bzBUfHx7IFZiIe//mzZyxXK7RSJEnC3bt32dvbY2t7m1sHB+zubhPFgqBaO+Rc2wq7a9M0aK1cfukGNhxHmpAnikEIfJn+kvwT2SHvionzqdQWppMJZVnS76VUVclsNmY+m/Czn/wzq9WcxWImeGzXg+0GdYwVQg6QKbLt7V2yrMetW3e5f/8R73zzPbKsz3Q6o5f1ePuttySdOTmhrEom4wmnp6cbz+8HAePJmMePHzMajbh9+xZvf+Mt0iTFWEsYRLKlZ71mPp/x/OlTCUGThOFo4IpiwtOnXJHqqsdv6prVek0QCOou62UOniyKHIYhi8VClmIEMkfvae2m53xGoy0Hi5VctmkamqYWvISCJI5Y5+Lx0ySlacwmzWjqhsl0xnQ6xRrDbDaj38vY37/B3t4eTV3LyHTgY+qS1WLK6fErmYi0DUqVwAKtKpQxKCupwWVorDFWE4UZYdQjSkYov4/yU/ATrBeh/BDfTcypK55fX2lB2qupinvmquJ3opBNx1EoXAlnZ2doT3F0eMirw1ccHh7yyScfM51OBKCmFHm5ZjQa8d3vfpeHDx6ws7NFmkgEtTUasbuzi+euBX+uHl9ye+kTn52dkRcFJ6enGxqkyURWQqdpxqPHj/nOd77Dt7/9bR49ekSv16MxLUVZbdp5cSzeXPL9DgIbkSSxQC07gkeEr611sFsQSmprLWEYOA+7pihyLs7Pmc/nWGvoD3pgLUWx5vDwFR9/9CGvXr2kqgpZpul1gxbC/qq0h/YD/DAkCCP8IGR7e4d33nmX73//L7l16zbf+ta3SNOMo8NDGePMUsIgpCgK+r2+5HRuf15VV6AUURRyenbGy1eviOOYmUMvVlVNvs7xHe7eWGn/5XnO8fERL1++5OTkhKkbOa3dME3hevhlWdI4haubhjRN8IOA2mHly7LYbPCxRghAmqbB832SWJZ5aq0FTusIQa6eY5TM9q9WK6qqwhoBriyXC6ZO4Rdu5Zdywz5ZTybmgsCnaSoJ0ExNUy6piwX5coynhOwUW+BToE2JbhswDaYpkYadFAKxrTgD7eF7gRT1XDpmsVglLEpdQe01z+pCfXVFwbr/Xyrc5xW/4+oz1jAajtzmYKkliQEWXfB9j1evXrFYLNja2mLQ72/mJ+TfW4fpkPFkz0VL/+YVv8srOynLkqKsOD095eTsjJWjm0odp3nX2/3BD37If/pPf88Pf/hX3Lp1G4tiPpe1yuPJhMoVkOIkoaprlOq41WWGPAgC6rpyo581i+WSyXjK6ekpSkESy2SWcRX109MTTk/PGI8vGF9csJjPSLOUvd0dnj97ytOnT/jk0485OjokCCR68H1Hbe1uAq08lOdR1Q1BGGGB733v+3z3O9/ju9/9Lt94+x3u3L3Ljb2bpGnKhx98SNM0bI1G9Ho9bt26xWg0Ik5i6qpGacXu3h7D4cCRTEpP+JMnT3jy5IlgHo6OqKqK8Vi27CglyLh1nnN6esLZ2RnHx8ecnp4wnU43acxisXBw3YbxdMJytWSdr1kshK7LWkvbCvPPbDbj+OiYxWKO1p7M1EdSM/G0hzGWqhLcQ1EUlEXJOs+Zz+cCUClr1rm8zpmjAFut1zRu9LcsxCAlSUKRr8l6Gffu3aWuS2azKQpo6wKaBbaeUeZjAr9hOj8n9FpSr8VrK2zbQCuVfa0snrZoZVHKsF4vCIOQyWSMHwbs7e9RNRVV07BYlWjlk6YZg34M1tUnOuXfhPwily3I7tE9L3/nKTGE2tPEsczrZ1mPXq9HEkduuaiQqJyenbJcLtFab65Jnovz0Vrz4P4DN6CVEEYh3pXjefO4fhf5yhWfKxapbWXfe14UHB8fc3R0xMVkTBiGvPPNd3j77bcZDIYc3LrNX3z/+zx4+HDj3cbjMYdHR5ycnDKZSJi0XK2YTASKWlc1KMmTjDUb1pemW9JYCGe75zax9AcyuGOMYb1eMXN55mI+p65KRlsjkiRmPL7g2bOnfPb8OWdnZ9R1he9r8SgKCfnkUzqYriaIY9Jej4ePHvPDH/4VDx8+5NGjx9y9e4/hQNZq5+ucJ59+StM03Ny/yXA4Ynt7i6zXo9/rOX63DGNlHnw4GrGzu0OaZezu7hGEAav1mrKqODo85Pj4mFdHh7x48YJnz55zfn7mdssv0G6LjHIVaWEwaoSttnWtvUIotLpw1lpLXYnhLHJZX939+8BtvCmKnLOzc46OjphOJ5etqvniNU++cpwI0ploCYKANE3Z2t7BGktZ1dSV1CuMFSTm7t4O1kr7rSwKivWcppiizRrbrtCqoTEVmIYsVHgI3XZX/fc2uwaEeUn0VDx7kvXY2d1Dex5BlKB0jMFzxqsgTVOU41n4IsX6ouf4XETgviqF7ylaV+MIfJ80S9EOxbdaC7lqnq9ZLqWe5SmBE3bF516WCS9DJLwMfwj5yhX/6kkqioLFXEK8k5MTzs8vKIqCg9u3HJ/7kCiOGQyH3Lp9C6U0F+MLgjCkbuTGwPX9u3bgarXkxFEiTadTppOJwFrPzhmPJ4zHE+kMrN3Aj1Js72yRZRmtG5uczaYSzi4WFEWO7/tsb40Ay8cffcSzZ09F6ZtalL6Dg3aKr5UrDHmAprWQ9ft893vf57133+PenXvc3L/JaGsLz/MxreXsTObn1ytZZx3HEf1BnzgKCSOfwaBH1htQ1TVJmojBLKVl1uv1HPIuBiz9/sBx04m3bxoxcNaNNbdtK/DhthH032JBXuRCJpnnUvl3ABLPF/y8QqbP1vma2m26kVBVilxta1guJT1brYRSqygKiryQxZ5FsVF0Y4y0BbOUXr9PmqbcvCndjPl8uYn6Tk5OMKZlOBpwc38P7ckYdFkWrFdTbL0kizyUqajKNV7g0dQlkRtkalsZkYbuenT8/RbPC6iqBu1HMig12ALtg47QvnAO5EXOOs8JA58ojiTMF/DHa/fzF6v9Fyi+clwBroDcum7TcCQzAN3915pW1og7VqTA0YelSUqWZWRZhh8EZJkAh/4Q8pUrfiddJV/w3mPmjoUljmPe/sbbhKGE+UEQsr29zXA4ojUyHrtYLClLmcn3g4CmaQhcj7htJZdsHEnHcrVCWUVVVZuhD609kiSh1+vR6/fY398HYL3OWS4FPFQ6eHBdV+xub6O1Zj6f85Of/oTTkxMaFy1IaG/dZBebnq+nRenB4+6DBzx6/Db/8T/9J+7ff0C/J0M/gS9AnKquOT095fj4mNl8xmq1QvsecRxtDIjWHkkcMNrawQ8D+oOB7JbXml6akqYZ/X5PwDq9HmmWETgiCakb9ByOwaff7wuzTBKTZilYCMKIyFFmRVGMMS2e1m6wRgqKCkEAKqUFiRZFaCUh6obMo6pcld+Rn+YFZSUwWs+TvLbX7zEcDdnb2+PGjT16PWkTypBKzsnxCePxmBefPUcpODjY58aNPXxfoz1o25oin+FTsj1IaKoVebHECzzKqiLwpBdvcCSmCDIT97WsKuI4YV1UeH7MclWSDUZYfKoGqkbRGqmu47AMynEBqg3Q60pV/eqNfUXe/H3n86yLoHAYjeFQBro8z6csC6IwZD6fMXfOJ47E6GSOQk5rzaDfx3d061/2/r+L/FEUv21bNx1WMJvOmM5mMhDStmRZRq/Xl+0zxtJzAxDrtRBh2A7bbaVl4uDaMgqb9uhlPTcuKSOTqTuhYRASxTFJnGyQbF0dod8fsFwuHbhijNaa9VroktIkJU4S8iLnww8/5Fe//KVctE2tolugYbFue45pDUEQobTPcrXmG++8x9/+7X/g4OAWaZKyvb1NlgrJZdsanj//jPOzC1arlazAnk65uLhwmALLaGuLKBYvVjcysLK7tyvEHIM+bSvbcbuQOQyFfDJNhdoqiuINd/5wNGI4HLK7u8vuzg7DwZDtnV3iSHryN27ckM+dZQz6A5n9d3TZUXS5SFJrTdsIR0J3TTxHzCGdEgGahKEsG+33+gxHMt66f3Ofre0tRlsjqdDHEecXY168fMmnnz7hxYuXvHr1itOTE3a2t9jf3+XG/i7WtqRJRFGsyFdTejE01QJjcuoqxyhLr9enri1l1XJydsHp+Zh1UXFyeo4XiCE1pqVqWozVoAMao1muS/wgYTjaxdoAlOTdYFktljLa7Fh8At9HeXLFlcMjORTvphh4NbKVGgDOBCiHzJTfeZ5HXbeOSEaGcow11HW1qcE0TU0vzei7+zoMAm7cuCEWBBnC+n3lK1d8a2UV0fn5OU3TMJvNWK5Wm98LB77PxcWYtjUEoSxC6KrO0p7z8LSbmXdFvMQxryaJKHSapiSxfBVj0qPfl3w5SeRvQ7cZZblYSHg/E+BQh/YzRlY57e3tcnZ6yk9+8mPOTk8J/MDZ7Y4Jxg3+KKHe0UqhPR+lZaHG3//9f+bho8f0B0Nu3bpN5DxxXdcsl0uePX3G2FFjTSYTWrcdJghkMETGcD3aVrxq6aDBazeKuzUaMRyOGA4HJImMi/YHAwaDgcyRD4akSSLdDIf7Fi79rl0lLDLKgWcCt7VH+O3lkSQyeRgngjsPOhbcIGRra0umILOUJBGWnSzL2HLIvtFwyGAoLMG9fk+oyl2I2jQN09mU58+f8+FHHwkvvUsVkjjm8eNHPHx4n9FoQFWVtG3NcjVjMTvHp8C2OdgKS4vVgPLI85qXr044Oj3n1dExi9Wa2XxFmvXwgwDfd1qnfYzVtHgcHp2ivJDhaJcw7qM8N43n6Q3k2DpK8W66ULy/XPtLNX/9J3mme657vmsIipjWCJ2X59OaVpCWZcl4MmExn9E2DdpFHFmvx+6OMEV1hvbPQvGbRmbBx+MxSin5cAtZcbReSxW5aVuKqqKqSsIwxHPUSxKqy+voDsigNGkss9Bpmgoiz1E9JWlKEsvSBgl3M9LMtfwcuMS6MdPFYk5RCGNvkggoplN83/N4/vw5v/jFzwUuW1VXvH3rEGJyYEqB9n2sUfhBTH8w5N/9u7/l4SOhvNrbu0EcyWiwYPrHPH36lOlkRhzFjMdjCasVxI7kcrVcsXLnZr5YUNdSBZcag0c/E6UbbW3Ry0TpR8MRg+GQ4WDAaDik3+/T62XuISOkvV7fjZKmDAYDErcVVikIwm5LTUCWZRtiStkoJBtlOiN748a+iwSEwkvSjgGDoaDNEkft5fs+SsF8MWc+m3N+cc7pqbAbP//sM16+fMliLuSV1hi2d7b5y+//BXfv3SZJImFFXs5ZrebMpqdoU9DWazRiJJXvUTeGz54f87Of/Yqz8YTDk1NmixVlVQn2YzRAaeP4EmWpSVVb/uUnv8DzQ24e3CFOh4RhgvbFODZNjb1Cr+b5PtpBvLt76Dcr/lXpOADcTw4OnMQazxdchNbKGUCJiotSGH6HwyG3b93aKL5cI5l9+H3kK1d8gGfPnjGdTgmCgOViwXg6RWuPs7PTzTRbkkhPOHLLFEThlaCbEBSF9gRj3w1+XP0aBP4mfPI9nzASgE7gdrErNzRR1RXL5ZLacaArB1CpHLee52mCwOfZs2f8/Bc/J42lCHPp7bs5bxGFzGw3rSGKEkajbd57/9vcuXsX5dhfBz2ZMpvN5lyMxzz59InAhqOI9VqKa8Za0jSjbQXi6rvuRNM0GDftJiG+fKbu5vN94Q8QDyLvp7WSYmGvv6EM7+bH+/0eSRIzGm0RunYmSsmiCTdVJsQiwkrbDZJkPSky9QcDWWnlaixKKXYcAlFrCWubRlCUeV4ISciLF5yenvLy1UtevHjp2qYTFvM561WOsordnR0Obu7z4OF9tndGKAXL5QLTVjSmIl/PiH1DoBqwDVEcgfYoioaf/exDfvbzD6kMrPKKshacx8OHD7h58wZNU7gc28PiUdaWH//0F8RJxo2bt0myIUEg8/Ce520WY4CMDncFuiCUyO/XKv4GXnvp4TffK/e/Ll1w48jKgYSKoqAqK6bTCeOLMb7ns7u7y/37D7hx4wZae0RhTOwIQn8f+cP0Bn6N1HXNer0WEkIn0+mUn/70J/zoR//EixcvmM/nVFUlIbPWAnezAqiQSrKIdsM1fiD0yZ4X4Hmi7IFb2xyGIUEUbAZkjJXxS+Vp0LgRWWGvxe1uXy7l2DxPY9yih7KsCAPZZBOEIVp7tEbIIZerFat1TlW1tEYR+AmmVcxmc8JQgDhtI5XsMIpojMx9F2XFxcUY5flUdc1svhD8u1v11Mv69LIeYRhtWHA+efIpnz3/jOOjI44Oj/j4ww/59NNPBdk3mXJ0eMhiIS1IHAtsGAYksVBKZ1mK78viichtqhEMuDDJHBzcYmd7h+Fw5GYZYvZvHvDgwUMePnjI/v5N0jRjZ3uX7e0dklg22da10HsFQSAKagQkU9Ulk8mYly9f8otf/YIf/dM/8vNfClvShx98yCcff8LLF6949fIV89kC3/OFh74/kA28Nw/A4T20g6wa07hHS+sowLGKyXjG+fmU5bIgL1teHV9QtZrxIufkYkIUJ8SJsBcprTaJeVVVLFdLikpGm1erFU3rsCBaCbmKo+1WFjBG+u9afLnWcm926ZJWCt399xrmX3gC1Ka1KGAvT8vsf1M3KGvpZT22t3a4f+8+9+7eYzjcIs16zOcLPO1hjXAGKCttPsc7+nvJV674jRtR7LyrUpqmrl1R5wV5nrO3tycbUtyNqb2OAaWziDIAQZdpW5mW6myqWHP3vfPu8ndisbvqfts2ctM2NW3rfrc5LunD45Y3yPHEgoNf5+S5PMqyIk0ysqxP1huQZQPyvEbrgOFwxGAwYDgcUbnR3iiKqF3PXHtChuG7pZKeM2JS/ZafPd+ncJj1PBdAzMX4QjymG2T57PlzDg9lXmA6nXBycszZiYB1JpMxk/GYi/EFF+MLzs8vxPAuV27+fkWeC9de95A5h8uHTJZJW3Q6nXF+Lq8jj3NOjk84OXn9cXR0JAW609MrjxNOT09lIYnblKtUNxGpBWEZxUIKeuMGu7u7hGHIcrGkyAs8t8NQBowuabLmsyVN3dLvDQmDmOWywLQKVEBtNAbBU1h3H9B9RXxKXhYy42+MtHk3bD0WsNLOC0M8/brn9jwk6rvqzHnDuX+pdJGBqwA4nTBGjiMI5P7Z2d0jS4VbQq5/uYknrHix1yOMf6V85Yp/VSmvipBqaLZ3dti/cWPT2wzd9pTuoRwT7G8j2lnfzhrjTrDWHsbIvHdZCguqubJf/k0Zjy9I4pjtrW3CIHL97oJ8XVLkFePxjOlkznQyZzKZo5THYDDi1sFtHjx4yPb2tuTkdY3v+bKCylzZER90m2TfeLg0JrlSn5BahnQqZKhDOhDTqaAQx5MJF+cXHB4d8eTJE549fcrh0RGHh4ccHR5ycnwsnYPZzPEJLFguZeXWer3a7Nfr+Auappbf5bl0VvK15Ojz+ebr0dHhaw/pTAheYjaTPQbyfvJYrmSDTVMLO64ovpyLzLX2em6yb7FYOBSiYPujKJL+diPrudrGbPYUZr0BZVEzny4wLXheRNNaF9J3Siu8ex2qrpMkTYTN97VdCfIIQl8WpnoaQfde/rvfN8TunAxON6wVz9+1XXd2trlz5w5ZloKLcjvp/v4PIV9pjm8d+cD5+Tmr1YrhcMRsPuf45IRXr15x8+YBbz1+iwMHVU0SaSMJAu7SSnfSKfNGrtRM5KuzqB2Rihh7QPjPBVU2l37txig50jU3YWWNJY5idnZ2SbOMvd096qpi0B/Q6/fp9wbs39hnZ2eX3Z09dnZ2+ea77/KDH/6QH/7wh7z1jW+QphnWSkFSPJYcW93UrFZrprMZWKF36qrqxhiyXg+tNfv7+47cQc7HfD6jcPPuURxJn90XxuCmrsmLnOViydRNNz5/9myDjDw8OmI+n2+87/HxMfP5nLOzc46d5z49lbZm9xCFF4zDxcWY87NzZrMZ52fnnJwcM58LtLR7+B25qJvxX61WrNayxmu5Eq75qq6om5q6qYXHDmnJ9vuS3uzsCFJvNpvQNKUwH6UpSRoxnpySr2YEqkXbllFfzlMUpXz40RN++ctPWBcNOowwAMoSBR7f/dY32dkaUNe5A/J4sq/QeJyeT7hz9wH3H7yFHySkaQ/fEWbIvWBkF2ArSMMoFuJVY9wY5kZeNyivyRc8rRSbO7tjh2rczgfTGhqHlnz58iVFnvPuu+9y+/Ztbty4gUJt6jBvqsLvKl/pdJ51ZJIffPAhp6en3Dq4xeHRER99/Ak/+clPuXX7Fg8fPuTW7dv0BwNXIPLx/ODKfPTn0VNXRVkJv5R7P7GoMgjRmsuddk1dc3j0agPW6Yp+Yjy695CLcWNvjyiS0cooCt1M/pS6rknimJOTY6IwYM/x36dZys7ONmmWMJsvGI+nKOVhFYxGIx48fAhasVyumEynfPCrD1jnOU3dsLW9xWAwoKlrwihiZ2dnc3Hn8zkvXrzg6dOnFG6ddRzH7O7uut66J/z+65yVW/u8Wi6p6pq1Y86JoojQFQNlSElSLzGwUsUWcg85Zx2XQUda4vtSA+l4DZRrAXav4Xke29vbDAYyk29My/HxCZPJhNNzod8G8XT9fp/tnW2aupEiYpTQy/psjbbopRl5vubGjR16/ZidnSF7O9us8hkffPRjxmcviCjY6UckgaYqSpQf8//8f/13/j//33+iN7qBilIW+RpUw+5Wxv/j//5feXBnl7PTl4IitAFV47MqLD/5+Ue8/+2/5PE33mdr+xZR3CPwg82sSF03rNYr8qIgjhOGoyFBGNK0rQu3OxFn89uKwqLd3j/jhniSJHE7D3MWizn/+A//wD/90484PTnlr/7qh/T7fR4+eEgURTx89JCb+zdx3DH/avk97cavF+s2jYinVpSlEDREUURVVezt3SBJUsnh3dihFEHePJFv/vymuJPv8p+u6PKmWHtJ99U9jCP8tG42OggCaafkBVp7xHHK3bv3eeutb/DWW9/g7t37/O3f/h1//df/nh/84K/4/vd/wMMHjxiNtmSTTtO6wRWDcWPDs9mMxULC3aqqCKOI0m1hbVuZ8z+4dYvHjx+zv78vfHvO+9d1vYFtdo+qqhwHQbXZ9FM3Ur+oHMLwapX/denOlXxvHeJuuZKIYTYTBNkmbJ/NXOdEDEGSCMrvqnQ3raQP+QYzIMfh0boai+d5bsNtRC/rMdoS6LRW2hVdpW3ayzJ6WY+mbVk5vkC1qc2JYVfCc4JW4PvS/m3drsE0kTD+3v17DEfSIehCemsNYRRx5+49+oMhdd3ICLfvC2uSSzE3n8EV4mSNmhRPX3f53c+/7vFFItOixi1v8bSsdIvCkPffe49/99d/wze/+Q6r5Yr1ai3Myi5V/UPIVx7q13XFdDJluVphrFS6jbEcHx9z7+5dQSZF0SaU8v2ODaVT3M8r8FW5+lddn1Vv9tYbYUZx6K35Ys5qJfvzOoVo21Y40oDAtQfLstysYPZ9nyiKHL97gMWyv78vEOB+j96gL0sVgbISCimtpUBnsdRuy2vTNpSVtLgWi8Xme2tlNj2OYweKEaRcdxzLpWAehKQhot+Tbb5RFG3Ya5u6lvB6uZRjcYM9jQOC1K/tyZPnjTG0jrFonQu/e1HkNE23tUZu9KqqNnWBdb5m5WYLOsXuIgY5HgmVd3d3he3WlzXXxhgytxbs5sGBkILs7rE1kkWhW6MtRqMho9GQx48f4gcew9GAui45OTlkMjmlqVb4qqGfhoS+xrYCrnn27CUvX53RtIoWLUtUkoh7dw/4qx98jyjUXFwci+LibWC6g+EOezcOyHpD+v2RQyt2IB5PGHi7eoRL2WSbrxBuXJUv8DFX5PX7WCsl1Wl374Glqiu0pymKguOjI6wxjEZDtkZbG8cURiF7u3vs7u4yGMo98PvIV6b4XejcNC3jizFLp3Ci4D4LN4ooiy86VJ3bKS4m2r3Srz2rr/1V5+XVFSJN8RAyabVcyrRY65YwWgvaFcs8z5O961GIVtI2VMiMeZLKSKRSCE+871OUpSx0cMQTWkq+1LWE0mUlkGRRfunFt62hLEsuLsbEsaAFJ5Mp4/HFRsGV0mRZtsn7a6ewSilCB9ENAgeyiYX0cbmQFU7r9ZrCrbTqjEDraMu7fHztdtRXdb15rqpkTqG70dXGs4rXE28jRq2qSobD4WuKPxgM6PUykiTFd1uKm7rZrNbyPZ/+YMDBwU1uHdzi0cNHbG1tbTbW+J4AVQb9Afs3d127zAg7bbFkPj/HtgWB12KbEmNqinxN3bR88OGnnJ0vKOsWpSFNQ+JY8c13HjAaRihVs1hOBIyDj7UecTIgyYaMtnYZjHaI4hTfUXhL601SvsYNNQGbonNXB+IKfHfDhPylFqC7H90WHyukKN1zQu5quTg/54MPPsDTmt3dHSFLtbKQpN/vE0ahpJZp8uYb/M7yB1d8+TBOcd1JGjum3LZpCcMQpTStEW+SJIkAReIOYqoB/UaA9GUn1Hn6K5VS+Xr15pWugHE9+HydC7mFA2IYY/Adc0xVVaxWS6FhVsKZrxy/nVSZLb1eRt20rt0oxiNJEuFxDwLCSLjrlJLUpihKaWE6Gq7GrataLpes1yvK8lIhBVhUMxqNKApBMaZpijGydVU57y1rruQ9mrrZfC+RhZxjz/NoauEhkKq4TH61bSuG1U3u1XXlDJh4FmOEFZaOmsyRYxRFibXWzQbIduHMcfKBnIOuOCtFsJbapSNxHLO9s8ODBw949OgRmZs2U1pjWqHfjrtoRoHnX07lnZ4ecnT0GW29Ios1g0FCXeUEYcBynXNycsH//B//zMXFmKpe4Qc19+/vcvfuFjvbMYqSshCQkCD3AoIooz/YZrR9gzju4QfxpnDc3b+No2Frm0ZWq/nyuVTnqTelsUsmni9S/I3CXz4hKeemLSitzXV+2akZDQWJube3hzXCqLxer4njmIObB8TJv1nIrnIgAzGJXe5ojIGO9SaKnKeVOePYYcsFj3+19OCMyJfIm7+9evI7xXdmmaquNhtoJMySCyP/4vLilFUhF1SLgjStgEcEHRjhae24/To2VmfkHAZeu+WeqqNtspLPWWvxfI/ZTHgCq+pyd0CeF1xcnHN6esp0OuX8/ILxeMxyKXTjgWO5jdzyzH6/T5ZlJGkiVX7PIwwEuLS3J9tZe70e21tbsgV2e5vtnR1kC6xw7fWyTAxvHBFFknvHsQzpSBtRoNC7LsQUOqwbRFGI57DtQRCQpgn9/oAsSwmCEFCbc5UkCbdu3WI4HLjVUymem1uQQS2zoQFfLOZcXJxzdn5CVZdY00pFvs3xvYbQN3iqJV8v2Noa0e8NUcqnqixpmrB/c4t33rnPvXu73L27R5b5KGQtugD7fSBAeRFbO/v0+lt4foTnyTFbKxX7xkVmVVnJPbCZKenSw2Zz7a3Dk8j3Hd7g6uPSQEC3sONycQeI8zk7l1172tUUuoGy8XhM7RaHpmnK7s4uSSLG9veRr0zxOz3SjllkPpcVTfK8Yntnh4uLC1nnvLu7gdeKl/n1it8p9ObhrO2bFldtioWC3GqaRvauXQmflVKY1m1jcQfdXbTuAjeNsP2g5Hei/DL7ziaUd0VDIwUgCYM9Wa7oudkDa7DOm4jTlffragnSEpN5eemxr1FKsVgsNmG4MYYw7JB4UnCzjqwzdYrsdfgHpTY3q98N2XgecXxJSyZjuTLJ1z0n1NodnZnsEhw6/H8YCiGonD/x9COXo3eIwMDhErRbRJll2eZ60LEwFUJD3jYtURhJNJbnFMUaz9fEaYTnKYp8yXRyQlOt8FRNoA3leoW2wqAbBpGbANzl7v2bPHhwwP7+FgcHO/gamrrCtLKdFuWDCjD4HNy6L4rvRdgNAatIU0uhtG1a0jSlce3T7lw2jbTfOsU3xmAdc7Qxl48vhdg5AwMSUS5XS375y1/y05/+VNCKvk+SSJ3n/PxculMKGcbq98l60uP/feQrV3xrrRAtTIXzzViZ0x4Oh65FpQjCUDD6jvOeTmmvqL1sPXXfX/kdr88/XJFLb2/dTnPjNrKsVivnsSUUkEUNl0ovXYHLZQ+l4w1QbtFHGASEbltq07YOoHN5kSu3RLJTgjiJhXG3lt1wSRfdOCy/gIoExBHHEecXgnuYu1n93BXVlivhMBClklDcGskBI7e1JUs70I+QXnTFQsHpy5pw7Qk/QRRFbrxX5hzEoETs7knhbXt7m9FoRBgKR0K/38dz/7Z0pCDD4ZAbN26wtSUcCp0BAQnVV0sBCeVuR592I9CFw6VL8VDSkTAK6PUy/EDTtg1nZ6d8+ulHXJy9oixmxCGkccCt/T1h22lhOBhy584t3nvvbR49vsvWMCVNPQIPmroAY0T/lI+1PoYAz0/Z279NmEnEgKtn4NCepWNu0lqTpgllWcmOARfqN46aTO4Xt7rbFUNbl1ZZaxzy1EWDlwGlC/etDBq5e/no8JBnT59R1xWDfrf/MeJiPAZrxRikCb2sR68vhvT3ka+kj381rTHGcnJ6wrOnz4Q1tjUEoRBQzudzTk7P8Hyf7Z1dBoO+5NtvIJYu23RvePQ3TqpcvNfOsGvjiDS1UB29fPnSzQdIga6p602ltWlFQT23pNFznYYwDCW0jqX3nDqUYWsMvay3aUPKzEDXXZBtto1jwKkaybHH4zFtK7PtTdNyePiKpRvC0VqWLq7WK0xriBPB3Gul8N2+u+FwiO/GRX3P5/bBLeI4kZslSQgcWWcn48nktZ87j7terciLnOl0TN3UBA49lmaOt6DXl821LqwHaYdK9CbQ526momPVXTv+/E6UK7R2Lb0uPQj8QPbWOcoy+Twevq+IYo+PPvoVz589ZT49ZtiDb7x1k1HfY28rJYt8tFXkywqtPJIsBmUwtsXQYkzlaLtaLBpjPQwhxsYYEsJ4j1t3v8H2/n2s8VA6oG3dQJQxYBUrF21FUUzgS/9e6LFWTGdTlMNAKOehuyKgaQ0GRyXueA3k/EkNCOduTNuSphnGtJydygLSf/mXf2E6nfCDv/w+O9vbrFYrmWrViiiOGQ1H3Lhxg/2be6+d43+NfEUe/1KshbKQttRlq8iCUwxr3fCNawl13mxDXnAFm/xm7cQ9e/mzK7J8YQygZLqvg8Wu1wJZVUraK9YBXMRodfv2uj6/rNaWEE9u5KaWz9INZZhWQnHxFBISKqXcrIDMBIhXEAz25WtLjug5qizjPLjWsqyxriuyNBMD5EL4siqpypKqFo+Jo5Rer2QX3vnFhay+csU86ZZIdBEEAT2HB0gzIXuQ1d+ykdYPfLa3t0lTmcUPw5B+v4fSmtqRZBaO77+qa9q2YbkUDIDUJJaue7JktRIOPplxKDcRV57nmyKgNciQyvY2vu8xHl/w8uUL/vEf/xc///nPmE7OuHVrh53tHmni08tCtATnDrveuoUaJVBhbQVWVmZ1U5Ty1z4WH0NIGPXo9XdI0gGyll7TOo7/ppGOhEU6Pk3TMB6Pr8w7LDbF0qqUlWMd9kHGqOesVmvyQuYsiqKkaQXb4btUFqBuBMRUVxVt07BaieHv93o8fvSQxXzB6ekJSmvpKoUhURzR68tI9u8rX7nHtxYm0wkvXrxgNhPoaVVLVRy3gMLzJMz0fLcWyw+kEt9KuCSH6Cb3NgrOZgnjppD4mnQH0YUD8lz3bz/99BNOTo5lcCcvZLmDU8ymrmmv5GpKqU2fNwwEfBJHMX7gkyYSWgdBgB9I3zp2mIQgkM+BY7590+M3jQzF5LnsSC/cbrWqLmkdIGe1XlNXspIr8N15clFI934al5q4CEOIGSMZc3YIxKuSZhnWGaTWtJSlzL03dU0YhgwGg0204mkBXNWOOm21Wm8MTuPYeFartVMcoZW+WqMRjyiov07Zm6Ymy/qMhiP8IKDfExKRuqk4OzvhX378I/7xH/8Hz54+IfBq/sv/7d/zjcc32R6G7G2lhJ5FGwOtpirXaC/HDwRxZ2VQ2qm8wihNa32MjWhJaElJshvcvPUW23t3aVtNY4Svr4vAyrIicjRjq/Wak+MTvK7zU1eS3jmClO5hrBUiTK03LLpdnaMDK+24Ne6mbVktVyQOsdfUlRuumjAcDhkO+rx6+YKzszN29/boDwZoTwaW9vb22N3dfu16/mvkq1P8KzKfLXh1+IrJWHaFG2Opm1ryvqYlCCP6g+FGKcPPkQ3I140ndSG+0rLBRnRb/qYLuUS6A5FBDZQofu02yQoLz5SL83Pxvk7526Z57eZuWqF+7kK30A9I3DLLLjfuquGB75OkqeSEgaQIngsFpZ3XMJmMHdLsUvE9Xz5bvhYlLBz7UFmWzOdzlCvUeVcKd5tJv83uP/l8Uj9wm4Q2Bc5Lw9n9nTwndY26rgiCgH6vz9oZImtlF50UMUWMK2LVleDuAaHdcrz+Xe3iqnS1gXCzy1B+38v6DIcj/EB65EHg4/mKTz79gI8//hWfPX/KbHrCw/vbfOPxATvDiN2tlMiz2KZCW01T5yi9RquuZqNQyhfjozQGn9aGtEQYYlqbkPT2uHnr8Ubxi1JarVVVAbLUdDAYoJVmPBlzenJGuBnNFqbozkiXbquycotKPF8Wi2hPloNaa4ljWX+2tbUl3AVByHw+J4lj5vO5WwQKq+US3/O4OD8nz9dorbmxvy+pBLJFebQ1+rer+G/Kcrnm6PCIi/GFVEtdWNxVdtFaesKJ9FM9t2VVXRnnBcnh5SYWD6fd89aAcqQdIDdy97FUN4vtMNIgZIpdka9j5p3NZlR1iWlbiqKgNWaj9NZBK61rx/UyYbmNHaYed3MPh0OSJKUqSmJX5BJSEeFYl7xW2j7zhcB4hUF2Rb/fo3Zrou0b1eDlckng8nvtWoXGkYy2zmBpB6hRXT+/EappSRvehDCLUjdtA27DztXfXRrMSw4Eb7MMwlDXrYuK5BiGo6F8LpceWSvGO3YIxLpuiOOYXgfWCkOSJKWX9YmimNYYFosl1rZkWYznQ9MUnJ+d8PzZh2SxYW8nwaPE1iuGWQCmRlmLpsWa3NGddxGhw4FojSGkaWMaE9FYn8YGZIN99vbvMxztY/BpGmnhVW67j/DcCTnLdDplMp0KdNcZ24uLC8qqZLlYMpsLk1OSCAOUFGhj0lQotItCyEi2RiMObh5wc3+fKIpoHIBKnIxQl5dlSVWUm3ug3++z5Yhfu7mLwWDAaDT8tz2k08l6lXN0fMzZ2RlFUUj7yZO57LwoqGu58bJeT0ZQfR9jwXNbXTeK/xoBwqXiC+elMwLu43TVeQkN5Gbu/lx7GmskbFstl6xWa8bjC6azKXUlyyCuRgCxs8yr5ZKmbd3wjnAH+M5AZW6nXBzFsmYqTohT+TutPfyNJxBPmzvARr5ec3wiSzFms8vNMlclz3MSt1KpU6CoY8pxnQNpP4oiWistyMotrwwCh4iU376m+LaVCKc7z10U0H0PMBgMpM5hDE3dMJ8v6FIvPwhIM+Gh11rqBP3eAKU0vt/VLWRjTFfD8byOb85gWishurVoTxFFAaOtHtvbA7AtL198ytnJM9bLMwapz6gXom2Btg2aFk0LtpIg/4o2XCp+RG9wG0sKXgg6IenvEUR9lI5prScknCipQZiWJE7QWjs8hSwjzdJMEIue5uT4RDAhpVC30S1hdevMO6Nn3B6JoigYDYfcOrjFrYMDgkC2Gdduo3Fe5ILlWK0oSwFKda/RoSGbtiV298BwOPi9Ff8rL+7hYLvLlfSlm6ZxYbq7yVy/23SFLd8NljhvL7eFiHItLFH6K3mkq/h3nq37O+3pDYIPLm/m7uFpGSLp2mtKiUczpiPTlNeJ49j1aCWksw69VVWS74miSbFnvVpv2GglfKw31WKlBBBUVlJTaJqGopBVV5999pynT59yfHzExcW5RCLTqVBULRYsFjI4M51OsFaowfM8d4i/BYvFkrUjvKCj5HILKtWVzbQSAbmTekXZu8hAu757EEpOHoayQbdp3Oetm81GYOtWks0XgtEwViKRLrcV7EDX/5axZzE6UgyVJScNODxAlqZ4viKMAuI4FNadpqIq1pyfnDDoZaRxBKZ1K7Kss/riOOT8SrgvH1ILUi8coP2EKO4TRn2iZEBRGoqyxVjZs9hV3aNYoONaa6aTKRfjC46Ojmgb6aUrlMwDxAlJmpAkwkUYRdGm9qJci64sS+GUdK3aLM0YDAaEjuqtcEQreSFbhzrcRhzHG4cSBOEm/uqMrKTB7sl/pfxRPH6+Ljg+cWwseb7x+CKXbDnW9fg9PxBIrPt03c3bFY4uLbvL9Z1puAz13L9THWJOeqydt+t+j/OOYRiyWq+YzaaMLy6YTKeboo2E+6LcEspKri7WXujCusJb97qBHwr1lUNfxXFMksrW1CgKqeoS37X58vWan/7sp3zyyccyg10Un6vapmm6ec+rITbuM8YOPjsaDek5WuvRUL7XWlIgs/k3r3t83bUgr6QDXSe1+7lw9Ya6qZ1RkxXn0+mUdZ5jgTiJpZ3omIuGDnLatR4vr4Ol1+u5iThZUR2FMmrc66W0bYXnQ9uWGFMRBoqf/+R/c/jyCW89uIWtV0Reg6ZCU8uabGoUrsPiFN+iQGtaIvIyJoy3SLNt/KiP8jOWeYv2YvqDLSK3f1EiOBmwMq3h8OiQly9f8tGHH5H1MobDkXQ4nNOQe1g5Is7LusZsNkMpxWq5ZDKdYq1lazTizq3b3L17l/2b+ywXS+YuupstZhRFTuhLOhdFEaYVJ5gkci9Ya0iyjK3tLbI0/b09/h9F8YuicCQQJ+R5Ttu0G7rlLlz0XY+zrhvHNCOho3ijbte9K9qA+Hnl1lO7qr88d6n0OIOCO3Fv5q+ddK9ZFDmz2Yymqbm4GDObTVmt1niebI4xDqTRXJm4810bzLTC8GOMdCKuGpfhaOgq8vI5k7jbzKpom4aj4yM+/OBDTk5P0QohrKiF7lspGXvtQDF5nrNarzapjnLgky6v146uqjtvYijl78Rwdl5f+OyU0uL8XxtXdobuSprVGmlzyfUxmwKudb9LHBW35MY1Ozs7vPfee7z33vuOmKSj2wrJ1zn9fp/RaEugvmk3bWaBlv4goSpXrFZzymLJ82ef8uL5J/QTj3u3dvFVibIlpi1QtsTzGjzlgFcOVyD5isYQs8wjoniXZd4QJSPCdAt0QtbfJuv1GY0Gr+E96lpWep2dnfHs+TOePHnC8fExADdu3CBLs01Vf53nDEYjd/+JtE3DyekpF+fnNG0riMYo4tbBAd/+1re5efMmURQxn804PTkR9mTPk10HabrpaClXU+julT9Dxc85Ozvj6PiYfJ3TNsIki6vURw6kEkUC3VwuJVzu2lXKVUwDX+CvcjN2Yd1lXr8xBk60EvJM8XCd4n+xSAEQilx2yF2cnzOZTliv1qxWS6pKcOWdMlwqFRsPaky7iVw66QpeUuWV1dJlWZDEl/yCZVmyWsn+vrIsWK9XzOcyyGOtQWmYTqau0uuxWC4EueawAUpJ9V7rbinEpQSB7F/rlF8hBc/ueCTEvYyuQNhtO+kU37hipzGypmqTarkhqE1o6gdcXIy5f/8+3/3u9/jmN7/JvXv3ZYjJdWustSSJAKGCICQKuqETi1IGS03bllTlmroqODz8jMnFCaFuuLk3wFclpl5TlSswOVqX+J4g9EwrqURrDK0FQ8JyFbGz95Ag6rGzf4eWmLS/S5qNZB+CMqAuoyjj9gYul0tOT0/57LPPOD6SNW1pkuL53kbx8zxHaYFzd9J1Yoq8wPM9RqMt7ty+xeNHjzk4OGBvb48iL5hcXDCbTQG72YMQO4Qo7r6We1+2MGe9jK3tbbIs/fMI9auqZDy+4NWrV6xWss++u0G19ggiKWREUUQQhmAFGrtYLCjLCt+X/rkfBAS+9Ptlxv7quzhjcOXnLtQHhA/fLUR4UzpCle6EK6UkFHOgjOViwWKxELCFw8rjLkxdC5+ecgpwVYFwN5FpDXUju+miSPDXnbGIHZy2u8i521Un4bXM2ef5monbp94VnSpXgS7LkrqSqb+uOi9dEceq4/jtOsOGIzXrDIHk4bJ4o5Mr315GTm1LXcsK7NcZaCBySzf8IGBne4eyrHjrrbd57733uH37No8ePt4ovbQMe5uUralbqlLw9GBprSi9hPoNtq1ZLCbY9rKiH+iaMp+xXk4piilJYlE0kvJZuXZWSRXAkJDnKbfufJPh9g1u332Lhoi0tw06oG4ALSi/7vrTdUuM9NtPT045fPXKGWZJ8epGqvLrPH8t9cJBtpumJUliBoMB+/v73L93j4cPHpLEMcvlUkBBDmQlbV9pzV49Bk9rrJKvnu+TZCk72zskqexD+H3kj6b40+mEly9fslwtaepLdJv2PJSWHWeB7zMcCimCtRIprNc5VVnRGgnnA5cHeZ4Ujqyjru5CbBE5KW96/KvnSmklyK/LsYJNJyCKIoxpyYuC5WJB27Scn5+zXCyoHONN68ZsKwf71Q7oIkbpqsGR2oAxAlqSXFpuLJnDltB+PB5Lvu2wAV0VvDMssRt/LYqci/GYIpfIYLlcMZ0Kcmw6m5GvZQVTV4xrjaRVl16ka3VeKn93nF3B1dOX5JTd7zuP3zYt/d7AnTGRKJE1ZXt7e7z77rvcuHGThw8ecvfeXZIkYTAYEgahhK0OzFRXNWUhTEJtc1mDMaahrtdY28iqaw98H5SpoFkT+i2R15Ivx8ym56xWY9JMFF9ak1aYkIzFYDE2oW763Lr9Dv3hLgd3HqOCDLyEqlYYNF4gUVAnV41i4/YDfvbZZ0zGY6qqYrlYULvC7Hqd4/kCM++kaWr8INhswNnd3SWJY9qmZTaboT3NerUSKK9SdHeg2kRklwVq5QrgnueRpAk7OzskbhGKO9or7/zby1es+HKDdW2zZ8+fsXCK1IkovVg67Xn0e33STPjPrKOFKkup/ja1QGbFo8loKFf6993PcjIvT4iAei4/ptKvE3l23ta6cL11+VUQyGBGh55bOrLOVy9fbPL9q4rTNM2Gsgl3Abv3w1nwq7L5/WuHa5lOJPxDSffgqrJyRXkFbNQ6o3gppjWbdl5ZVZRV6VZRO8JLV7AU41VTV9JCcm9P5Wboe242QbmFG71eRhwJrVUXKfi+T2MsqVuhlWU9fF+INYQ2XbD+dNGPMeAoyppGagVXjaO1DavV1IXeFq0MgW+JfEsUWCKvJQpaJudHLKYXQEGcWtrWsfi69mBrLFXdUDc+lgH3HrxPa328sEd/dJNb9x6T9bdpLazW68tisxv6ulQs4SK0xrJerzk7E7rwDnzVtJLeXV7ADrNxCUHf3tnG0x75ei3XohT+xG40VytpL7s7SdI2r4NRu26Lp0mSlNGW7IF8XfF/d+X/ChX/8kat6op8vebpsyfM53MJFzd/Jbmp56riYSAbXLsWiYhr7Vmoqpp8LUsxmqZjm5Uhj8htNwUh+uis6aXXd7m4NRvFF6W89Gxd3muMhLadUcDdAHVVsVouNq219TrfePjOGNB506sx8xcovkQoQvghP7/5e+T4XWTSndPVconvAD0SHsrMA4hRqGtBoVVuJLWLPowxws6zXtE6dl9Pa4wDKXUSBL5MTEYRURDKnL0vgKUwDIkCgQ0LyErLfJPqDC+izEYMUxc5dGKMU/Ir/Xvooi/rqvMtSrtrZmpMk+Pphsg3hH7LIPUYnx8xn12gbEGv79O2zjk0ct3quqFqWupGU1UhB3fepqigqDX7tx7y/R/+e7b3bpGXMln3WqqDFDw7Z9AZWqWk19/UFY0zoHU3f+LOn+cJZNd3fINKKRfVNBRFIWzDtUR6tuOCcJOnovwSeUlr8BIFqLUmdpFVlmavndPXFf+3MwJ/FMWvm4qyLHj27CmTyWQz7ILzAkrJcIhUwzWB3ym/tIa6vrDWgupbrXLm8wWr5Yqqktw5DCJSd4N2imCsWM+rMN5NAc5VcbtiYPdVTvKl4nd8fJ7ny6adtiWOQtdbFwMgc+Q5RV5grMXzxODgLm73Od/M/79I8cXae1KA0xoQog/lqvHWygKGxhWXxDixOZ9aXwJnqkrGfZVLqTzdMRtJq0sWYcoxdKKUkGho7TAWm6hEbXJQrTS+Q1d6no/yhFevK35a16evm2YDgtq8Pg5paS+VvlMarRRKGzxt0Vq6AF+k+P3MY3x+yGJ2AbbEmIK2rVxU2LoR6Ia6bqlbRWsiBqObLPIGL+yze+Mu//7v/i8evfUuedlgXMjVKZN2nQ6lxCBZ25FsdtdIrFtdi/K3bgir+4DWduAv6f4EfsA6F8qz8gpZpii+uyJXtFBtOlkSUYkBkVTyUvFfdxKXIp/lN8kfVfGfP3/GxcUFVVVf4svdMXZ5jFIaT8tWVvH+EtIHgZBFhGFE24hX66qni8XSLb+U7kAQRK4V5nKkTqm1h8UtQ7z0+dLzdcdhjRBrdG06rT2Mo8xq22ajLJ6DyNZ1xXQ2YzoRwE1e5LKBpTv3VogWrt5YnXQRgBzeZWQhF/XSIIhYMQZdEVHLMcjfXr6ufF6FMcI807YNygoT7SbP1j6N48WTXfCXRTyrOg8nN7N1FXhRaClUKsQD+b4kx3UtnIKXIb0ci+9dFg07Beo8vuT1LgoznYE0gEEpye8BtDYEniUMJNQPvYYsgfH5IfPZBdia05OXtG0tx3El1K/rhroF7aV4YY/xLCfp73DrzmP+6m/+I4/eehe8ED+MP6f43bnEXpKrdKIcTXmn9F00IGLJeplLoapNVJCv11fmAS5FYTeFzQ4WrRxwTAzrJShIFH/rNyg+v5Xy/1EUv20b8iLns8+ec3Z29rriO+WXG0nC1m5+2b8yyxyGEf1+n8APCELJnUxrmEwnnJ2dMR5fsFgsnGWMGfSHJGnq+O8E6ecHgkJrHYmiXKyrUDaJCLT2aNrmUjGvnGQxE6+fsnW+xjrmluVKMOddDljXNU19GW4DTCbjzffWwWu7irxSiiRNXzt/WZq6w5ObpFNIuqN2oJUutdGKjTKrrrBp5djlBvd4nVndvZb792gxOmIonSi1MTKSm7oz8UYob12Yb7uUykpYL0ouP2tkgEUWawgWo6oqqeLbBmx9BY1niCON1g3DfshoENGUM169+JTjo8+Yz8ZoZSjWa0CRJKnMf2yulEdrfcHpq5DGhvSHN/jWd37Ao7feI+sNyfrCYRi7esZsNiPwfeIkJvADmrpGOcfR1DVnp8ebVKejMe+MMUitQib9JB0tHMVah+CU8yRn1rRu+7Jb/74xPv/nKH7BixefcXJyTFU1G+/wuuKLx/c9CSEl5LyksOr1ZJWUTDsJ6GO9zhmPx26d05EjqZTR2eFwRBTJ4I9yKYT2hGp7I53Sv3EiJVf/vCh4rd1lnGdUSjnyyJb1eulm6RspYrXd5JjI8jUsvmUynWwGgjoY8UYJrxiZ7hAvPZN8VUqWOyqn6FqJ8ovigwydu/zRaples5eft3sH8c4GtGAHlIPabkQ56K3B7aX7vOKDu6CwiV8Xi6X86KKRbpTYuppNVQjhZ2tqFC2eZwlDjzRJSNIIWVJbolQFJqdcjXnx2SecnrzCNBVxFFCsc75Y8TWt1VStojAetfEZbh3wzje/w81b9/GCmJ2dG7K01FGLeY4ZqVPq9XK1AVQZ04IxaO2KvxvSVYEvy1e5lk3d0LQNSwdV30Q4zgiCM5JGukKdgvOG4ndw6jiO2RptbXZRfLn8G1P8w1cvOTw6/I2KrzeMLN1FuAz1A1fU6vf7hL6mbi1lWTCfzzg8OmQ2nWOt47FzVX4BuSgCtzU2zdKNNzdWHt1ZkKLU1Wm11+VNxVfiWjcXXgp87ebCy3u/PluwzvPLF8AynU7cjSXVY5A3sla8ewfWedMQdH/Y1YPlclt85/W1UihrpUd9RfE1wecVfzPTYMATXLqgKy8/rFIy526swnyB4l9+7WoDjnnHSGFx0wVxVf0O6aiseLMg8FDaEAYQRYJLjyOf9XrKbHrG+elL8vWU1fyU6eSE9WpBEgWEvk/uFD91ii/nRBRfeT7rqmVRWPIaRls3eefd73Lz4B5eEJOmfSEnzXr0ej0GbqsTziPP5/PNDeJ7HlkqgzOShl6uDpOaS03bipGQ7onc+12d403FB7CtbBr2HUeFcudUaltiEP6MFJ/Njdq2LXmRO8U/oqpkmWT3F+CQZK6nf6nslxV7gboKUCSMItIkJYrcGix3Qqu6YjadsVoL48tisWS9WssEFQhKLIoIIwnhOi8t7cRLrHr3ep28eQpli6q7QC6utlY4BlrHw980AnaRibnXX6FTAuOqwev1EusIOo2RHX+dtxSlv2znSZjfkWh0zD7OehkDxhBg8dyWGYXkqNKxtmgLntVoK9GBqKcTJYAR64l1U257sPulQGCVpgUMeqP8HXZBu+KsvJSsg75a1Oxu6MV8IZ/dGDztsbO9QxSFjIYDwtCj14tQSqIUaPjZT/83z559zGfPP6Eq5qwWF5TFAt+zpElMFFz1+BllWTtWXfnUOgxZlQ2zVcWqaBkM9/j2d37A47e+SdobIk0mOcY0S+n3hJ9QuRHnuqpcMVMigO2trU3NxPM9Gbi5suEYt3evI1upGmFptq8pfudphPOxc3xynuRe7CLeDYAnSdgabTl035cp/m9Wer56xccpvuT4h69ecXh4RFXLibz8C9cGcR6mU/Yuh9Ja8v44iYnCyG1LEToiz80qX5X1akVZVv9/9v60TZLkOg9EXzN3jz0i98xaekU30FgIkCAIcq405HBEDeeONF/1f/RTNB/4Rc+jezWS5pEIUKIuRYgACAEE0EDvXXtV7kusvtv9cM5xt7DwyK0ys6q6463HKtJ3dzM7do6dzTDmlE9Hh0c4ODjEZDLhhRM04piyzbQ7HeRGUZDLyjLq9fqU9t1wgIsdugprmS8ifmpQmn9TFBW4kUk8FBs1Xa85QUOWkSkInGI5iqKCK5JyjuzudC0t85VL/ntjymWgQZzdUwoBAC9LgTRDlsQwWUoKM5PDZAlUmgDxBCqJoLIU48EA9VodBgqZ0siUh0QFqLc6aHW6HBHWoeMwMNqDCWqA7yMDDRSkF5GplDhRscShyBoBazDwtEfZdet1LPWWsbG+juOjI3ZJJnNeFI4wGvcRRkM8uPcJ7t37GJ9/9jFqAdDr1pHGYyTJBCmn4TZ5TnoL40HrAL7HabO9AJHnIYUGMg+NZhcra1t4592vY3V1E0GtiaBWEpL0NTsR5srKKur1Otqci9DTutDCG2OQZpSdaDikZdJEQjOca5BMfiRF2foZugFgclqEhZS13K+0Ri0ICmuM5izKK8vLReBOCZvQzyZ63DzhP8XTp09nCB9c4Z5PhG9zfJnfaA7waPIS0kL4WlO+NBtCRJLrrd8fYMjZXrPMIM0MhsMRBUf4NbTabbQ73SJDra1dhcylrYZWHqWlIm0smDtLNYpQXZ5flJxstJqnGW6kHQ0U7LqaZ6wfoBTf2uo0FDeeI+HEjiY3ZCNLMwQwaEBBZxnyJIbKM/gwQJoiDScw0RiHzx7CTIbIwjF0lkErD1AamdZIVIBENVDvLqOztIR6q4W1W7cAz4Ou1WB8H5nvI/M85EozxydioUw6ZH6yB0/6k2okCAK0eAESUtrWEIcRdnZ2cHiwjyQJkSYTJPEYUTxCmoY4PtrDgwef4d7nn0DrHGsrHShkyLII4YSSmdAjNEyukeceAr+Ber0FVWsgazSwsr6FrfUtLHVX0Gh2sby6gVqtBe35aLV7pbnTmMKrjrIP17C8vIJ6vU657msBJ36RNsuRpPEU4WecfhugNiPFZU6DJPeDEsTxlUIRlwLue7Ua6aQUm1I7nQ6Wl5cLL84S5+PyNm6E8POcsto8efIET589RRRFcwmf5sLincerl1hpp1qtFtqcLLJuZaSxkXGknBD+ZDJBxosTDocj1JstSumcpAhqNYzGIZnr8hz1eh0bG2UWU2WAZqPB+fZqANu35Tlgu20V4UvntzX6mu304CiwPCdOLuYzANCalIYZ+99rTVMK0ZZTxlruRFA4Oj6GgoFnDOpQCNIMOk1h4ggqThAkCdLhCOGgj2Q0wPH2Y5jJECacIFBqhvBj1FDrLaPZ66HW62D1tTuo9zqotdtQjTryegOp1shBUXD1OpkJiegpyYZ0YGDaLKnYjOlzIo44jDDgZbz39/eRpiE6rTpgEuSGlss6PNjF40cP8NlnHyPPIvS6TXieQRJPKGY/TznvokfzFOOj2eyi21lC0Gqhd+sWeitr2FzbQqvZhe83ENSa0F6NuL3m8O2cpqWj4RC1gHIPdrvdgsnU63Uy5SpKs41zEj7N+7O5hC9TLpvoyfuPpqM+Z0Bqt9uvEuGTKBiGEyL8p8+I8Hk+IyDCF9/lkvCF20sRjt/tdkns4nmxDcmFJoQfx5RPbjwe4+DwCGlK6aOCwEen20O93sBoTEFBSUIhpQV4HfsaJ6Ug0ZdELaU0Ul5lRwhfayIikW9zXqcPIFFXM1chzj1tmqPvINMOifukICpEfUNz/DzLKG8hi5S5McjTFDrL4WcZzHgChCFMHMGPEkR7B0j6fQwPDxH1j7HSDJCNh4j6J0gmEzTrTRilkSqNVPmY5B6Cbg/1bhfBchd6pYelO1vobazDa7XgtdpINHF8xT7knufB91hvYqdM4zyHUj8KoLyEjSaShGIUHj54gJPjI15ZCagHgFY5lM6hVI6PPvoAT588wscffwCtcrzx+h3kWczaf0n9rQDjA/DQbi+j3V7C8vIqmt0ulrc24QV11IMmAr+OdnsJSgeo11totNrY29tlKwwRaJam6Ha6WFtbK9YJ9CVe36NpqAzqxuSI44hSb49G5MQlC24woUvewssSvvzd6XSwtLT0ahF+FEVnED65KIIJShdZSqcJv85LSHU6nUIsdz9BRl4paUpzqH6/j93dPezs7CEIyBcAALq9Hmr1BpocZaa1h4hzz8cxJeZs8SIVjWYDYURZb2s1cjJqNMlVuHjvWp1Ne6WSR3HIqviE50WaLPotxHgmcsVOHMZyFpn+TpYscgohTeMYKk6g0xR1k2H/8WNMTvp4+slnyA+OsNZowstShP0jqGgCnURAFMIkZGFJ0gy1dhu99S30owyoN2CCGia+wvK7b2DtrdfRXV9H6nnw212YWg06qMGv14tkmWS9EIKgAUw4PtVPSfi9bheDwRBPnjzFf//bH+H4+BC9XheeZ9Cse2g1yediPBnh448/5JRoQ9RrHpZ6bShkaDZp6pdmGYJaA81GF/V6G53OCjrdJbQ7XdRbLbR7XYRRgsk4QhQmCGpNGHhQyoOnPaRZguGIPDGzNIX2NFaWl/H6629wxhxSMtdqNXLg8vwpjh9FIS16MhwhDCnfhMDwWg1ZTtMyW/oDESATfwmtKbekS/jdbrewOMggwXe5MOHPUw1eMeTFql7W3u+eMw35WLGXupz+vDC5wdHRIae7+hzb28/Q7x9BKVqDrYy/JzF7bXUV3W4HPq/DvryyhFazCWNyhCGJeOPRCKMhLSfdH5xgPBoizRJrGjC9uIfS7IHnlSGzQuzEwYjgjcmhWRqabmyqKa0UZW7xfHhKQ5P/DXaePcP9Tz/D/s4OpfiKQmSGkl6mkj8+o3Jy0kduDKeRaqLeqJEZajJCFIeYRBNkyFFv1tFbXpryRZf3la5Lg5Mo9aaL1mQBqNVqxdw3iihmnQiE1hPc29/H3sEB9g4OsH9wiOXlNWzdvouvvPMeXn/zK1hd28La+i2sbdzB2sYd3H39Hdx57SvYuv0m1jdfw+atN7G2cRe9lVsI6l0EQRu1oIkgaCKoNTGexDg5HmB3Zx/b27vY29vHaEgLmBhjCv0DmAiFKXkcNOPCMBcXBWwh0bmKvCvAVd3vRnLugYl1MBhgyAtrUOcmlB3D0mryvH6645DmX8QuWwdgl5iXQJIiA0SapqTkm1ACRM/zsLK6jE63A+1pxHGMfr+P/f19Wuqq1US328HG+gZ6vSVaaLLTJpLj/GtkqhwX95Tll9KUNPJEvNJYzPWsrDhUAEBcP2WmIAnF6FpduAHLNrsjawUPCr7W8IyBzjKc7O5h9/ETqCxD3fdRq/kYjAbY3d/FwfEBr/vHOQGzFJM0RqPXRWOphyzw0Y8jHIUjhMgR9NporC9jaWsdndUVBM0mcq2hawH8eg0eZ4hh73b6v2hD/mqeusivVgpZRpwyz3OEUYg8T9FsNqA9Bc9TaLYo75xfrN23gm53CfV6A5ubW+gtLWN5dQUrqxvo9Fawtn4LW7ffwJ27b2Hr1mvodFZQr7cQBHUOWkp5qe8UUZSQNMZRjGJxyQ3pVOr1BtrtFnq9HlotikQsHco0BU8V9EdRmQlHQ9LUryROoywFr30Zw2Z5xT6LASjRb/GASXoGlwlQ3V8ENyLqGw6vJVH/KcIwLJwV4BC+QAhctPqKlRzkWkkJDiiIZ3bJ4MFgMCPqG2OKxRHiOMHDhw9JhG+3cOfuXUCReEVzaIm0o8UNW80WFV6Hzg9IiRX4FDlFc3zWynNqLuoAlLK53x9CsahPg1WZdx0wWF9fQ61etwYJq+MY9hXnv9PMcvKBIo+93FBJM2ThBIP9fTy9fw+T/gl2nzzB0dOnGBwcIBoP0PJ9bPS6UEkCE0cs6ntYXVtDvd1GmOY4Hk8wCCP0VlZx6523sfTmXWy8+Tq6a+vIPR9+uwsENfi1OhSL+NSrpwkfoq/Q9DdAi04YiUpjPHr0CE+fPgFgEMcTdDpNXhHWIGZFcEOyGvs+Xrt7C1A56vUaGq0WavUGwihBOEkQRSmyhNJlJxw2OxwNKLPRhNK5K4h/Aq1WlKXsaZfSoN3tdrG+voZbt25T2izOySciv1ZkRAFI1A/DCS+vNUTEa0WAiR6cmizLKD7kvKK+9kgBKv3eD3x02rRKMtnxX0HCpzn+tFZfiF8wj/CDIECzSQsUzCN8ylpDGUxFuWc4lXeW5zg8OMD+wQFO+n1kOeUvL60IkjiR3kUXab981DlgqN1ucQ5AiidQHAGolAYUKd9I824Qxwny3HAaLbbj8/lF8BD7MIRhiDRhZ6NagF6vh3ab8rt1Oh14WiMKydvNGHLaMTxQqdxAZWSvz9IYDx7cg8pTvP/3P8Pj33yIbq2GbruJVqMOkyaIwwnGwwGicIK11VVaix3A3v4B9vYPAeVjfWMLW2+9gXd+/3dRW+6h1VuCrtWRaA/Kp/m90pINyRRcv+xSJeHneYZEFilJieOSMi3Fwf4+ajVq11otwMbGGg0Uipx/fI/ChzUvQhnUPNTqddSCejFdISKndN0Zp+2m3AO0NqJE7GVphklIK+EmKUVfNltNHB0eYjSmAXp1dQW3bt3G5uYmWq0mOp0ugiAoHGqmYHKEk5Lw44iWzJI6MKzjEmcrl9wWhO/MX7Wl3BNx3uPVWITjyxri7rVVhJ+xbT/LKQvKFOF3ukTcTPiDwZDstpI2mX22a1Y2Ws1LVRlFU4g0IysBvSN1EnLkIRtsrVZDGIY4OjpGFNNKs6IIG0/G8JnwJepQElfmeYbxZIKlHq0vr3kloMLHOGdzYU5ze2NyjMZD3Lv/GRr1AMlgCG84gZeS2StLyaVUuK9SQJ6m6PUoq06/P8Dezh5azTa2tm5j7fZtqF4Lpl6DF9SRQMH4QaHYE289w8E39EXSHqSszHnJcRKriVVK+3paIctStFskWjebTfSWuoWEAACe9qFBOhFjDBJWduY5pW5PM8qGlKWsRMvIpz5JSARPOU6fpmBkWqZtCqKhtQJOEMURPM/D3bt38dprd7GxsYF6vY42L6BSRfjG5IjCCSbjcjVj4fjC3TMmfPNlJfynTymQZjKZzIj6LuYRfr1OcfqdTmcu4U8437xN+GmWUSdIMwxHQ+zv7+Nk0IcxhrPG+Ahq5Cl4cHA0Rfg+LwBRk6WS2dTmyfp1Vkw7NTYpegByyvA8H3meo9EgnYFmpyN57/FkBN/3EU4mFhdqkbnr4ACPHz9GnueocVIMEfW1UlCcYFQVCTANRuMhRsMBmrUa2vU6VjtdZHGEKJwgTWP4WvE69+RwA1liDKT49DStdWegEGc5JnmKJDdIcoPUAAgC0ubXKFmoUuR/ryUMmpfu0loDMq/XGr5Pi3tIQg9aT4/CnE1e5iUUCQ+K3ZChoExJ+JF4NIojU5LSwMLTIOGwkho9nNAS3eQ7L9ssAWQZRqMxxmNa/69er+PNN9/A3ddew8Y6EX6N8wWSw5isD0CYEfU5/gBsubE5/pea8Le3t9leW3opCezt6yT8MJwUHN8Yip/2PB9BnTj+eEwOP57nQUEh8GhZ53qNzFaNRgPao87q+eUqs4SSU6nCnk1ehz4rZWhf+c5KAZ7vUYbfNCmWvB4MB3jw4CF2dnYokCdOyGWZl80mjk26AiI0zveXZ+j1ulDGIEsSrK4sAxxjb0wO5Jm1Wg4NGqKnoAHOR6tNoZ/jyQSdpSUkWY4ozZBkOZrdDrTvM+GzXibn+Hte/4DEchrgUrZr+z7Vg9YeSwDTDkp2ncjAaYxBnmaAoaAhw4lIMsvxKY5pjp7xsmFCZDF7zImZThKDhCFlUk55kcw4ThCGtIxVu93CrVu3cffuXaytkauuxxIb/a2mkrwK4Y8nY4yY8DMnIIf8Lpjwp2z4KPrLF5LwwcS4vb2N7e1tCmSwCL3qV+b38+b44r1Xm1pckxBywMQ8wo+iCPsH++j3yYzVaDRo/qXInyDnxJ0SHKHhwddkS/U9jxfF9Hm1XlpPT2KyYShjDqxUHwAKghBisxWC7vs368QRoyTG06e0qMP9+/cxHA6x1OvBEyWoASBcxHDKbyjUggD/8//8x/B9D1EUQXuqeBvP0/C0Qs7ejVnGKxtZz9/a3IDv0YIXtKaAoeh45QFawVDoH/0N5vSFpUE6LHVe8oYjwlecaJMIVp7mJhyxUa5ZKN1UBs40y5Dz/F6IWkR9w04zsZ2JOKW5vkz7KEMQJQ81hvqMUgqtVht37tzG1tYtLC8vk+2eI0Lr9ToCTyF1CD+KQgxHQ0w4OIymN6zJz8klV77DVe4R0U/vuwnCn1vl1wX7haUx3V+b2N2iLc3/eaGs+bQxebESbszrl/X7tDptltI8tOhkc54lyiJIRxQPu4yX3spzSKxv+W0U6JPzWnU5d9h8Sksv0i2JqcqA4hIaDaytrmJrcxMrK6toNJq0hFOTlnCK4xhROMFoOET/5AQmpylGr7uMdqeLRrONRquDequDoN6CDhrwa0002j10eqvo9FbRXVpDd2kNS8vrtJ4cPORGITMUkWegCs+zPGdumVCWmTgKEYZjcmIZDXBycoTj40McHx+iPzhGGE4QRSGiiOr4vLzGSCJO8U50BgBbfCaFKtVtwgROgz7H0VspwLTiLLbcp8YTypYry5KJuTXn5dQKSekScMlRSNQuLwI3yvFpNZ1tjEajYr8MBPavL7nGLI4vIr+IXCLuB6xVtxHH5DstLrtJQuvXRQnlZQvDCfb3D9Dv92GYFypOkghQbnbfSrLgcnxxLfYDWh1HHq8klJJj4Y2VulveUQYggf3uSmnKtcZOIn4QIEkSjPlbspS87KIoKjpMzqmq4yhCOJkgTVK0mm18+3e+zYt3xMgMBYhABldZ1pmnMsoadFXhS+/Bl9V+kCMDSSZklKKchWTK4ymHpqmGoBjweFAzPOUB6yTKLk+LZVaBuOQsp9RM9FEUTXF74f420WcZpQWTgKiM/ToKHUCaYTgaI5wQx2+323j33XextbWFXq9XKPUavAKup4DMzt/gcPyYE5wW72xIarEj9qZR6oMENscXs29QC4p8Aa8kxz8LynLkkb9lEBBClPPOC7kXuKHqnCq61+sVrr+tZgu1gOZzWhbGKJztRFAus93mhjqO+NIrUIRcltJcU+agRZOw7bq68S1wokoxdwGAyXI0auSq3Gg0sLy0hKWlJawsL2NtbQ1f++pX8e677+Ltt9/GG6+/jvW1NdSCGkxGCkGwcgyg7DlpapBnCloFqNUaGE8iTCYxJpMYUZwizxUMNCXcMPQ3oDhpCYuwhlNksxWiEKlZikoTyk2Qs1lzFoaLs7e4PxGEEJC93z5XkLNYnbMJlUJhSy2/nC/cvCha0TqHjQZa7LAl/U9A556TVKxP4q7yUuKcX3MxuI1kN9A8grUbw94njSAcX4ooys6C3YiUdw7I0wyeJkUhSRS06GXgB1AG8GRJKp5PkrcGcbnS/6r09KLRnM7Jc9pHAwCJ9hK1W9SDAZAb2s9JNKiTcKy9aIXTrFjGWiuFRq2ObqcD3/MQeB48pRFoH3EUQRkUZs7V1dVC4UjOKxElMmm2UeOAHHCQTWYUcu1BBTX4zSaCZotCb5VCqhUyTVweU/Z5Gc6EeNiBJxfuRoXmt5IkRL6VkoUgp9VuFYcVG+aMJmexnadSVUQ/HI4wZqlRBlgXRQCUmwuBpRiB4vgKrSkwrNUivRHpaaQPytTTegDDfq/C9ZqlEs15EGVKURRmKNIfp47xYCQWEjg0o4qU37MD4UVwLYR/lRAiEJFfxH0R8e1KmQf7PJOTtteYMuc71R2bxrixZkb4ws++1ISJEk8BnOWmFLiMKRN45LLstgyCVQ0ng8Mcs08Bg0LR1KjXUasF6Ha6aHfa6HLeOAMgKfK3042jKGK3YlrdNsnIxh3GEaXHViiK0Qo5i7SZodBfG0ppKJAiD5D5TNnpp4tdKwJ6J9lrD55i+rLn74YJWAaI4i62a6wxhYRAFoLp5cymiUcWHKVfaiu6l8Tga06WohQtNhpwQFcOTJnzXBRPOeUcWPVz1nnXhRdC+PboJtunQVnx+NLpRQ/gnqdYOpBBQqYG9nEqNC8FKPU0mLvA6kQ23E5ngzosdTraLs81nIuvMPFUcCfwefIrgx0NSo7Wn/80YD9wACOOE5CiNBDGIcI4hPbIdp5mCcJwjMxwRh5lOJ4gosy2nNqau3ZR5FvKObZF0kY0BKeV+chYMy/PyBzvtlkNuEvsPBVgjm7XexWE+56GUgKgfiMrNQeegkY10dv9Subm0l/tPqmquP8cBbJA2l5b/fUqcPpTbxDzGswW1TXb9s8r5guk4ottpwKFwAxn1DHMYaRDFTZY/jvPKM+6zOGlswrBCqavIXu2aKflOFiqsZ9TKIR42353AyDk+XTIZqocZIrkfDyc7ikhJxeTww88ZFmCOKGFKCnDGa0QSymtMxjwb1FIsUZZhMtBTVDUoCGJqfzWsvCnFMdOK7nUk2MDN1zP8j5SRCKALHDJg6tYSejd5Tq6zzzY91K8mAWthkzivzAGUepVdT0FFt0dplbAMZnamLf/OnEthO9+vL1dxYHtbfu4oKrhDHNC91moeL7hTqU1h8FS+BuUUmjw2m7C0ZV1PomXOQXJFH/TPFXOF+KX5xQiqcPZpVOLOCtRgxk7d5THmRBY/LU9/MIownA4JKcY7uhxmiCKQoRRSOJ7niJHztF3McI4xMngBFmeUVRemiA3lC6TVog1JfGbDAZlyQ25+YIHnJzVHcX38bvKfPWyYqvUZbEtAyJrw23xv5CcOPZiMp7AiLRQDJbTg4cMtlLsQSFl/YnY6sWj0O5DxhjIkK6UW0jmKebz1rxeiL2Yy1tFIAFYU8cvWY8XwSyV3SDsxhbO7hKxnCfn2n+fhpn7sFisuMXEU0y0vIaz3oKfMTPHLNkXb/Ng4JwjnW4ejMXNMyZs+bs4xiXjwaD4Du4Z7tcbxSvgcBHzXc776RxZJANI0xgZ5wrI85Q4vxC9xfWBHLBW1qHn0DOlZhWbo2br4eziwm4vd+C04V5fThfKqYIxpU7gtKI9D0GthlarVVh4yNGKSMOwFHMW5N11oT+Y7sMvG26M8G1CdAlcfmVOftlKk3vag4jWGuJhphTHtEvOeTlHsuKwzp5E22qx3YXdMQxzlNNQdQ8XdM9pvUFxDEz8duH9RRGiL7anzxCpI89pRaGCyCvm+BBrhn0P/pv8zG8Wbn3IPrtcBFopspKwvV6IXrHIfx7Y+iTNK+poZi427FqF8y1TNe50f5teqsplcL4vuwLMe0nZdxUfU9no1q0k9ZFhjk4clbLR5MZyseW+Pd2hcpq7WvtkgKC/y2O5oTSs0pD2scp3PAXlsyyzl2w75xTF6kBlJ6L3skVe+X5A6qm4o1zkdsk55XyYec9zDJQCw4Oh1J8SRZmVKNPwbymtnS59gSPnEvbHEMef2TRn02DeMVUqYd1i6m5W36iS4G4C10L4dsPKthC0NJ5N4Mri0lWwz80tBZo9J555lsXpAXK/zXmhA5sAooSUYMZa+MHjvP5aKZ7YFo+cgVgH5BT2kykUYtKxbRKx39ku9vwUKOe+NB2YTiEO/n6K++dFHYs6AMAeckXEHP9N809Z2YdelubuZkoZJ+9PRQY4UfpZ732KGOzqLebBvp9AFYE7lmKzQnci26WYPy0luQOLPUDkxnAmY7pGQnZDTt4C7nso6pRqzL5lVZ8t6kXald/LHrCNAmjFE/o+m+kVhe3514HruasFaYTTCPuqMK9zCdHZ3C43pAMXaGtdc9/nHGuatLu0TDX9Fve0iUL2OZ8n+6nhzyaUs1BwNosAlBCtVUjZxt56cx8nTiLsfHM677Igtck4zyUMm8Dtch4UdW3N4wuCcvUxlmR2Hsh5xtAKuzEnCzkNthPOqTBUR2eddtO4dsKHNZp51kIVpxVt5Rs7L+TaGfDIKd3VSIpjaQx+L/Hc8wP+dQrN/8p4/NPgkMaNYvbNhKDt4kLRCrosrthcthp2r7/6Lz1tcBQxnrT909x9HjytiwQqhVLXCtKxkXOmIGMMJxmpqq8SIpVIv517vquXscp5bPlK8WKjHg/WRVuefu08XO6qS8C4jigvCYqBxqNCobjE8clDkBQ+Ys91nYZgkdKZo/8NwSXzaieb8mxbnDyN6KZxPUQPkNh+GgqLh+UYJcQhRC2pusqUXbJYC+wWA+RLhOuzZEWpvDiSsKrbTlUj18OcU21IrZ239uwp11XiWgh/qhGsubmWRIsXGADse9j3qjou21RRJTcoRmTFftIAzd1zU9hRbZRLeJH7ZuAHlMVWUUeSjDzkoUXORGK7FT2B4nj0qcIDjItCRC2KzKlLhxY6b1YH4M5hq1DVHrJf8gjIe8v9quaW9juWTjqz9XdeyL0y8VngkFrDiVvsEscxJdzgoCjN0ZH1eh21gBY6CXxa9KQWSMacAPV6g9dfJOIXV2OlRHtP32kUKfrSjBa3FD2QWDOMIdPmLOlyIJb0q7Ob48KwiV7a6Xkx27rXBCF4t/NdF4TYi+2pow6seXLR8TnM1Pd85hoy3yeJoCg8EMg5WnOS0OIY6w2sxQ9PFQlvCHY7aNsz8BwDyVWABo8yXFWsLIbn7lJPHic0pQzFlMdQSlAQOxN8LUDAYdtSajVez48dt6juLV99DrPO+R1orULK9nPuNrKq7JxXnBv2YHvu9zkHbozwcUqCDdkn/s3S6LLfvsbeb3de+dvtuFRps1xJ9pelWpxSkmW36HxlhwukE/IUwOeknNqaU1ZB8VJa7rvfFNx6d7/7qt+l6n5FW1ox/fYAKQNqwEuX1et1BFbuu5KzC9HbhQaAGq9fP6/fTdcB9QFJlFm2zY2SyAzkPXKTO/P758ONf1VVJ8Ap+y8KEcCoYc/xeQ6tV72FlpBgXk1F/pYU2x5zFK3JtGd3GreUZjVKsODp0tNLinyDi6p34yfN7DkPqgY7JWa4ikFwCkoeNfu8yvs67StE57Ni1SZcGVzFshL4PO1iBWzA6c6DoMyMLAlSfGvhTtLLlDkcbJSO1vIe0/EfSokDDreGoqsK0Z//lccIM7XmVI9UW1F9kIuqjkz/Pd2f3fMuhtkauSbYoorbEG6nkH3uKO1yfiXcSvFCGJapThpAgSrW7owzndIqroQg71ZYAZhLebyYhvZ9aN+D9n0oj2IAhKh9rRF49CtFuJnN1bSVZ0A7pRhoeI5aJNYUnUVhq3fLLHebW0RJz9+cZwYwfG/tQWv/lFJGoNl1pqzUVbKtLUlOBlMtiVZ4WuVzrj9bj6JA71fkIdC0Wq1MuWkKZnP12boQUAYAam3DxKS0LtZHoJTo8h0c0KVpHYSC5C1bngzSpZVILi6GDHnwlAnQLtM9kIq8u/xtcnrINPFfHldzlwvAbgR7nzsYnBdSsWIaEYgDCKzqPBVFC07vzo1FEfxbnMbc3eM5veZOWYisnDCkmB6IqdDyFfBlHbpTSkEocwodZ821Q1xVxSV8e3DxmJDlnsI17TJ3cLK+2edVj2q1GmBLTdZCKeVzZ79pWuyfrovpffw9U+Y5u1RAiJKlK2WlD/MllJbvJx3C/l/+Ipq1Ooxlr3e60cVAN7YfAhQMc843XRCXo7ZLwB7xwR9hrBzqdseo6qRVHRYotZxkspJnnf5Zcq1IATlnQAUr9c5zvWKOC179lbgTLyTJK+N4Vjx2UVhpSJySRnUisPnFro+qMvOMcxb3eve+2uLKbqm6j3udlBqnFp/3Pe57nVZmz5/evgi0mh4wCullarp2sXuehYveTzO92BLzVeD0Hn4NsCtUPkb2CfFRI1z9q7nVVjUXvQxEurAJ+lXFVXQul6O/eKip1i+8Hq3pkuFVcu3pwWXrorS9z1caXwaXfZ8qXFsPlQ+2idkmaCF8+5h9jv2RVaPdvMoU8d52a6UdVJQBNMp5LRyHFfs9pt/f0UsUYb2qCOe1uYf9vu73zey37lVVXA7pDorusbOK3FNgD8ByzP61i8B+L4G77cK911WVqWcUInqxxxKXKdmotCtdT+KzbddXVtvP62fzIOeLvsm+Xt71tPe/KcxvpeeAXWnzKk4q196eB6bZuaUK9OxpM56M+1Lk+ed9Dxt25zLm+Xzw58HtIOd9t+eBEPtlIO8oSr2rh9vi7vb5MK+9lSr1Qs8DIXgp11MXz4drIXw4nRYWN5BtZRG+x3Nh+5yzOrrb/AJaS06KJvHb8wqu6mqh7U4g83v7Haveo+TQpxOJff3UvVhTLMXlyFX1IEWO2aK0e468k7vPvod93mnnzis2qvbZcK91z3e3XdAxaScR1c5L9JJ8E6yln30fctZS0J4q1kS4Lpz2nTeJayP8s6A47ZXm9dVkdJzpGIUGdrpA/nZvfAlIsMd5Mq0IaFAhU5DEtZuczDtndeQXjdmO/8K6wYVQumHbRF/VZmefw12oPGZr5wuUZ9n/T6Nq38uPa2nxqk5vx2anaYqTk5PC1FMFY9nli30VpQpV4hp1ctEvlJ+dZrRialW8O1gKqIL40dOSUI4oJ0tNSQGVIhprDudz4Z5nn+vurzruwj1XJAeRADRbWuxzwW0hZd695PqzJJaqMhecLgwwRYJLUZydjVIyKN9PFbn8pQdNEb9Vb4X7tiE9kGISnw14Ohvz6kXgbt8EroXwz0IYhtjZ2UHGWW1tcXUKll5Gmqbg9rJdnn0pKHbgIJOaNM7FGqHQErN23/B7FsUZqJ73nZ8XLuHN1PtLhcLLxeL4LuzalW0X08ftAWD+11sELh3PLbbzyCuEayN8t1PZ4mS/38fnn3+OwWBQLFTgYup6GYW5jt1mdQkLFhFOacwtp55CvyBuoxJvzyvagnOq00BwMZOUS1RSCo2/M8d3zyu+uwLuOaqC0wpXcffZxbWnu7qCi+Ay11wE5b3dVrZR1Qtov9Iyt6eivXJeb7924RNyjd/ysuDaCN+FYg8xrXWxZHYYhoWd157n29dII5x3YHWbvQrGyuKii1z9tCS02HSrOcuXDy9NPZza/vyOhdLv/JDbVk3x1VmPfYVxo4Tv+36x0q1SCp999hkePXqEOI6Bik4mHm1KWfLyczZGMZCwIjEIAmie22ZZTqurWko+137vwn1ngc09xa++OMYdTfbb5wrsefW8gci95qKwnzvvHeRX6qvqvJcb0xphpWj5LyFrY8dxcI4GIXhZzmxKrHfLJXqjLZW9qHo8vVdfMYTwt7a28MYbb2A0GmF3dxcNXq3U5+w20uGEKFBW/WUG9UoYSWTJi1vEcUyrq3LO+4to+C8MufUVfct1omrAeZG4PKHIdWLOFOKfHYDB4RkKdhud9tzTjl0M8n1Vg/3lv30W1074hrPECseQsMulpSXs7+/j4OAA29vbxXF7JCzm5xdUtrlwK6zU7tP+LMswmUyQJJRqqRhsLsndpCO5Hcq9V1XjXgbu/ecVF/OeX3WujbPue10477OUmvWGpPl8WWhNPHKxlnqoqovzoMiofM4cgGArlwv5Pl1hXpVj573/WZh9wjUg55ViwBr8breLVquF4XCIDz/8EL/85S+xs7uDLM/QaDSmI+Kc8bRoUKvyrIz402Pv1GhdmgKkY0iKaeLwlLxRjtsdpQqkC5htvAWuF2c71/DxKS49fY3bru4AMQXuOjclmtkE7hL5vL54GVw74dsvL9xUymQywUm/j1/9+tf4r/+/v8Enn36K4XiMTreL3b09nPT78LSkf+Z7SL7ynNa0S5KEFn8Bygg9Z04HK5W0Uh4ABY9jySnOXRfJNADx4HN99ctK15yxRTz3bIlEyTueVhxUcRy7nuZ1VIF7vf3rHhOIX4XNeeQ8IoDSpg9+pnsP2yowJanNee95cO9jw353GfRPAx2ndpc2LwfxaU/Lee9Hr2DYfCjLiVUE0ivK/QDnPd16c+uiYFhWfVe9hw37uNsOl8G1E76yzEp2xSjuSL7nodlq4sOPPsQ//MMvMRwNAQC9Xg/dbpeVMeWYnec5oihCmqTwfR+NIKBR2lDblJCrSk4vdykIln+15jz6HNtNSj4qrmOP20DuNqx3XeDqcf5pn5w3e/7sACBMwSbAmQ51I5CBr2raUNXXLosbIXwphs1nkpzC9yl54tHRMd5//3385V/+Jf7qhz/Ew4cPkBuDWlBDcsbCBueBK765Yrz9a4xBlqVI04QL6Sds2A1AOeMuVo0y0ttc4iYw77myeKe7fx6qOPN1we4/5+34NhG7xe4L8+5J59H8/zww1vz+vPWHiufL3/T86cFJrqlqv8vgZlqPISKObUJLk6RYr2x3dwd/93d/h//6X/8rHtx/gOFoiNFwODVqK6Uo8WIQIEszREmCjMNizwtpWHtRRHvUB4A0pTX1qJKn72+MYRFSlqSa7TwLvExQZR8yMgjQFBAWAQpDAKYzON007IHE5vxXOdhe3Z1OgTuqitkuyzJEUYQg8HH37l0opfHb3/4W/+1v/xY/+tHf4vjoGEmSotlsodlsQyuNNMko/xjbYKtEORkM3efKtoj2dkUGASVltEfhPC/XpqdtXrfemrJctDEUKrT+7kkO5J3sd7NhcwEalGbPPY1DuBzc5UgFMcx5/mXhPlfuT/tnB1RjeIkw5XpkllO3ShT9xCZ4KnZfsYuk/lJKnRpybderXU/yW1XOA5fjXzXm1NT1Is9zeJ6HLMvgcW62MAxJ0649fPzRR/iP/+k/4d/8f/4N/uGX/4DBYIAojBBHCaIwolVOUiJKqpyLVxBdW36+75PrsIywksBRiCnPef36nNev5+2UrRVfFlx0oLtq2EFbNiO/alyESK8SVQpXe/uqcCOtaFeiUgpZlqHZbAIAut0O6vU6hsMhlKK16huNBk5OTvDjH/8Yv/jFL/CjH/0IDx48QL/fR5omCMNwqjIu2kD2+UqRPdf3aT6X5xmyLIfPKZ8Nr6KaWvnWp7j+eVJRW6g6s2rfRXBRbnIeuPe86vufF5KKXClxtLdj684JheIK22e/LNMWHK0pk7K+QNqw0yQqF8pSeM8bSOXYddV59VOvGcYYBEHAYqkuOL7HH5rlOWpBDZ9++il+8IMf4i/+4i/wN3/zN9je3kaaZryaqRDj+StGFDt2ZWo25ZXb0wt7kn0/g9bT5iwjYn+el77/sqxUcVY17I571rmXhd2RrxLXwX2qcGodcfNVHgNob9HE7l2mr6A+QXqc4ttUReq2M+By6nkQJargPNdcB7x/+S//5b90d14Xcra7h2GI0WiEn/70p0iTBAeHR4XYbHLisGBuHEUR0jTDxx9/jEePHiFJErRabcRxAs1JPIQAaeSmFs/ZaUgq1rAvPs0RgcPDI4zHY0oXXUTslRxfKYrOo/egOAOy9VsDhcTW89/kpacp4kspaypp/32RoeriEO4lsP+2uXfVr8DmNlLs82RQcYt7H/s6u7iczH6GC8pnL4MYfYsxFCdfkPKUMox8PHKZnvG1VA3lrw0i2gxKKzQadTQaDbSaLdTr9SJzsqcpi5MLYwzSJOZ+mkJrjTRNEYYhjDEYDoeFNBtw7n6B3Tdt2BmpwO0RBAF6vR5QUV/z6u40vBCOLx+U5znCMCz22x0FUAiCGjzPR5al2NnZwc9//nP88Ic/xF/+5V/io48+QhwnWFvpod1uWfnbZytBKQXfp9BbqVRZWw1AYbOXDiRFOrPoAiR6j4jfWmiS5/2y9pvNYyp5xuwrXjmEGK8S13HP02DAdWXFxCgr38HpoNoXi4woc5USKY/+VkpBaZCzjsXhyXnndG6cZ3mxmKcwHq018jzH0dERfvnLX+JHP/oR3n//fRwcHCAIAjQaDbrWMv/dZJ0KbpTjg0Wd8XiMk5MT/OQnPyGiMQbj8RhJkhABZTkA8o4DgCiKkecZRqMR7t+/j0ePHuP4+BjD4RBJSjboJEmgtUIYRqjVagXHpwYE348qmUZaA61JlE9TWoE1z3M24eXFohAALD0AL8ekqPPJACYDFmmBp5fRso9PgTv0VUgAwgEqn2NhemCd/RXYWXmq7utuC9z99v3t+8w7rxpEFEbO46zGUwPrDMfnzEdiChOHMRmGeQChv+l4nCTQSqHRbKLTbqPRaKJep7X3tMerFznz8TynGI8wnCAMQ5ycnGB3d7fQTf3iF7/Ao0ePsLe3h3a7jfX1daysrBQ6KiF49/tF4ioiU9kS9kpzfFU4yTDBpgkUK/VkVRgiUCJ6xVlbJ2OSDDY2NjAaDfHrX/8a/+bf/Bv8X//q/8IPfvADfPDBBxgMyOuvCoq5vjRezeL4mp2KqJS54MsR2dGy8pTBbjileRmvOSm8XiW4HMjlSu72eaAshdZNQ7g3TcXKqE+bXjxW6ImeyZbVpK1p4S5CnuVIswxJHCOc0NT18ePH+NWvfoVf/OIX+PnPf46dnR20Wi1MJhPs7u7i888/x8nJCfCC6wM3Rfh2RxECS9MUSqkiIs4vlmQiwhdxO00z5FkOz/cRhhH29w/QbncAAMPBAL/81a/w33/0d/iP//E/4a//y3/F55/fw5MnTzjENuVwXzLLybPAjZnnBkGx4iqVep22lQJykxW+2CLuUycqO4UQvYy6kuDjJiH1O/NeVs+uOl7V8U7jHu493G0Xcrxer89IEVXnSZkSg5mDE/HlgNS/FfsgbVIlnsv7GV4GG9Y3KkXMhuqClzUP/MJ5R65VmhTOAK0rOB5NcHx8gqPDYxwcHuLJ06f44IMP8MEHH+DZs2eFZ2qtVkO320WtVsNoNMJwOITv0+Kcwlzkfdw6uW7cCOHbUDy/lnXVfM8rbOJlAxNRZtYcyvd89HpLaDZb7i1x/8EDvP/r9/Fv/+//G//qX/0r/OVf/iV+/OMf4/Hjx9je3sFgMEQURTC25paRZSnSLEWSJkjSBGlK66OrwsRTzvXBHUjeV84TFB3X0dy+DLhIx5LvsP+2v8fdPgtS5/Y9nwfn/xJC8Q3ct4wxhX6mql5Ume2tGBDyLEecZoU4//TpM7z//vv48Y9/gp/9/c/wySefYG9vD/1+H1mWodvtYmVlBUEQYHV1tRhoV1dX3cedqz4VS75XhRslfPl4F0mSUkkTJGlacHuwhGDYQ67ZbKLdmiV8ABiORtjZ2cGnn3yKn/3sZ/ibv/lv+OUvf4V79z7Hzs42BoMBsowch1xizdIMaZIgTRJkGWXNlTkgWQFENJyNWJP95d/EHc5qyOuE/S5S3P3ngU2op5V5kGclCQ2oMr2z2/eiuIiJrQryvlqTLkb2UXwGSZfUnqWElyQp+v0+nj59inv37uPRo0d49Oghnj59hsl4AnA/bbfbRXBZr9dDu92G1mSuljwUtVoN9XodKffzjB3AzqpHnHHORTFLhdcMw4q8wWCAyWSC8WRCRJel5BFncUvDnLbT7ZBvfpaVmnPWogIoMvg0Gg2kWYqnT5/ixz/+MX7wgx/g3//7f4/f/OY3ePToEU5OTpAWQT8G4NTLzVYTjUYDtRpZEcAdbLqTleefBXq/04nipnGe97bhcunnxfyBgup1usj+EgqAklRXFbdQ9q8lFaipQaoU9aUP0bQiR5ZnyPOUdTTlu2R5jtF4hP39Azx48ACffvopPvzwI/zyl7/C/fsPSFFnDIyRNQN91Gp1tFrtQoMvJuhut4c4Toqpj0D6eQm7DuhveeeZb78klJltiWuBdKQ0TfHo0SP8j//xP/Cv//W/xvHJCZIkweOnT6B5zh9FcdFYWnvwPQrqoTTYNC9rNBqo1+toNJuknJNYes6MK4o83/eKqcXW1hZef/113L17B91uFx32GqRpgEEcx5iMJ1MKOq3p+kajUWQENgbwPL80D7ITiA3f46Wzz0FwVYkerxp251JzJC/7uD0nly7iXmOfb//KefZ+uxhjrI5vEzuh9ISkX2NkHTqxz0vINDOBjJy5Cq7N/iJi7clSOi/NUmQp6W1kEEjSBIPBAK12C0tLS2i3W/B4Wrn9bBsPHj7EZBwijhPEsXiNlu8FI2m6xaybIU5iJEnKay5Qv7p79y5+77vfxXe+822E4QTj8biQgsSHQCBKbo+tSp720Gy2sLGxwXEmpcMZgCkl5XlxY+Y86TwZB+Y8ffoUu7u70J7GeDLBcDBAbgxSyw8fxRxreomtbq8H7YnCjkbQolNarpgiSoVhiH5/gP39fTx69AhhOMHR8RGZ5xQ5R9SCGpRWiOIIJs+hZeVUWV5J003pvehdJP22vKvA0xoep+l2j1Xh7DOeH/Z7zHsvl1DnEbq7Pe9X6sbedgeFKszzfZQhQphCwbNYwsrZFp+lpNjNZWrBZl2yIsUIwzHSNCF/DK3QbrfQbDZIqas1xqMx9vb28N9/9CP87O9/hmfbOxgNx8jznDJE5Tm1mjHA1ALt9F15TpxZJIE0zbC8vILXXn8Na6urCKMIQGlWznNyGLNR1KUml+VarYYmMzmtreQ0lj7iIpgd9q8Z0ljGGKyvr2NtdY0I1/OQc5IN8OiplKIMOR77TjO3d4sNqTCKpKPOIRx/NBrjwYMH+Hf/7t/h//kP/wHvv/8+jo+PsLu7i+FoiIwtDX4QIAiYo/P9kySlKQkr/2zMRNtJgo/LtMgVQIjNLvZ+l6DnwZ2H2wRXEJ3VpqfhNEK33/EsGCbyebDfTzhwlqfI8gR5nkIpg06njZXlJSwt9bC0vITbd26h0ajj5OQYD+7fx9///U/x4x//GP/lr/8aP/zhD/H+r9/Hzs42ACAI5q/+JHDrPs1SeL6HwA9Ij5VQSVNici7cuiUmxIPnOevpLJyvB1wh0jRFFEUYj8dFB5T4fGokqghym9XQnBXH7hij8RgpR/Z1u92ZDmlXXJ4bDIcjxDG5VR4fH0MphdF4DJMbhGGI8WiEo8ND7B/sIwwnAAz8gKIG/YDEqiRNEMdxKV46zyqJqtq180XBfscpgjhDuWbXoQ33m+VXEfMp5tou07afDRGL83wmm3G5tnxZbCKSlNcmz3neL/cWhWr5rbnJkecpsixGliXIshhaG/ieQpolGI+HODk5wo9+9Lf4xc//Bz768AM8eHAfR4eHGA2HyLIUSZpie/sZ9vb2cXx8jH6/X75PIe1NFwkqEgaQJCm0IimQIjvtMkv4sAcwrh/tpEJ7Xtwo4duNL957h0dHGI1IjCK7qoej4yOa9zB3sole7pGlNIcaTyY8YJDLLI2m5CstBQAODg5wcHgAAJhMJqTI8z2sra9DaSBOIkRROK3ZV+yNp8lbzLU4CIJarYjmEps+dbzptf8E0mGL4nCI5y020QiqOo37Le518yQDxe1hjIHv+Za0Q2JpIfnw97nvYW9LujOlFBGqOEfNKFeBLM1ojs7nkChPqdGpUBtGUYQ4jpBlCaByNBt1NBs1eJ7BZDzEweEednae4bPPPsHHH32IUb+PLIlxdHCAcDwCTI40iRGOaQo6GAyws7OD/f0DJHHi1CUTvNGA0VDwoJQH7fk8RSUX3jRLCx2RQO5jHHdhqV+lyLFtqn21upRo76K6Za8Rhk1zeZ7j6dOnePz4MTytUQtqiJMYSik0G014Hjk6uNcW4bAKhYY/y/PCHJcmKZIktlJnJYVLZTihgaAQtbiIIktrjdzkCMMJRsMh4iQqJBBpgEx8DqzVeKIoQs5mGbuR5mKWBq8NNjG75Twov8MA7OYs9ZXnGeKEFKP2OVWldLKRzl6+Bz2D9itNnd2eamUsJcZRaLlXkwk2ikJMxmPO1jTAYNjHSf8I/f4JRuMB+v1j7Ow8xdMnj7Cz8ww7O89w//7n+OzzT/D02RP0B8dIYmq/IPBR833y7uPwXS2eo5MQx0fHGI5GpfWpkD7MVFKYsg+QQtpwLMcUAZ+nn7Bof95zL4IbJ3wAODk5QZ6Tc45w3mariQn767fbbTZ5sPuuu4AJ38fwqrSktCGxrJxDsW9AkmI8nmAyKUua8nydXYZtGI6/H43H6Pf7mEwmyNIMgR8g8INCVLORxDFJAy9xUo7n6TTTnW6WqFGsZju7v1wBZX5RvLYdYGBMhixLkKRxUUgbTybfNIkxHg9xfHyIvb1d7OxsY29/B/v7u9g/2EO/f4LxZIiT/iHu3/8M77//K/z85z/DL3/1C/z2t7/Bgwf3MBicwPM0ut02Ou020owGE5Pn8HyvyKwrnoAJp4c7PjnBeDQq+lrKEoecR9/DnHomeefFoJi7AxR4dtXEf2OEL2KjMQbLy8tYWVkpiN/3aD4tUU5iU9fa46okyN9C8IZXwslZYyt2fnoOzZ/yPEOSiChIJcvpPBq5p0Vd+c1zsgaMRzQY+T4pGdMsZXfjUjsdx3FB9FqxtteUSzG97LDnnO7+kkABgOolTWnOrLVGrRZAKwpYETdpWYm2XI3WInSVQ2n6hcpBudHL+2dpijCcFOGsJyfH2N3dwdNnT/D06RNs7zzD/v4eDg72sbu3jd3dbR4AnmFnZxtPnz3B40cP8OTxQ+zv76HfP2apJOc+SN+QJCHiiEscI0mpjadB7yzepWINSnmQF3MdSZ5lf8vZ3FhKNXQ3m5htiacolueqbIP1VLLvqnBtdny5rYxQxpAi7eTkBKPRCL/+9a/xF3/xF9jZ3cXq2ioOj47w0YcfYjgc4bXXXsfu7i56S8uAIpOeUrroHr7vI2B/aHtAARNaLfARxzHCkOZ7k8mEFDWsSa3VA2xtbeGf/7N/jj/6oz9EmpVcnyq4DLP1tIdWu42lpWUopTAejVGvN7C0tMyaWh9JmqBWI4nA88jUYhN8MVqL0u9aarxEVZMax+0YTtvAGpxJr0K/WZZa8Qc0mGmt4HsU0KS1xwuTUAeFofUHRTfjBwE836PpWJYhikLyuVAGo9EYcRzDGBpkwkmIJE1gTE7LmiUUADMejyjePUtZtKf2tHPaBz4ldpEpQBxHCEPxySDNuJhfPU1TCd+vQSmNJE0R+JRtyfN89PsDTMIQf/ujv8P7v/4tOt0lBH4Ny6tr+MY3voHXX3+jcB33dBmeDQAmp/cpvRQzPH32FN/61rfw53/+v2FjYx0nJ8dIkri04Ut4MN9HabJmSWRgLSA/kl6vR9Ng3+O8k9ThLyMEXAvHl9HJ7oBxHGM4HOL4+BgHBwfIsow8nTS5R7ZbrcLNMY5jNBrNYh4tRF+sk8FOHrbirKg4Uazl1AGzbNb8pkT5VLFAQ6kdpu9I0gThhAYQ2Z+zElFG58D3Cwcie6SfAdHOSwP3PWVbOFZJXPaLGzTqdWgFJElMCtE0gVJAEHio1QI0GnX4nobSQJLGGA4G2NnZxv17n+Px40d4+PghHjx4gEePHuLhwwf45JOP8eGHH+DjTz7Chx9+gF/+8h/wq1/9A37zm/fxyScf4d69e7j/4B4+/fQT3L93D/sHexgM+hiPh5hMRiQhjAYYT8aI44jMdsjh+5oLEb3J6ds8rRH4AWqBj1rgo1Gv03SisNjY3Jq4ecp9KWWl8hR3Z6Uj+aDQNJNMdSTBFgrJirq2/y6K+CQU/Y3WdwzDkJLVXEEfujYHHpugkiTBeDzG4eEh9vf36QPSFA8fPkQYRfB9H61WE1Eck7kvjNBqt5CkKXnJ+f5U4gWtxcxXPY/Kc/KeiiIK8EGR8ojEWd/30Ol08NWvfQ2v3b3LXKHk9lmRVCNHFMVIs5x8AYIaDMg/gBJ7UEYVzxdpxOaM5XsJJ3Xf8yZxkWfbA4Ax02msFJtf5RytAMpWliNNY1aMkib86OgI+3u7eLb9DDu7Ozg6OsQknKDf72N7exv37t/D5/c+xz0uH330IT786AN89DER++NHj/D02TP0T44RcTLWoBbwtKt06CIOKdvkbEU8QAiLGAhx2BxJTBJBEpM+qNlsYTIhjzwJo03TDA8fPcbu7l6RdLVWb2BtbRWdbhee5xUieDEIcNyHDAi5MTAwODnpY2tzA++88xV0Oh22OMg6jVyvthKPOT59m0i01Ia+H5AlxWNl18vE8QXS2dI0Lfzzj46OoLVGp9PB2toaVldWYIxBo9FAt9tFo9Fkjt+AYhNPFYjblqJeOU+luVfGLpzC8aUTKyhknKvPdpWN49ji4kT01DCq0BzHSVQoHUlfQFp/Ufhl/A62w0UVlFNuEkKwdqk+XtatPe/MTY4oCpHlGbtD1xAEPpIkwsH+Hp48eYR79z7HZ599io8//hAffvQhPvvsU2w/e4p+/wT9fh/9fh8PHz7Er3/1a/zd3/0dfvLTn+CDD3+L/YM95HmGTqeN1ZUVrK+vY3NzA2vra+h2O0WItRCLzKuR03JqOXvrpUlMCle22uTsvaeVKsT8wA/g+X5BSGIeFslNoXSllshNMh1KwBEpGimi0zIzFvUk9UoJZYpB9JIwPHCRqZKWlX8eXAvh26MX2G5+eHiIg4MDpJyXrNFo4Hd+53ewdWsLjUYDg8EQ62traLda6HQ6GA1HFLvMI7asOacUVaQxlBCDpAcxsYmYJMRL26PhEMjpHgqAyQzqQR3tVgee9jAcDDGZjJEkEXLQnNCYHFmeAjBI4gij8QiTyRitZgMi+hJxlM+Fxd3BjSV1UPzysSmiryDG5ylu/dMj6Ji7bRdYbSeQv42l+MvyDIllMx+c9LG/u4dnT5/i888+w/379/DkyWMcHR4iTWLU6zU0mnX4gYc8Jy14t9uB1jTF63Y66PV6RWRbq9VCq91Cp9vhtGqUK8HzVFH3wiWLFFqgUFtSKpb1awyL4klCloGElkOnoLAMcRTh8PAA9XodnXYHSZyg1+nC0x5NdfK8UOKBmViaJpz9SSI6KVaARPwcpBMlzT4M+YDQlNWax1cwBnef7QiW56z3iGPESYwsvfwggusifHDHEi48Ho/x9OlTHB4eFr7OSimsrKzg1q3baDYaMMZA80q6EtWkWDnkEosyKOyoYFGrVKbMSgjK4vhg4swz6hCe9orAjpyztEiADzntJFBaIYkjDIfDgrC0pwvKFe5YRTRuY8ImeOfvm4BL6PY+GxKnYEMkoTzLEHCoaZzEODg8wNMnT/D48WMcHh5gMBggjkIYQ/Np0uPQvbTW8P0A9XodvV4PS0tL2NjYwMbGBtbX17G8vIzlpWUaADjhZcDJMabeQaQ7a+mvcrBniS0n6wpx6hij0RCDwYDNtOPClKsUWWLkmtFwhJPjE4yGI5IUrEVVtVZFQFDCUaWl+22KNKHAG2MMEb+mXivhuK6L+WkQZpJlpFOKY5JkKGCIlKKXxfnf4oIw7NgyGo2wt7eHnZ0d9Pt9eJ5HIrUxWFlZwe3bt7C5tQlwzjoZ+cHE6lupr+W+RHx6KkqqqvPacI/t7e3h408+wUcff4woioiYlcYkDDGeTLhiqeMqjrGfTCZI0qRw5qm6rw0h/CrifxE47V0vilotQBxH2Nnexi//4Rf49fu/wuPHjzAejwHQIG4TPNgaILnq6/U6lpaXsLa2hvX1dayvEdF3u100m00iEjavue0rRJ6zM1XGqdYlniJJyX9D1j4URWU4CTHo93FwcIC9vT3s7e3i4HAfJ8cyBaFBod8fYHd3F0dHx8jzHIEVu0HZo0SBVzqBFb4j7EeS8t8URZihFtBAOf0NswOwDRnsUnYXj6IIE7ZUkfVDdAQXx7Up9wyb76IowieffILDw0MAQKvVQrPZhDEiFiuEUYSdnR1orQvuO5mQApA6Dn2dxEGVncnQXpvLAtCKlHky+mZOYE2Wpjg43GOzT0hmo5DcM589e4anT56QIooHAN/zUQsogWe306GoPuZkvhW+KqYdGkRm3Y1hcXj7C64a7jPnwT1vZrviL3Da8cD3sbe/h08//Rjvv/9r7O7tAcqg1+uxxEbEryWdFd9bKWrF3BhEk5BjIihBRaHQ4gSkSrie4QLi+CTpc2y65behuN+JZ51w3iyjQSGKQoQ8RZlwROjx8QmgNMIwosJxJM+2t3H//n0opdFsteD7Puml1tctKVQVXJcUefRaou+BMcjyFEeHh/jKO2/ja+99DZ7vIYpIuSc+J0rqRampAC/xFSExv8xToTm5h+eTJHLO5p7CtXF8xR1/b28Pg8EAvu9zRtIIALlBBn4N73zlXXz9va9jY2MTk5A0/Kur63jjjbfQbDSxv7tP9+NGlV8a7XgJbQOavxtJoEFJG7TSNFgYmmsRDLIsQaNew87OU/z85z/Df//Rf8M//OIX+MmPf4xPPvoY9+/dw7OnT3B0sI/+yRHiKMRoOECeZQgnIWi4Io02dUQuOVkOCoeVKYd8KkZ++R+dV0oGZxVBFcdwzxHY5827RjmrydC5kG7JHZJKbgz6wwH29nfx6MljTMIJtEf7J2GIOKawU8AgB4nduvDfp+XJkOdo1GuFKZTm5/RQcfajQBx7zs5+BDAwWQ6V06/JSH8jPvzgwYK+h8V+lHH4SRoT4Y9GGAyGePaUgnAOD44QTkIsr6wAoJwLWZ7B8zx0ul2srq0hCHyQXoekCPL+pLk9eYqS+D8cDXEyOEGapRiH5FKc5hmgFYxib1Sp52IAkQQhotIqBxbwACCMLMsSunK2uc+FayN8sCIktIJlpEwmEwAk9imtsbKyiv/pf/p/4dbWVqEU6Xa72NjYLMR+cOMLphrVJgIeHOgkLgBdXfxtoCCdyiBLE+zt7WJvbw9ZmpInWkYr9kRRhPFoRD7+PE8k+39xV6aQshlLyP7pYkADgHSAq4JdD1XFxrxBYj6E/MgCcnB4gL39fURRyN/AZj9Fv8VCGKDciVMw8h/Vv7GIVvzfpR3dN5R5uOLvFV2N6JOMWFgyPlboAijLThF7wdImAIxGZHGKk5g0/Z4Hjx2UwA5jrRbpG2SAzDlrT8bTCtH8p5IUhIPMPM9Do9mEgUGSxqQbsr/HGtbsOsZUcFOZDIU36edC7TeNayP8nBfLENfL4XBYZBoNJ2HR8dIkwe3bt/G9730P3/nO76LVbiHNyKyyurKCO3fuTN1XOrE0gOyzf+dh3nFxuEgSajzFufWiKMJoOMTR8TGJ/Qlla3FFeFsJ9jyNUYV57zwPpnDAKZWdbv1cnOinUa/XMR6NsLe3i5OTY+q+WhXELJC2kne6zHPFa1AKrPuS+aw04Ur7lfP7cv5Nf2eUjcf2EgY4ZDdBvV7D2toKfGs+L96h4kYOoAgGo3l8GRMiHD+OY+ScGVqUmAAQx5RKXpzPhHEJ3G8sBhknglLaVM69DK6V8BNeLotKhAlHx40nlKBQzHHD4RDNZgt/9md/hn/0j/4xlpdXoLRGvV7H2vraVCMJihG+qECqCPGcs0EVSPvJNmuNrADSJEWv28NSr4c0IXNTllFEWBiGFPgxIg+xhG2o5KZZdvTzN0TF6D4H8n12Q9tFINvnPf8s4nOvo1J2Ps/T6Pf7ODw84P2lIwrZr10zJnFIe3seZF4LwGrX8nsKn4nCe876Zub+YpMv7OviichONjn719PzFNqdDrT20Gg0sLm5WeTOk99ms1X4lRhrEVUqZBoUnxEyAcp7UdBPk61UaUJWBLstTgM9i/RUSUJegG67XBbXQvjSEAcHB5wEI0EYktJkMBgWShwi+hEmkxBZlmFr6xa+/vWv4xvf+AYm4zGiKIKnPXzzG9+A73noH58gHE8wHo2godCsNwqtv8nJiYOIlhuV11iviTImN5hMJtx5QFl6MtIK90/6ZL5LEmSFTZaisvI8wyQcU660CWmtl1eWYEzJxcTJRfzWT4cTblgBt4HthnZ/5e+cg55sbp9bHfw8xb6fC+FQWpMDUxhGUEqj1WxZ1zORi17DnuJY2YvPgjGk0BJnLHHCKUy37PsvxF0QeJoil20eALI0Z0UvDepQlH8vThNqghxYX1vHndt3sbqyhjTNsbu7h8FghE6ni5XlFdbIU/+g7E7cf2QqkadcSAknkkqWUj49sVYNBoNi8HJhLL8PgcSajEajoj1pIJtvvj4PztNLLwy304joLMkKw5AIPWfCGQ5HGI3GCCch3n33q/jud7+Lf/SP/hG2trZQ54UL79y+g9dffx0bGxuoBzUcHx/j8OCA7fnTxCHeepTwUuyv5HYp76eVKvL25xwgItGB9rzQsM04TROEvFxSwf2UhJMy4Vlc8VTM0lQl7G86rQikE9j7LgP3/sJxBUoBUHYnLf82ktSSFZ1EaHLPsj6LDsx1LUWeJSa4NMsoIjLLSkLPSk+5PKfjwuXLe9JvJslZ0pR0A+zaaxTlwkuSFNrT+OrXvoY33nwDo/EYH3zwIY6Pj9Fud7C2to52pwPfryFNM8SxTCXsQad8fpbS4CLWniRN0O10sXXrFluzyO9EbPRnIU3TIpw8u8Kw72shfBceO8PQnHmEEUdb5TzvW19fQ61Ww/bODobDIX7/938f/+//4//AN77xDdRqNbTa7cLBI0kS9Ho93L17F6tra4g4R59AOqukOgoCIn7ROhtQg0uyziiKEKcpwphsozL3khE75yypcRxjUigmSyjOOAOgiMG+SjwvET8/5PkUN6+1vTYg7bN/ASJ8MsvywFG4QU8PKHlxrLoU8+DKc2gQsc8tCzljiUifSrbdnFZTimNK5a49Mov1lpbw5ttv49adO9jd28PDRw8xHI/QbDWxsroKrT0kcYw0yZAkNFjQNvsMTBXSKQQB9b0kidFo1nHn9u0iTRwF2pT5+90+Y0tgGSeLFXqR4+Y5+8U1Er7iAtLec9z6hDPhxDH5xfu+jyShkTqKIrSaTYxHI7z91lv4wz/6I/zpn/4pOSzEMXq9HjY3N9HpdhFFEY6OjhDzvMlGzlzHcJillmAO1qjammbhCHlhiiLPKArkiJHE5ARScv0QHkWlEOdgqUVg/23IlGvVxdUOCheB3VGEWNzt6f1ExLQthbj91Dw8L+fLuQQ75SR1ZcyJ7fNI007SlIjuORNnIQVIXjrOl0B1z1yWuX4hAVhp10TSkG26F51jWEsexwkmYYQ4TtFoNNFbWsY777yLer2OwWCA45MTRHGEdqeDVrsNAFbiDb4fz+tpgKNic/yUk2v6Hrn9ttudGW3+eWDYB0Hm+Rl7Ec7rbxfBxd/mPDB2R6cXo8wm5NQzGAwRhTHlJfN8NJtN5FmGWq2Gw6MjgAeL7373u/iTP/5j/It/8S/w1ttvI+AVQzudDjY3N3H3zh2sr63RyCiNLeI8F+VRfnLKnEuBGZ7nUyPmBinn0pMpyGg4ZElEI+OgiCzLMBgMMR5PyK3XI3Oj7/nMOUgxVI7EZH81hm2yGblvnjanvwhsjuCiar9wCpfghdAEcqz8JcWdsfzMNedFVIpiwuU75brDo0MaqBNyk01SIsZ5c3vq3DQIiGVFnFtyaZ9Egq5ItE6zDEmWI04yxKxJF1NaknBmHBH1LTNelhnOsQ/UGy2srm7g7a+8g3fffReTyRg//clP8JOf/ARpltECGL0laM8jF9mExPwoijmxS8QefJTbLzc5PF+jVqf1F43JMRwN0Wg0cPfuHdy5fRtplmIwGHBdVpOe3X4xBxplGfkS2O2eW9aay6D66VcKUnwppdBoNBDHMfr9AcZjmtPneY7d3V2MJxO0mk1sbm5Cex729/cxmUzw7rvv4k/++I/xz//ZP8O3vvWtIpBjY2MDyysr0J4HPyDf7xYvsVXjPPsiriul4Hse/IC1tUEAaIUoLnPvkbKKLA5RFCNNM/h+gFarxZ2YGkDuJ/PFjJWK4EYT7ifELw30PI10FXAJ3H4f2Xb3A2SPn+L2UzkMyDQl18igO5lMaArFUpOnPfgeJU8hTkg2ctGaF8+aUtiVWvmUs91Om80k9RWL3mK2E05sSQbi0pvxgOB5AZZXVnD7zl1sbd1CUKvjk08/wy9/9Svs7e+j3mhCaY3JeIKjo5MiLqFWq9H6C5xAM2EffXo2Rc3FcYTV1WXEcYTJZIxOp43X33gNSisMB4Oi/5wGkiRpGhpxHogyK5WsJj3bVhfBDRA+RXPleU6xyFGEo6PDIp9dHMdYWlpGvV5HHMc4OSG/6YBXC+n3+/CDAN//wz/EP/8//0/8yZ/8Cd544w1oTW6j77zzDlZXVxEEAQaDAZ5tbyMMQxhjChus9jS8WlBkg9Hc4ZSnkbKjjk38x0eURjnkDL3iyKEkzz/fU7PbbpoRR1O8drsLY5nYLgqbA9h/3yxIQ1/GuhPHojk6S3iWJJMkCSYTssrEcVzodBKJLrNKyhl3SJxnRRkTblYkvrBMdCLeyzYPDLJfSjK1jzh/ytOOdqeNW7du4/atW1heWcGv338fP/3p3+Peg4cYT0Ia6JMM8UwOR7qXEK+0hedR4JEMDpRzYoJ2p4U//KM/xBtvvAGlVMHtz9MPhPClL7daZFKUFYhkIL9sf7geX33WmO/v7+Po6BgHB4cIJxMorbG3t48sy7CxsUGphJpNtDttGFYCgl190zRFHEUFN19ZauPW7S20Wx20mk0sLy/D830Mh0MoAPVaDe1OG91uBwnn1UtTymculS1KO5uDFVMDcQdmjkWRWywt+DRNaDaa6HQ7+J3f+R30ej2MRiMYXvCgSK5ozcGqGkWIZnoqVJ4nncIe0U+7n6CKA8j5Mi+072Pfy76ukFC4fgzb6JWmDq61hu/7uH+fFo/MOM69BH2PTCOU0ojCiObgqSxDRcFb5eDKCjmZ8xua26cSX8/6mjzn7LacN884ijypg5xt7TI/Fmkgy3JEcQKtPdRqDfh+gEF/gB/96L/jwYOHGI8npHvi9qjVG2g0mphMSt1PHMf8bKoPAFheXkaj0USzScu63bl7G19/7z1865vfwre//W10Ox30+32Mx2MEQUB1nJMkpZQq9CAeK5ylPQac2jvPcywvL2NpaQme5yHjabF4E14G10L4SgFpkuHoiBITpmmK8YjMEaPRGCcnfXR7Xbz99tuI4xgGBrUgQMAfk8qKNhwMk2UZJpMISZJhZXkZb7z5JiXwELs1J4XIxU3Sp3xlaZoiTiI0Gs0iJbTnaVYecWe3aMWAAj/a7TZFl3kkjk4mE7SaLSyvLKPRaOCb3/wm6vV6sVKqx++prMCceXO4EkJ8wgHKF5HGn0eosu3ut6UKOWYTvX2+nCe/MxIJEz3di/PAeRoe18v9+/fw6NFDJEkCrTTN94v70XPyPCftd5YiYovIeEwm0SiOoDh9tRA4ET272rKiLpW1DFj5J9Ij+d3TYG5Y8jA8tUr5XJkqlFODnM1xOdI0x/7ePu7ff4iHDx9iNBrD0z463S7CMEKa5jAAfC9AENRo0IhCJt4aAIN2u421tXXcvXsXvV6Xt9fwzjvv4Jvf/Cb+4Pvf51wTA4RRRIQNclyT9paBxGcltLEyBR0eUqCY1hrr6+vodrtQSiFNKUe/ZKO+DK6F8MHa8v6gjyROMBqNMR6NYQwwHNFa9Z6m2HvP99Fqt0j55pPpjTgF+TmLUkMr8u3XWqPTbcPzAywtLWF1dYXt9mR2yzLKhkojMq1skxfzMXKZbDSaqNWCwiUzS0v7sQH1dGMMuWZy4hCfXTjXVtfw3tffg+/7xXfIlEJpitArOfo8TAdf2BCiPw/hV10joEGO6k5gE71L8PK84h4UO8TXlYQv96U8eA8sbzR2oJqyT9PABkP++/xjtQd7umWsfCuyGRGXz1IaCMD+/KKpp6kBtRlZCQw50xRSQTltSNIUcZIg5sUz4yRFGEboD4fY3dnDdjE1pIVRgqCGer1BugdDUZ6+X4PPClxZv85nRfNSbwmjMSWNeeutt/H9738f/+Sf/K/4znd+F2lKazZIZCp4URDpa+C6pbou3XN936cIwWfPkCQJ1tbWsLm5iSAIiulnrVZ7OQnfGGA8HiPLc0zGY0wm9MLjMWVWHQwGxXrirTaFPQqHB3dSm/AhnVlTHH671cKd2xt496vvYnNzC73eUnGPRqOBep1EuWazCYCyxYYcOdZoNoqVSI2huWvOzjpS+dQZqYMGfgDNyRq/8c1v4O2334ZiGytZC8iHW7PZcB5RA9TIhot8K/PKKSKFw9mrtgW5pbWX4y7Rg6/PmXiE4OW6KpxO+J/jwf2HlNqq8GBjgkTB0IoRRIHGgJwH1JLwmYtLkA7b3rOUsvsC5JVJRM/ifcbXcRuR2Y8lApEW2Kwmitm4SJmVcczFECcnJ5hMQjQaDQQBhQUrpeEHNdRqdbTbbdRqtO5inVdLbrfbuHvnDpZ6PSwvL6O31MM3v/lN/O//+5/jT//0f8HXvvY1hGGI/f09RFFE4cqMPCexiKwlBM2h3aSkpIEiDEPs7u5id3cXnU4Hd+/excbGBku+JGU2Go2XT9QHAAVNhJ+lSNhjL0lTDAZ9AMBwOIT2NDrtNlZW14qgCPF48mSpYMmBJgOBthbQ9KhDdboUAz4Vycea1zzPrXuQ804cxTzyGqRJTM/06HxZ9UTELWPIXJfy+d/97u9ja+sWarWAuERAkoNwN8VrAUyvoeqCjwmnZfqvItSqX/kel3BLLlI9QMh2NpW1ZlqyKGHvp1VbPfaAJMK/jwcPHpDCjOXs8p4g5x1QjkOlORkpv18iq+Fk4mZdvr+4vNr1L/N+InomdvEdyCrm+BKVl5GrbppmSBOeSmQGSpEOSSmNbqeLep2XQDc0MNbrDXg+DeiBH2BlZQV1HgCajQY63Q7W19fx9fe+ju/87rfxB3/wPbz11lvodjtc70Cz2cJgMKB+Voj3AqlnRVKu5/PS2rRWwWA4xPb2NobDEe6+dpcZW49SbuXkMl2v19FqtVGvn72IZxWujfCNAUZj8tPPDYVoSsJNYwxGoxGyLEO300W7Q555eZah3ekU6Ym05nh7a76qNXnkaa2Q5QZZblCr+VhdXcHW1i3cunULm5ubaDYb0FpjdXUNWitaAllRCqRWq12I5+12G1E4RhD4Rb6/NE2po2sa/VvNFibjCRqNBv7pn/1TrK2uwfd8KCj4PomHWU4JPD3H3OIWrh2K2Zd9Vl51l1irQFIF3asgAJ4egevLzDEbGZZobJSnseRRzFTkfRUTME2dgqCGe/fu4cGDB0iSmL6jmDKUVxlu95zDaBUvUUYiOqXuztnhJud5uyj1aApAXDtjLb4xRNBSjSbn8F/2iY/jiH3ySYeTcLgsDDAajZCmKSn0BiNEYQwYwPcDGhhYEVyv17G8soLllRV0O10EQQ2dTgfrGxtYXlqmOfxXvoI/+P4f4E/+lz/BH/7hH+LWra1i6jce03NCcUvP6d2kHqdBiuMwDJEbkHnbGDx88BBPn25jdX0Nv/Otb6PebCCMIhj2bzHGIKjV0Wy2UK/XZu56Hlwr4Q+GA8rImmao12uIwhAnJ8c0AhqDJKY0Vu1Oh2OWae7i+5yxxbB2mT9YOD5xnvJZpKjTxQDwxhtv4r33vo7XX38dWZYXefxqtRoajQZef/11NBtNkhw4dlwpsssrpVCv1YmTcyKGKIqgtcbyygr+8T/+x1hbXeNByKMpg9KFJngewQmU1fyGuSLMbDIOF/Y+EePtwaQcVGYlBHu/TfTTz7KvL/7k7VLHQqYrH/fufY779x8gieMpro1icOEJPQ8KOa92JMFUKSeypEApy1svL8145NXHwShTg2eZW4GqjqQKGMCAFH0JL3sVRwmGwxGGw1GRZWcyCTEaiQYfWF1dRb1ep5RfjQZWV9dw9+5d3L59B+12G57nYXV1Be+99x5+/3vfw//6T/60MCNnWYZGzSdJj0X4KCJdk1gTindUotuhl9faA6AQxRE8z0fCJuVHjx7DANja2sL65kZh2hYYQ6nPms0W6rXaTHudB9dK+MMhKfKSJCmUY5Q7nxbTEAkgCAJS9Hm0Mk3g++Tma3VOzWmtZN5PSQwJokGnTq3ZdJNheXkZm5ubWF1dQY8X62g2mwgnIXxeYntpqYfVlWU0GnWY3BQil3AeIfrV1VW89eZb+LM/+zM0WJqglFKkzJO0W8ZwBphTYLW9JfWX8/Npgpw1x/m+XxCBy8Ht6+y/Zdsm0HlwryPfBXKC8jwP9VoNn376Ke7fv1/Y4vNifl3al2nsZoWpvG/h18Fuuxbxm5zn56zhL79x6nUKwjc8NSAHHTLbpRmlXBPzGy2gmjHRhwAUO+hQjv5Ws4XRiPzyKZ33JjY2Nwqd1MbGOr797e/gm9/4Jr73ve/hvffew9raGjqdDho1H37gw3CsvazjEEWU+VnewW2TnF2b/SBAFEY4Pj4CoNDvn+DRo8eYTCZYXV3Bm2++hfW1dWQZSTlSwDkRKDfhS0z4BrTEkc9ETYqdDJNwgnBCq4MsLS/DGINmq1WI2drzAGMKYvc0LTBA2vqS5ZcVS9yABgZaXKHRbGJzcwvLyySmdbtdvPbaa1hdW8XSErn/elqh26FIrDt37mBtdR3NJmUDbtQpouru3bt496tfxT/9sz9DkqTQhbmR5vSU+4wa9bTQXHnToq2E8C2urXigk79tKB78bMKXQcEl7KprL0P45KNAplDteag36vjoo4/x2eefIY5Kjm+X3Ep/JQyaBgAW9e1zM/rN2Fxna73BfUkg3yDnA4YkyzDEJJwgjqhvJUlGcRYZpXijlG9Ap9PF1uYtNBoNdDtdrKyu4u7d13Dn9h1sbGxgbXUNnufjzt27+O53v4vvfe97+Pa3v41vfuubePPNN9HttlDnrL8JPycMQ0wmY4xGI4zHtOR7ltESYHmWwfNZ0Spu3IbXXgCt2bC7u4skSfDs2TZ2d3dx69YtvPvuu3j99dehWIlswxjz3IR/bWvn5RnwbPsZ+v1+YfYCyJz39OkzPHr0CI8ePcJgMMAkjLC6toavfvWrePONN7DKBNpsNlHjrCdBEJBEUCRnDGZs5SIFGANSKiYxeXHFJPaNx+RKOhqNYPIch0dH2N5+huGgX9iZjclxfHyMwWCAw8MjDIcDZFmO119/HX/+53+O73zn2xiPJ2XUHw9GQqh5noM0E/PB2akAGao0ZekTiGum5uXEXWL2WAtsK+lcuPN4gZw7TVjTHcsmfDJR0sAbBOTu3Ov18P/8h/+AH/7VDzAejQDnegKROg2GpbMKhfPScWk/+/XpvahQKHVpgfD9AFmW4ejoGOPxGKPRmKYafAM/8KG1D5Mr5Dmvl8ehsa1WG1maY219Aw2e5gFkwuu0u1heXka73UaXk4W++dZb+OY3v1m4iAOw+hs9T7bFS3HCS63lbA2K4gh5Ris3gaNC8zyD5pz9cRzj8PAIR0dHOD4+wt7eHg4ODvEnf/LH+M53fhcrK8sYDsnr0YZSCp1Om2z7nfYZva0a10j4Bs+2t3FycoKI01f7HilAjo6PcHhwiM8+/wz9fh/HJ31Mwgjra2t496tfxRtvvIGlpaWC+EURF7Ctv1YnTzrSppeYR/hHhxT4I/B8H3mWYTweYzgc4uhgH0dHRxgMKIZgzzLBAEC328XX3nsPv//7v480SXBweFCY+LT2oHS5jpFiwj4N3O+LDaXmEz5YCy8QjifE4DafELy7XzBL+EJoJaoI3w98XtWY/Cf+6j//FX7wgx9gd3fHDkPkizB1X/HsU1w5NAWQ95T1BmmfMQbNJq2zQNMA8geJ44QVfKZI7hInMcVMWESolIbWAXyPPD79IMDm5gZ+7/d+D1r7GA7HUFrj6OgYURSh1WphY3MLX3n7HXz1a19Fu9XCeDJBu9PBygpNEZvNcp0HG+chfInpMMbQFDTNyD09iTEZT7C3t4fd3V08efIE2tNYWV7GH/zB93H37l0EAdFL7Kyco5RGly0LvQ5FEF4U10f4eY5nz4jwY16/LggCwIo6+vjjj/HgwUMMOdlhFBHnf+9rX8Ot27cL4hePpVqtxpzHQ71O5hVYDSLtMp/wDefE18iZmGq1Ghr1Oo6PjnBycoK9vT2Mx2M2l5CdtNaoY211DUtLS/j83uc0ihfze7JvW3R8JuG7cDuUz8lDPMcvG0ywNuFXiYH2rwv7OD23JNCyHqcJ3/doLiuEv7K6gr//6U/xw7/6IX77298WTjyEckBRmu6llaI19rSe4vik3ILUWjFAkDWIEp0mSYLBcEi6BE6wIhF6YiIb9AfodXs8levh9dfeRL3eIKVxg3673R6Ojo5hjIHWPjY2NvDWW29hdXUNGbsWy6Aa1Gpot2UR1w7q9fpUjIJA6klW860ifDI3ki4iZS9WYygT1MnJCbafkVR8cnyCt99+G7/7u9/B7dt3EAQ+WwZo2mBDs/Pb+voaum1atfeieI45vt3VZ0EjM2v1s4wqlivLZw+4LMtweHgIrTU8nwaF0WgEcGcJeFFKCU6gRqNAkSAIQAsmman5vjyb7LhkC/Z5meYkicmMyGv5KaXQ6XSw1O2RjbbZYKVfD6urq1hdXcPS8hLu3LkLsMh4eHhUZPURbi0doCSqWWI+DbbyTllutuD6colYCN6dBsix826772g/096n7aAkz0Oz2US/f4LHT57gyZMniDmfARXOrmvYTGn1EIlJp2+ifaVWnyPt0hTHRycYDoY4Punj6JgYR8LOPmlK5j/yEKS7d9pddFl5W6830Wp3EPikuGu2Wnjr7a9gc3MT3V4PW1u38Pprr+N3fufbuHv3LgwMlpYox2OcxBhPJqjX6/A8H40G/YpkKcQvkL9FmSwOQrllxRC9BQULUeDQ0dEhjo6Pscec/uTkBK+99hr+6A//CO+99x4ajQbCkCLzqK5c86vY8Vuo14huLopLcvySS0w3bQni+DLHj6kDcUV5Pq0lHycxnj59hgcPH+HevXvQnofRcIiDw0MsLy/jK1/5Cr7y9ttFCG6j0UDg02hNih1AK4r1t2E4SSFlWi1z540nY7Lz5pSUURpsqUvzuF6vV0SAwf5CrTAajXAy6CNJUjQaDTY1sWtxMcWgDl+KtnMIi2/sHhcOrxzNvjvHM657bQXcY/O3hQOXcDu375ccP6gF2Nhcx/bONv76v/w1/vqv/xqHBwfI0oy8G9k2r5SibLU+ZayFDAYAkFNKqSSJkSTk1DWZTDAcDjGZTEjhyuHT4mEZxTGimMTewK8hS3lxzVVaiafGS1TVghpMRllubt2+ja9+9WtYXV3Drdu3cffuXXg+SWpRRMu2h2EIrT1eOzFFvV5Ht9tFvU5r0tfrdeb4ZMZ02wws6pOCL+SlwyNknOFHKYX9gwPELAEMh0OMhiMcHx/h2VOij62tLXz/+3+A9977OjqdDq85SFxe9Dw2tKZ8EOvr6+i0aBpyUVyC8G2iF7habBJFnz3bLpR7ZYVxMgefVixNswx7+wf48KOP8OjRIywtLWEymeDhgweo1+t455138LX33sOtW7ewsryMRrOJTrtdKNbIvjzdGIYTNQrhZxmtojLh3PgZO1UI4WdphlazSZpeVuRAvlRRaHDEkYLNZpPFTOJQgGGHo1L8dglXUAwIcnOGnCeSSzFAWC62djNdpMnk3PnXzLbnWYR/+9Yd5Mjw83/4Of7t//ff4sH9+4jCEAkvjdZqN3mqVS7zlKVkGk3iBKPhmL3r2AU3pzYit9oM7Ra1r4RRNxrkYh3UarSKDZu1agHlS2g2m9jauoW33noTt7Zu4c7tO+j1ltDpdul8pRHHCcIoQspJVYqpRJygVgsKou902mg0aAkvmeqR9YZ0TNSu9HyBS/jj8YQcj5hgDw4PEEYRhhyReHhwgA9++1t4no+vf/09/N7v/h7efOstBGziTpOETdc00BhHl/MSEz511mfb2+ifkGKmhLKI34PvB0jYrfE3v/kNnj19imfb20Wn11rjtddew2uvvVbET4tDTr1eR+D7hcuroIrwJ+GE7KsJmXhcwlccT95sNYuOL4QfhiEUOxo1m02kCTmXkEcW6Q3IG40IVJ9B+DNgu79N8HBG+5eJ8Nc21jCejLG7s4uf/ezv8Z//6j/j6bOnGA1HiOMItVpQ+MlnWQqIPiKnJWJMTiZC4YiepkVIa7UatXtmAKXh18id1SiyW7c7bdTrDWxtbmJjfQNbt7bQ7fTQarbQbsmcvI3l3hLanQ7SLMPxyQlarS6tiRhSnEgYktJNPAZPjo6Y6DvsBktcXgifohIlx/4s4Y/H04Q/GpGyL0pihFGEk/4JBsMh+oM+9vf38fTJU8AA7371Xbz91lt484030ev1Co/V/vEJtKfJO7TCTOv7HjqdLtbW1tBuXs5X/4oI3+3QzPG3n6HfHxDhF5cQ4QtR1+sNbGxuIQxD9Pt9/PJXv8Kzp08RRRH6/T5G4zE8rbG5uYnXXnsNt27fxlfefhutdhudTod9laffR5xviLCJSMeTMbt0UtLFLM0oXVOS0jJMLE0ZnqsaQ84mRgGdbrec4/p+0UC5ZOTRdJ3YsxUTzFmEn/O5rsOPOwDgVMKdhnueuz2L2fY8i/DrzQbPfz18/PHH+Pf/4d/j5z//OQ4PDjAaj3B4cECJTv0Avu8hnITk497poF6rI8/Jr6POGZQnYYhWi6StZrOFjY1NFvXJZNrpdul+tRo838M7b38Fd+7cwcrKCrTSaLfaRR80OQ28URRRUpfhkFbVAXlo5ibH0eFx4aWplcbJ8TG6PKgLt59H+J6noGm2UhC/S/jD4QjjyRjjyQSDIZmFTwZ97O3v4+joEFppfOtb38I3vv51bG5uwdMaMWvv8zwncy+v2uyarAEgYOez1VeR8NOEEhK2Wm34QQ1xkuDNN9/E9vY2Pv3kE/zyV79CrVbD8dER9g8O0Gg0sLqygjfefBMb6+t44803cfvWLfS6TWQGsnZiEeFFmVNoLfThcAAoVsKwVpU8vCizSp6WojRxAvrb8z1AadQadc6nj2JK4CpcBIbXzjMVrrvuNqTm5hC+oOpeNqqa0N1XdQ/anm3PKcKfsuMHNAAEAVrtFmq1GqIoxI9//GP89Kc/xa9//Ss8296GVor0MsvL8Hj9hFaziV6vh0ajicCnBUhFY00MoI5Wi4iucJm9cwdKKfSWl4gYmw148JEbakMabCkQKJfcfJxyK4lJf2AUcHR8jJSj8mSwTzNe0ppj2wM/YDGfkm/QL0mVvk9LatmEDwAZh+3GcUJm6eMjDIcjyrSjFUbjEZ4+fYad3V3cu38PcRzj7a98BW+/+Rbu3LmNjY0NtNsdGJYSt3e2aUCs1QBO9KGUsnRC9OQgIMJfWVlFu/1CRX23UxLh7+7u4uj4eIrwjaEPyLKMPrJBkVAyH1pZXka/38fu7i4ePnqE4+Nj7O7uck57SkO0ubmJ977+dbzzzju4fesWVteW4SlqCGNAKZKSBElKhD8a0br2EuMtv0UnSCjnOkAiqFIcAehRWm4R9wGg0aiTmyYTvmJ33RKG7NoVBOxu4wKEb+O048UAVtGs7nVVhO8SvezTSnISBPBr5E9Rr9fRaDawu7uDR48e4oMPPsDnn1MHB4BOp4211TW0W2006nU0W03UgjoH+hDH9zwPd+7cged7qAU1ax5N4n+aZmi2mqTTUR4H/VDEnWGJyeRs4uNUXDFHg+YZLeAxGA6J8GVtO8nN5xB+u03prWTlnNMIP2eHHHLKyQsHnH6/j5OTE4zHExydHGN7exsPHz5EludYWV3BO++8g+//wR+g2+nyKs0h1tfWEccx9g/2YXKDbqcDGKp/XvZ1qm1qtRpx/JVVtF4ewueR2Bjs7+/j8OgI4aRU7lFATWkbNgY0nwsCjEcj3L5zB3meI/B93Lt/H0eHh3j06BGOjo8Lj7o0SfDW22/j7bfewtatW3j99dexvr5ezIm11pyEoSR8OwpsMh5PcfwsSQtRnzoczS09n4JwDIAoJs26PbVQhamrtCpoBYq8q4DUwRRx4XyEP59jX57wCdSeQmxwCB48GMq2cHw/COB75E/R6ywhzsgu/fDRIzQbjUJZ1uv1oEFmwIA16jbhl6Ks/b4KAEkDRqZE7N1oOOy2UHgaIE/JdCau4JQaXRJv8oBwRYQvTmL0PNJhjEbk9LW9/QwHB4fY29vDyckJBqMhxhPy8lxbX8dbb79N6eFbLXQ7lIRGK4UszzAajqC1RhRFBcdXmri9ayWSel1ZXkGzdTlR/xJ2/KrOo3m/mmrAyYTcYNOUzDtA6YwSBOTnLqGTMo+MYwqKabZa6HW7aDQbSFMyobVbLbQ7beQmR79/wgtxDnF0eASlAAWFOIlZFDcc6EHOFEI8hlN8C4cg+7HYXMvkG+JokfMyyRR2y3nRcvI3twnP5DmJgAokdhh6Hxsl4Zf1pTj1ln2mfVzq1FjXT593fhTv6x4AKayUJvfj4t0UP1+eS5VMb80+DFBAmsWIohjNZgsryytYWlrG3bt3sbm2hXqzjnaLgqPqjSZqbCbzPB95TmbX3FBEXsLRaeLiyu7+5JBVOCyJlx+9t2FxO8so5ZbJZcEKyqFPuRNRDPwmp1DZlPPc5ZzxRms9lZXJ56QuckwXuSGovURpnKZZkTTjyZMn2NnZwYMHD7C7R1Kq1hrvvvMu3mDmFAQBWo1mcd80JcaUpinrQAJkaVr0Dqr28lexg1eD65FMpRfHJTi+wB2hy/1C3KUnXLn6jDzO9yjQITc0otfrvLBgmqJWI5Gv2WwW8fE7Ozt4cP8BBsMBudkeHeHBgwcYDobo9Xq4dfsWvvGNb+Dtt7+CbrdTNFqaJqjX60g482vIKbRtrX5iaenJi4vj6vmdl1dWkKYpFDsO5Rnn9rOW5RJuKKOzMbOORS7hCty9NkG7ASt0fPoK0iucD8I1DSsbc167XnGsPfj+xpIw5FfOkyg936fEHIUUwMEoUmxJASAOlqUZMOXhW/oRlM/jwYddXY2VoIMuIbKgQZ2XzUo5F3+Wc2xGTFYclhqyrMyYOxgMiymF5E/wPB+tFs3tO50uapwx1/c9rKyssm2eckE2Gk0Mh0P0+308ffoE29s72NnZwWeffYbd3R2MRmPcuXMHX//G19FstrC+sYbe0jLW1lbR7XQRhvRe0geTOKKAskYDMLSIq92edntrdmjrdSm+oNFqWmeeH89B+PMhhC9z9fGYFGMCIQrNxKWUhircN0sPKc+jeWSHNa5ZluLZs2384he/4HkUrVt/yC65SiksLS3h9u3buHXrFu7cuYNms4nxeCRP5g5NHdIW1YjjULIHEkdL4lteXqJwU+70KHQB0jEp2ipgN14wMZYuqQSXYOfBPk86/rzjpEi8GOFLSiuly/UBhAjk3tOET9+kPQ6NFuJnwleaEpz6fsDpuaq/WymOUKPl9Kzj5eBJv3w9E37O4n1ZD+L7TlKCiP15ngFGIY4odXcYh4XkRu0rC4rSVEEGfK1pyiKE73k+2u0WWi1S9sm0JIoiHBwcUGDXcITt7We4f/8BfvOb3yDLUrRabWzd2sLGOrkDi9JyeXUF7XYbnW4Xge9jMCSFdxRFgMnJnCk+HJh1+XYJv9lootvtYHl55dKEfwlR/3RI4yilkCQJxrzq7VRndezc9Otu071STpMcBEGR/2x5eRmtVgue57O4RXP1yWSChP3G4zguUhqTo03pGed5lIDT7gDkcZYzB5o2xdVqPI9SJPZWvb8MZOWAYbgZZ2HfuwpnHRcoFv1QpAE5HyxmW/yS9l44dPmrWMkmgwP5KJCPgdakCEUxmNA355JRR5yPOBkmOAuuAiXNUDRvmGn3YvDk+xpD1wqMoUGbpmQ24dMgKOK/JPuga8ijUAZSOl8crsgrT0R8SpfdQK1GwWEnJye4d/8eHty/j35/gIcPH+H+/fv48MMPsL29jXq9jna7g42NdaytraPX67G5cRnLK8vkiej7yDhnXszhujm7oNttV7bp9D7778APWBfRhH/zon41pFKVIjfX7e3tYiEBgfxtc3yD6Rh7Ol4Sl+EY5JWVVSilMB6PMBgMsbtLYhYpV3ZwcLCPPDc8XSD33larTY2wvFSYakTEF+28cBDh+Moi7E6HcqmBl90mzlhyfDlXRF+qA7qPDbeDz8NZor5AOglx/OpzXAgxudCeLI1V1rf8LS7RSmkKtlFgjs/JUTneXnMY7LRyUOpRBhYFjbL+KGiHBg2tZWEOVuRx2i6pT6oHWeWYpmnkOk37+cVZhE4RxmGhOxCOn2YpRsNRoayTb3VF/YyzNcdxgqfsV3J8fIyjI1I27+/vw/N8bG5uYn19nbLlsOtwt9tBs9nC1hb5pxg2JdN0odR3gb+U2pHbxArZFtj+H4o5fo+TfdY5cvCiuHLCh9VpJpMJnjx5guFwOHVcPlwIn11eSnGnOE6/KZveOu0O1tYoTZJkejHGYG9vD0+fPsHjx485tJaWFT48PMBgMMDW1i10Om2srKxgaWkJcZyg2aQRU+6heYUcwyKjTfztdqsQX12PKunkYL1FFeyGrtp2m3p6wCg7/ex1dCXtrW5GMVNKMxuUi9649/OdMGc57jOBUAckF2VP01RMpAF5Og0OZfuWIMlBs1a/IHwYaIVp+daQJOASPQ1YZLMn996Evt7Q/cUhKssMZH27JE3geZpctjl8NkkpPDZJE5hccj1Qm0qfo/z/IYbDIYbDAUajMQ4PD3B4SOHbm5ubePPNNyj4h+M8lpaWsLGxgWazVfQPAHj67Gn5bTwVtuteGc7BKNv8K3tswqc5vkP4dtPPdpFKXCvhh2GIx48fn5Pw3Y5CWmZYnVfmYcRVSzt6rRbQaj1hiDCc4NGjR3jy5Cn6/T6CwMfu7i6fq9Bud9BqNdHpdLG8vFTMS332MqNOWc7dwfH4HhO1eHHZhF929Om5rcAlMHfbJl9UHDeGbdYz17lXzuIihO/WvxBB3UnhLHPSor6Y8It2nVMf5KIrkkVJ+K5xwn5nm+iLb8hJ1BfCl0g9OSfPKIVaHEdIE1rCi78chp27xJSbpAmSWBJ0krXG83wcHh7g4OAQkwmFjA+HtGqSEFyH4/W73S6+/vX3UOeIPpnrC/I8w/HxcbENR+JyiZ720a+0k1bsxMPTopeW8AVhGOLJkycYDAZT+2cJn6CdpYSVYo2rJsWRslYJ1ZpSQQnhJklazOF3d3ext7eHCTv97O/v4/j4qGgAqjxKvtlqtdHptNFsttBut4oBQCnSchtj0Om0TyV8d27swiUwuZa3uEPPEr4QUG5I91AFBWDKcdzBZQhfCF6Ou4SvFC13Ziv37POrCJ+sBiTqX4TwwcRzKuEX59G8PUkkIIi4u63czU0+RfRZmmFvb79QtsVxjIODfYzHEzazZVhfp3Rcq6srWF9fx+uvv44GB3Q12NOPskLRijuTyYSsRLw4iDtdmyJ8mFllHm9PET63nXqZRX3BqYTPyyeZokuTKOieZ4yB75HDCACKruN0Rp7nF4QYcVLMbrcLY2hVnaOjQ3z22edQSmEyGWM8nuD4mBbEHI2GGAwG8H1KJbW0tISVleXCeYOUiTTYnMXxa0FtqmFhdVpUEBhdW34rKaDKcwoCnEP4Qpi5ZJ/h/e47oIKIzFmEX6Fsk4Qnsk8rmfJ4lBTVOb9K1LfTk1EaNlunwz2Av8t9Z5fw84yz2Uj4NCv25G9aA69cylopym03ZlGfHHjYkSfNsL29w5l3KUx3b2+PdQDkyPX222/j1q1buHVrC/V6vUgQs7Kyim63i93dHRj2McjzvJBw6XskTLtsG7ed5hG+NKzdToo5vizo8WoRvssY2W5rz5cxRQCsMfc0xymzhpk5imhrRUyX4vFAEscJhsMhjo+PMRwO8dlnn2EymaDf72MyGUMpysyb5znq9To2NjawsrKCra1NTmhI6bYlB2AUUTpk2u+zU8l0NRqro7qEIZKM/LrXCjec7jCi9SlFfmNY2y1EXdGULhEZzBK+/NqZhIxjBZHzFIv6Hi93bQ/WZQelu4iijwY5tnwoVbSf+/wqUP2Qcw74XFMo8HiOb3nSyYBAhE8ZgH3fx8nJMfYP9nFycoLjoyN2650gSVL0+wOcnPRxdHRYaOjfffddvPbaa2i1mmUmqF4Pvuej2+3MvKMQvTiF0TRR6l6mpcUF1tVWgxRfw8RfZhEH+G5aKXJu6/XQ6/bQvKQ57wUSvjxWFSPBLOGLzZw7pu+T3VnRMlXSCWBVbjlXKz+r02kXYmCeUwc5Pj5iwp/g8ePHOD4+wWDQLxY4qNfrqNUCtFq0EGKr1Sr0C+La2Wq1pwYY0T0I4drvB6uDF3bqShBhACCll9X0Um8iLRQdik+pasqyfspjZuqu5XtpcYvl/eKKXE5lZEAlO754n7n3kSdQkElp8tPam1ZUOcq/qgFA3jvlFXPFmiDr4okGX7wtk4ScdGSgH42GGE/GGA2HODo+xpDn61FE69dHUQxjUCT0WFpaQo9XcV5fX+fFKikxSBAEhRXBrk/pV9LHZLCarmlDDWXgEH6pnCz/nxX35QqlFZpNJvxeD81Go7LezsLLQfjOHFFQEn7Zcei8+YRvWNQTSKMolhAUi+4Zr78mJhrR1o5GQ2RZjvF4hNGIcu8BKEw9kulFKl5r0lKL4lGeI2Ki/Y424Wub41kEIIoqYwxzCK6nKc/ZclBxO4oLeTZNF3ifdKaKpjd8f6NEJLffW3QalOlXCL94h7mEzwNGhbKPTleYR/iCnNNXeVojy3NS5E5CcuA6OpwKuhpPxrw23jFluzk5RhiGGA3Jd16mLvK8bqeHzc0t3L17F+12C5ubm0U/abc7CIKgmKeLdCdSJr2bWB8sPcQU4TPRS1uWTcEov5vasYzIswnf8DSsxYTfZcK3B9Pz4iUgfECWxXEbXpRBWmnkRjLdiNKtmvClYezPytlPO+P0xiKmizdgrVbDaDTCZEJZT7Ms40GAlvkSTnFyclJob0UCqBex27QAKDlW0CKM4vIp+gGb8EkMFgWX8y25EKXVWSoIX5xTfF1yVRfGSeTB/apQMJX1Vx5XqvRZwNR7a3Le8Uij78laByCcTfjT71gEN52D8A1HV6YJhcD2+30MRyMcHR7i2fZ26f6apjg5oYhQCs0l5V4cUyRcHMfY2rqFbreDlVVyod3c3EKr1UKn00Wr1YTv0wIvQeAX0oT9HlJER2WjkvCVJQFUxXBM3YTiN+TGVYQ/Jep/UQjfbnz6WwqJ/KXoWHI9W2tKnn7EzTHVUOWAIIODZpfK9XVatNPzPVb+pJRj7+QEYRhSYoXxmJWCY+zu7ha+2/V6nSwOrN2XQYWmCkT8nU4brVYb3W4HnXYXTfY6lPcDD3IBL9slkg3NbcX7zLAUQVJLzEkbMl4DniwfvJCIFS1YzvGpPnJxgeUBoRwASjak+Bky9RLphOqduF2rTUkqspSWufY8qkvf86AUieaU9CRnC4CPGmdJpvk4OdWYnPwEAp+y7wBAnNBqyv1+H2FIWZMiTqwRc8qs4WiEk2Nqn8GAwq6lDHh9RhG7640aOu02lldW0Gm3OQCsh263g1a7jaWlFc6zQPNlCu+1zX2Uu1/zAOt70xLb1HpuBYjoqd8x0avyR+BKajQofIkIv4roRRGU8woktE98wZ+f8A1H2AUBZZYRMV6enRtDc8CcFvkcjcYYjylvmhThCNLR5BtyXnMvz/PCG6zXo5V72i1K2SyKw3q9TjnleP0AmQpoXjFIsVcgxQKQVJOm/EzOHqQ5lZnmXAdSH9L5KRiHPSU1O7tMSRlcX9IEShfWAwF9GwXMtFuk5zCGHHC0IgKmNuN00klSWD0kiAcSx86a9cyKnx/xEupZSvn3hqMhJrwISsyx6+GEMjWdnBzj5OSEI+5IASmECaAI8Go2G+h2O2g0aeWcZqtJInyrhWaTUlO32hT/Tu/Godrch6TPyPfrwm35YoQvUy3FA6lACN/acyHCbzWbjvxwPrxwwleKEl1UKYk8T8NQmjbgCji+bLvzNBoASHkYcJLHdquNRrOBmLO6SmcYDkfQnsaIlwcTRZFk8pV9NFDQOXlOTiESiqyURuAHaHJqJ+GUxPns/bVCmeVpDT8Q/wKpH44GNDR/9q0ssMZyJZbiebyE9ymEnxuD3B6U+V7WFrI8Q6dNuekAkC0a5ZJWhv3iE453JwLn6DmOpEtSMqVlWYZwQnV2fHyE4YjqU5JzSgH3C6kLUaQaQ4tU+n6ARrOBwA8Khdzy8gq7z1L4aqPRRBD4WFpaKr4mSVKEYTQVwmsc5Z1i6YfquiRcGUgtpbyFixM+PVPclum5VYTfaDSxtLyEpaUltDiq9aJ4gYTPf3OlGkt5JyDCN0z49khbTg1KwhbClxj70sZrHyfCLzki/dLfIq5TZlZyDc1zirKr1+totdtIkwR+EMDkBr7vIQxDJLxIoygEJxPmUjFHifHaasPhCKPhqAgLLp9fivpBjZblbjZbaLVpFSHqQCTq+5z5RqYRvufxopalss1VXtm/ZkbULwdEiDK0cI+lKYAxlOJKYIv6xtD6BWlCK9tQHkLOJc+ishBvHMdIE1pTrjB7cfumSYLRmJbEkmfnWU5utcYg8H00OaMucew2vUON4i7qbIZrNsnaQlJWB41GHeCEqGJ+HA6Hhb4nTTPW7M+SgeuYpT3WZ/CpWub4jtmtREn4wnjAA4bAFvXlHSTxq9AFKgh/eYkIv9l4CdHx9dkAADVvSURBVAk/iiI8efIE/X5/ar9Ssw48ZO+1RkLL51vE/bIhSo4mRF12FkqFlPLqI/boLefS+WVDuAj8gL26yGeAkh0Qx1QcyaU4bNiGvE/MyyNJ/H8cU4IJ+pvmqDQYTDCZhIijmLLAjseFIqmIB9A0KIioLwOESBCKfRxolRtKRgnutHVWRNrIeYGHgFNTk8a6TEzh1mdRZ5aS0PB8VwalJKUBzibaLE0LQk6zlPzrE0rJpTkmIo5jZCnFRQQc01+r0Xy82WqhFtRQqwW81l052NeCUodCBE+E3mzSwFCr1WEM+etnvEbdhHMmBrWABjde7MLwdEnuDaJjek+LyYAJH1ZmHFjEOA/FwGnrUPiero8F5NmyyQNK8V4cRt1oNrC0tIzVlZVC6rooXhzhSwewvtN1BiHCp5LnpCWmY1ShSlFaa7ujSqOKwwd1Wqngcs6WWwtfyLUCT+viehtFA5syDJemHiJKkwiq2Z3YNudJCGkcU0KQUoyNEU4iTEJafkkUYoa5cp5lSFLSTmecq50kERKlZSAxRrTo5QCqNa1nb4P8HErLhsd57XLOMFTUj8XhbeScoUhrVbhLg8V/GmSFiGiwEmgeiIS4JcsuKVXLAU1rmgbJnFx8JrT2Cl9/UYDSAEi/8s1U15JanaQNceKBMsW0QaRHeleuL8+bEr2pfek8+duGkI6734a0ozFi0mPCZ72VnGPDNeXZ72mMQaPRwPLyMla+iISPQtQS4pepAF1xGcKn7WmFDSoIXytVZOIxxpRptJViM+K0COg2jOLlv4iwaG15gSjmEk4CQYou0nLTtIK08sZQJ41jFpFTWeedIsYiDvEUDbQMCPJdOfuKu81b6jWmPQDFFl11nDo/dXw5p/RVoMFFa1W479rfT1p+Wvew3SGlZi0gTt3pkJ5AlIIyxVJs+rOPCWhgJXOu1FmWpchzex1BxfoDGiw9Xg4L4LRrLA3a34dLEP55QPV1PsKX30L8d/xbpP4bjQZWVlawurrKUtfFsSD8gvDtc6b/FoKi97Z1DPR8GzbBiJgtkoDns91b5oxTc0jWGBduxjHGozGGoyHCcMLE5MOw9ABrEdIkoVRTcRwXhJum5LYqnVxgmMgzjmW3NdfGUHIS2SapptSrSOcPgoD1DcTxPZ9MXGSuK914hWAVK+Uoiy5NSQJbR+H7U8rNIPCRG4OEdSQJmwzpXlR/pVuurNZD7+V5lMCVLC1lkAxNZdgkylM1aWe7vW3CtwlOfstvKvMOnAaqbxmAmbBF1H8Owl9dXcXKysqrSfi0gULb51YkEQaZ8KTzgXO0lZU1TfjGmEKDLB3YhnBv2V8SfXmecfQHpnCoKYnUhf2cmWfywFMS0fTcUSDHCk/FqYGwjEWwxffiu9ldVCwaOa/t51owbNjivBuR50I4vBu+TNMLStYh9nrfo+Nw2seeWtmDgktE9pQhy/OpAYAGcVW0geFBTnP6bzlG98gAnhamaQKlSX8j9erWBzBN+Jp1EVInWpfOStIngXlafQLV/bTkVVw3h/Dd8+xfw4Qv7sW2JecieAUIXyq5rOirIvxSoz2dGEFQXi8dyTCXl85XjZlnsmJMvuc02O9Rfi9dN53Msox2s59n14tsG+byLuzrys5d/V2arR2+R+L99CBWWkTAhE11VQ6eAiFqMe3ZEMnMHQRE0ZqzxUHbsQ4G0omK58nfMqDT/YhhnAZbaaemJDK60PO8gj8oa/+LIPyNjY3CZVyCqC6CV4jwpTFL7Sa4gxtDHYK2KXJrHuEb9t2XrK1T71IBukfZKWHFf8+De9y1IBQNXXAvFL/u+5SdYjr4Rwiv6poqaaIK9jRFrnHvJfA494HmhJvTXBsATOExKA5Nako0pl/Dg7RMyWSfjfK7yqkc+QgwjLLqTaYU9ntb71Vo3a+I8IGS+OcMkjbMNRB+q9UqCD/P80uJ+68I4U+Lx/Z5ZJaRMEiu6Iw6inQaG4bnyDaXl45snzP9dznQuMer4B4XDghMi7Fyb7vTuoRnLI5tc2OqD+kQ1UTrbtswjgMPKs53n+f7tKDEtPRQKq08Fo3B30z6jFKUtzu8q3eZh+L7p+rUNpyXDk0AvU5B+AWnl+NGTpiC1F8xSPF+l/BtV2hVUV9VoLZbED7gVpjCDOHLcREdBTJvtJHnGXLLQYI4CUkAVYRPC2oSp9FKzyS5qGqEqXtYHWse7PNF8iiOFZlgS2VhyaFEdC8JwX4fu8MQQRFRiTRA95iVSKo6qOH6sbfd89wBRcyFs+cbTBMYQQhFiaur4xAjcAnffX93m1A+y71feUyuo196v9mMxPZ3KljzfMt3AKcQvv3dVf1nZkpzru+bbTdpW5vwYUsiF4BbYy81qINQJwMHi9hEL51Z9rkValjJJXBFcIHcR4r9zJlecybouuJehUmHOWFBwDxXVtQRy2IfFzGf9ouCrfytPn8eZglmficEKwOrTIQCqrey5FnGpZzTU5HsuFLsY9VtMgurTWa4uL2v/JU+YXKWOPg0k+cw+dlrE7h3rXryq4LZln8pwVWsDMiTnDuPw62BWT9rGzQo0L1IrKO/q84XwquEYvF2XrG6BU1ThKCZ4IusNHw7zUJPYccp38flutcFuf+859DA4ojVc1AOOjx4OdfMDBCOKC/7Lwaaw8+W2YHQnnaARfrzKF4FrzLBC87/tS8cJTGZXIIepjsLKe14VK/i9uyaCYfbz+vsNoRLkOvqNHGfXabu5Gw7KIh/gfPDre+qcvU4TZv/suOFEj6JpqQlllHYLjOcgIlPWUkiqkBccv7x0yDPtmEromTbLi6U5u9hTlcqJ0/nqgK7Dmi7nBvbxR3g3O3TIPenaUJ5f/mlMv0e7rUu5u0HH3PbU6At7T8q7mO/h12EU7vnL3A2rp3wb7pR5orn5yC402CLpgss8KpjPpVcES46fzoPzsP1L4PTiNvmNC5cCeBUaUDu40gF8yDPO21Auwq4XJ/+Fs5a+g1Ufb+7v5AY5BsrrjkP7DqvKi5ciei0Iv3S7ptn3f9lwVW85/X2popOcTVQTrH3V/0+D9xnXba497NhoIwUOYOSW5SBy/OLfe5lins/977FrulXnt3noNB3zqkJF1UD7lXjtOefBffaV1kdc+WEb3NMZdluq+CabmyOW9UJiIPw/QrvLatMeXTZv2WR+aQtLRhDxT1X7klccPaYe51s2wW8tFN5jvttspJKSXBu0Zzaal5xz79oEQJ372sPDsV+ANquxzJLHKVFU+TPXtZuKRFp8PmuESQ3QM6DHhetyvvOK/I897mnFdi/czin4a5k71dKkb9EhU7C7bdGPBO5uMeep1wV5lPlFcGt1KuBez+7Wav2Vx1zYZ0rLX9lalv7PabvKURfHhVim73qpksJHiTmdTw+7F7vFhcu4U0p6mbHp5ni3v+85dKY88xXEa8o4V8Pirn5lPMOoYozCGQ0Fq21W65jxL4JnPbNNkgHcPGuZBO85mATSZp5nnLVcAeilxVX8Z5XX3sOZBR/+SDv9ALezRZzAecdXsD7vABIn6gi5Jezv3yxcO2EfxUoOCdzZOGiU9w0t7nqWWK6LahJuTjcEdfWH9jFHp3dY8X8dKZMX3daeVGgdy+f777XaUVQ5aZ7U5KRK4XZktlFpDT325QlxQjjqyru9TeJV4LwLwxpq8o2swn9ZitbUP3Uyw9AM5PfG8PVPevivvoLPA++mIT/pYRN9FdHkNXgZ03PVxZ4hfCKEr7d2So4XRVDtw67SrfrhvByhcvTJL3rtMKRj1TUh72/qlwSCk4Q0gKvKl4Jwi/myuwJRn+zrVkpTv3ERairkhM9jzh9ATh26qninluJ8j3Lwan8niK8lIs7d1QzEWp2cc+dnXPK82fnulz4VPd6t7hw73dTA+954b6Puz0P7veYc9rx3etvEq8E4U/D5jgu55G/qyqx7IhuRc9zr70sZrv884Pe2eb47refF+e47hynlOLLWScu8DLiFST8BeYPfDcF99kv4h0WeB58eQn/RdHMmbih6cilsSD6LwJeCcJ37fhAGSM/bSeftivPg9jKAfbFP0eU3Glw57ZnlUJnUagieE6dz8b+y1zZvv5lg/t9Fy2vOqrm9u58/rTyInDthP/yNa5kaLU46w3WvdTElKJv6n1eprpa4GXEVdDUtRL+877cAjeDV50DX9f7X+Z+4npsX3vRe5wG916XlRiulfDBL3odARWn47SKFlZrzVNPO/2KUcyMp1PDO3PneY15FS96Dqni1FPkoJxw6skLXAMuMyC5uFaKtAN0LvOiYsKaB5qXUzEGMDmFdrtQajqnHxE/E5hj75fnufOw0+ZkCtO2+rMwRfxK9tg3qCJ+l9Cep5wOxTZ/F6SDwIXudRWQdptXXFz2+Gn7bb97tz+411QFHNnH7XvjjL5W2d8q3vGiuFbCh/PB14dLdsJLXFKJ2bY5E5e4xCG4y5YrQDEuXeE9Fzg33GjGy+D5rj4DVzEyLXD9sNvpVWyr63r/y9xPzreJ86L3OA0uwVdJBOfBtRI+HHH/pmCMk/RStueITgss8CrhMgOSi2snfPCLuiPVAl8cnDUnFbjH3e0XhXmEZH+TbZ+/LgnjJvGFpEY3fVa5Xb2gw3Pj1Wz7Bb7EuHbCv4lR8TTN/03A4Brycy6wwClQbF24LG1dO+FfJyQN10uHy7XFAgtcCM8zTXqpCZ+kBfK/t+Pxxa+ekmlYSx8XczLXV7oU8+39LsjWf/6cdy6K+aCRNX0rSsXz3e2bxnRdXbw8L9z72bHsp/m9u9d/GWDrGZ7nm19qwj8LL0uDm4oy7/hCGljgKqCUeq78hNdO+Io1+lUc8qowG9Hmcmzalki+q4QQ82J+v8BNQjj+ZfvztRP+lwH2sLMg/gVeBVw54csIJKORPR++7Oi0wMsJOx32q9y286aMdv89zVf/VcSVEz6cTuBW1gILLPDicS2EbyMIAniedyVc33bDFVTdT2kF7XlFKbX1NM9fYBpfBA52lXDrwzieey8aIoHY0vRFce2EL/gidyq76qtSaCurzKj8F1jgBeBaCN84dkbXT19rbY2meZFPTzA92tJx11EntzSadr68qlFQqel4/KpzYFkHzvIEtAcxIWZlUKwbDxkA7P1SFK/7fkr8vsttzoJ7/kXLi4b7Pu572boEG+557vXu8Xm46Pln+RnYcPt+Vb9z+6VbbNgRf+69L4LLX3kG3Ap4WcSk68AUR2einodioLDOX2CBm8a1Eb5g3oh1GQjnt7k/ZcudxbwRc4FZnMaxvoxw68MuVZLHTeMq+nY11VwDFp1qgQVeHtwY4S/wxYXLFS9aFrh5LAj/hiHd3Fh/L7DATeNGCf955vdfJNix+wsX3xKnabMXuFrcKCUqjijKssw99NLBFUcvIpqefcYCC7xYXDvhG9aEGmPg+/65iedFQWL3nwsOR3fLAoSzOLz4x0v5osJlLG5BRV3Nq7Pz4kZrU71CPvtu5bsN8Tx4/jsssMDz4doJX1keRs8zQn2hYEsAX+CB4KKcSc79onP458V56/M03EjtyoteBbf8IkCI3YAGgS8aFu18M3ieer52wpdR3Fhz/asYsRZ4eVDF2e25qXuOe667vcB8XFVdXTvhw2r8l8HdcYHrx/NwogXOhkyDnkfndO2EL3HDOEeHcGPtLwN5xvMo4+ZxpgUuhkUdXg+uoj6vnfAXWGCBlw83QvguB7W5sb3clYvyvNmY56ljfA+J2nO5fPmcaQnA5UaSqceF+/5XDcn+W1UE9jdfNeY904Vbd7gisdNtUzfe3S0u3OvPwrzz52275Sy47zvv+rO24bSNLT0/L2Z7+QILLPCFx0tF+PM4/0UgI2ZVfr7zws3Lv8DFsKiz68FV9seXivC/LFBW+cJ678wRXRe4GK6rDheEfw1w58wzxc3BVyFduA1edc7LDHlP9zuqYM9/z1PcOfQXFXa9yd9X1QcWhP8C8PzN9mrgPES/wOm4rjpcEP4CV46r4EgLzEI9Z2ZdG1dzlwWeC7YYu8ACN4EvBOGL/V3my7ZvgG3nN5yhVzsr6lzVvEmgMJ03fyqHfpG7v5rYq/Z90WHrL85Tvixx+teJRa1dBy5It/MGgQUWuC4sCH+BBb6EWBD+NWHBxRd4mbEg/CtGFbHbg4Axhub5dnmF4H7bVcCtn7PKl8WOf524McK/SuXZq4ApQl9ggZcMC8K/ISwGgQVeJtwY4S/MLgss8PLgWqlR8QIahvPsCce7bu4vdv2iFNvT9vurgrHm67JEttic4cyLjTHIYS6UZ9+d47rleeHez72vu33VcO30Z5WbtOO7z1ZX2H/c+7nPOa1UXX8RXG+tWbjsC74K+OJ+2ZcbLrGpK3SZfdG49q/QWsPzvCvNHvIq4rq55k3hy9KGz8NNXwVcO+GDK9HzPHf3Aq8ALjNgude42y87bIJ3iT/P8y8E17+WL3DFI1dEelk6QaXPvuZi6wgqvucqy8sKl3jlXc/7zi7By/bzluuy40t7GOed7V98QdLEXwvh23gVOvgC83EZ4hICnbf9KqDq/V/F75iHGyF8md9/EUSkLxtczfl5B3B3sHe3F3ixWFDiAhfCZTneguhfLiwIf4G5cDl21XzXhX1MKYV6vY5GozF1L/d6ezp4nnJddnxXlHdFfLcILjMdetG4ulpb4EsBl2hPgztwLPDyYEH4C5wK4bIXgc2dwYPFl92P47Jw6+wy7VGFBeEvcG0wxiDLMhg2wS1weVz1dOJLTfg55+ATGFOuvjOVs69ifneV5YsElxsZJnr5TuFYbh1cpLh2fLdcFeR57rZbrht2fV0VvtSEv8D14qYJ5IsMGfCuCjdG+Fc1N3ke2HNPxV57brSe0rQtXnsLXA42wQvHXxD/xSE0oyxrhr3vslj07CvAebqzOaUssMBN49oJ3x3pq0apab/4aS8x+3x3+zQUPvea8uwX+yuuF85fjKTM9VG8W7VmtShaAVaZirXnbft9XLysxC9td1a9X0SkP885z4uLzvnnnTfTzk5xIfdx6+O8RWBv2/uvEtdO+AvMcviLJOFYYIEqPO+AcCOEr5SC7/vu7hvHvGi76XNKrl/FnRc4Gy4nq+Jql0FVe31ZIN8uuS1k32VxI4QPfsmraPznhTEk0l1VZ1xggZuG0BKeg/PfGOFrrafmUZd94XkwJp+yyRf7i7XqyCZPf8+et8DLh3mS2XX56r/MsOvhKrwgb6zWtNbXxmHJ4eZ8HLxqpHQdeRZY4GWGTfRn9fd5uBHCl5H5si95GoTYhXDncYkFXn18mTj8PFxV3/5y1+ICC7yieF4m+koTvny8Ugqe1vB47mOPhq5mXo5VjZjFdEH89Quf/VnttF0WuB649TvP3v5lgM3p7Tqp6sfnwStN+DaqHG0WWOCLiudlOF8YwhfYXnhTnL/CM3CBBV4lXCVjW1DBAgu8xKji7FX7LopXmvBtri42endUVGrWA889Z4EFXga4Og3523AGI1h9V869bF9+pQl/gQW+6Kji7lX7LoobIXxbI2mXq4SMgPMqxY6O05535c9fYIHrxlX22Rsh/AUWWODlwo0Q/jwOrzWtXW/70dsQ7n2aqe40Li+YsssX9vnpa9xtF6dJKra0YdiL0C7ucfs9Ko875UXDfR+7VNnVXcnOLS7c73S3XVw03v4snOUReNb7vIqY/7ULLLDAFxY3QvjuiD9v5H8e2Bx2gQW+yLgK2rkRwl9gPp6/CRdY4OJYEP5NwxCxS8GC+Be4AK5Kal4Q/g3DJnab+BdY4DzQWsO7AnP0jRL+aZrTBV5+uNxGcTaYBW4OivPuvTKEn+f5c7/sqwKbmysAypRlgQWeF1dBR9dO+MpKsim5wq7aJqqsVXEkMm8qSs/y2ivKFcyT5sIi9Cpiv4YnXgtc7r7AFwfXTvgC8xwBBa8a3K90JYAFFnjRuBHCF4K3CX/670Wc/KsAm/uLt9uXZTB/mXAVdX4j1GaLilct5r+SME5ZYIFzwqaj53ElvjHCD4Kg0EZOcwxNc/E5a8vRx03nvXvVMSP6v/qf9NLD7nNukdVpqiQYW8p5UVCsya/VaqjX61diSXn+O5wDnuehXq+j0WjA9/0XWokLfPmQ5zmyLEOapkjTdIp5GGOQJMnM/hdN7AIhet/30Wq1UK/XoRwF+WUY4o0Qvta6IPwgCKZGVo8j9G4S9uq5C5wfttRlrwz7MkO4Y57nSJIEYRhiNBoVZTgcYjweYzKZIIoipGkKXNE8+jKoeq7WuiB8oZ/nxfPf4ZxQSqFWqxUi/8veYRb4YkDCdo0xSNMUcRxjPB5jOBxiOBxiMBjg+Pi4GADSNK0kvheBLMtgjIHneZXc/nlo6MYJv9lsFh/gHp9XTkPVcamQItbdicUXyLXafZcpe/9sFdmczxhztt3e/R7tlNlPuBDc97lomYfznic4q73m3ce9zt2+6HtUwThSSpqmiKII4/EYURQhiiJkWXYl8f1VcPuz2yfcY/KtWuuCbmSaLHXg3usimO3V1wjf99FsNmfm+tchek8nuKBEH/MSfjwvLlblC9w07AFDlHm+708p9DzPK/a/LFDMLOv1Omq1WiWBu9vnxY0RvmLNfr1eR6vVQrPZLEesK57jTxF9bma49nUQ/5cBLucVLvqywdXaC9GDFc2+78P3fQRBgCAIZrartPtVqCLE54V9P9/30el00Ol0CsK/qvq+McIXyAhWr9fheR4AIMuql6m6LJ73+gW+WLAHKKUUfN9HrVaD7/uFmcwmeJegb6ovKRbj5V0bjQba7TYajcbMAOO+40Vx44SvtUYQBGi1Wuh0OvCDAFqpSnH/IgQ8rxJEmrBX0pkus/OsqeL49VeVLzvsufNpA7dbb1ddf8LhBXJvW6RXTPgy1bS5vfiZiF1fnaJIs9/blTDc75tX7HvJs4TwgyBAt9udmhbLO7jXXwY3Tviw5vrLy8votNsIajWA5/pVSrgFFrgslDV/F8KGNVilaVpoz+cRpkv01wV5bq1Ww/LyMpaWlgqHnaskerwowlc80tbrdXS7XXQ6bdRqwZXP9Rf4csLmvJqVefZ83rBWP0kSRFGEMAwRRRFyDh23pQacIk26EsZVwPd9pgma17sSzLx3uSiu9q0vACH+RqOBTruDVrsN3/MKzftiEFjgeSFELPP5IAgKJVmWZciyDEmSFA48WZZBsQLturh81XRIPAqVUmi32zNEb0sjV4UXQvj2R9dqNTSaDTQaDXi+P6OBvwpUxQGU5r1ZpeJU4Rz8pxVplKpSPm/2OimvOubNbV24330d3y/PVUz0PpvnhLiE0ydJgjiOMZlMkCRJIe7DUgZK28r97O+Sc6q07PZ8H3MkBmMMsiwrJA2tNZrNJrrdLlqtFmq1WjE1sZ95VfV19VR2CWh26W02mwiCl8eOusCrC8USZZ7nmEwm6Pf7OD4+Lkq/30cYhvA4jkQ4bM5+/VdFYDbcAU8GB9/30W63sbKygm63i3q9Xij0qgaNq4Ay1/GFZ8B+pFIKuTFI0gTjyQQnJycYDofFSJpnGTz/9PEpz6a5R3aKqCZKQ7Hly3VZxcgNPj/Ps+l9zr2148JjH5e/q/a9KnA7n3B3OTaPs7nb8+Ce5267OO24EFIQBDDGII5jjEYjnJycIIoigOtfBgZhOhJLIlOBqjZynyvb8v3zYA8kMrDIe8rAs7S0VCjzYL1j1bu473EZvBSEb5hYsywtiP/k+AR5niE3BkFA5hWA3GtdIj0P4btWgislfKWmQmuriLxq36sCt6O9rIQv7yW/hsXxMAwxGAyQJElBbDLf11ZYrv0tVXCfK9unXWObOcFtH8dxod8SDb6Y7uSep/UR9z0ugxdC+AJjTEEvhr8lz3JMJmPs7e3h+OQEWZZCKaBeryMISAeQZ9kUoRoDmJyIWYi4qOg5BF9uPz/hzzSE9cwvA+Hb+2242+595uGs8+Ydl/eyjxvW4AvXFUIXqQAVxCnXCdznnbVtf7foAWpsso6iCEmSwBiDpaUlbG5uot1uFw5EAnNKqrp5+y+C+UPVC4DJDQLPQ6fTxeraGur1OrI0w3hEgRRZRsTp+T68CkeN03BdfvoLvFwQAhbC0SzKt9tt9Ho9dLtdtNvtghAlMMe+7nkHZlfhp5QqlIpy70ajgU6nUyjy5Dp5F1jfch14qQhfoAF02h2srqwiqAXI8gyj4bDQwBpjZonfiaSTkd+OsqvK7XeeQeM858zD81y7wNXDsPgvhFjF7a8CQvzCxcVnAAA6nQ5WV1fR6/VQtyJViz57hnXkKvDCCV8+S8JZpfp9z0On08bK8gpazRbSLEMYhpiMJwgnIbI0g9YePO1Zd6EAnReNqjcwVlngZuASeRzHiOO4MN9dN2zObz+z1+theXkZzWazkDiui8Dn4YUSfjGq8ba2/ZEBtJotrK6sQiuNelBHEiUYD0cYDUeIJhGSOEGeGeRcoSLKn1WJVdzfHWXd0dbdf2qxYu2NKvUXgi8q8UtHl3oo2tKpy4vCrV/t+MZLcSHPFxFanHbkPa+a09vvIbqEPM8xGAwQxzG01sWUQzi9nGd/nwv3+68Cs7X1gqCsIo3hex6Wl5bw3tfew/LSMuIoxmAwxHBAYn8URkjimMQ1Dr+1xf+XBQZE/O4AsMDNwB0grop4XNhz9CzLphyE6vU61tfXsb6+jkajMUXwVzn4nBcvH5UwbG7R6XQKk4dSqnCzHI1GGI3HiON4SvNerKBjcwmPcvu53nvyDDcLjw1XL3ARSCcr3qUi2m+BLw6E6KMowmg0Kjj90tISVlZWsLS0NMPlBW6/cI9fJS7fo28AIp7FcYzl5WW89tprWFtbQxAECMMQ/X4fJyfHmEwmBfErpS88z38RI+4Crx5cgqwiTKUUoijCZDIpEnd2u93CmuCa7V4UXqgd/ywYtsGCM6eMx2Ps7u5if38fh4eHCMMQWZ6h3mhQYg/W9Ivfv6fLQUA+05jpkN88J/tu1WBhjK0/mD0ucBvfPde+vwKZLe0r3PNfNrjfZ4vLpx2T4+45Z8E9390+i3Dc88/CvPPd/VXfLBxelIdpmsL3fYxGI9Trddy6dQvdbhdra2toNBoAv7/d5u5zbgIvNeHD4vribDEej3FwcIAnT57g6OgIk3ACw7b9Wq2GwPfh+T4CP0CtFnDgD82j5FeI3xiak80jett557SGcrfdKl0Q/sU6tnu+u31ThF8FaSu7zY6OjqiNrb5aq9WwtraG119/nQLRmOgNZ809rT/dBF56wpcK9Yo0XST6Hx4e4tGjRzg6PsZ4MkaaZfDYWcMPAvieVwwAQeCT6c+nCreJuspjzx4Y7H2CsxrKrVJ3Wzz73P3u9ssC93tfZcJXFcq00863FXZS7H1gwldW5h6Zz29sbGBlZWXm/vPq7ibxyhG+VHiaptjb28PTZ09xeHSEk34faZIQ5w9qCAK/GAAorZJfDAB039K9130eQMFBVftxjgZzq9Td/rIRftXfp8E9z91+XsKv+tveLvoAc3Dpc7It9ngJ882ybCrZx9tvv43NzU00Gg2Mx2M0Gg0YJ8TX/n0ReCUI37CPNbgxpMLCMMTO7i6GoyG2t3dwdHSI8WSCbqcL7bE9VamC6P0goJV7lIK20jDJeZAAH+b2SulzufnOaP1tScGK53fh7nO3z4vLdiD3ebnjbSZw739Zwncx75i7391238+Fe77AfmcpqKgHIXIh6tRaXivh5bYUu+HmeY7l5eUiym59fb2w04utXq5132teHd4EXhnCtyvH3hdGEQaDAZ5tP8Pe3h4Gg2GhsJPGtUV+2qehPQ3f86BZkrA7wTzCFwJ3B4NKwudalXetqmZ3n7t9Xly247jPuy7CP6vju3D3u9vu+7lwzxfIu7jH5f3kVzi7eNsJhwdz+SiKYHiu7vs+VldX0Wg0sLa2htXV1YLg5Xlnfb+7/ybw0hM+Kjqo7DPGQGmNJE1wdHyMw4MDHB4dod/vo9/vI89yaE9PKfzEjq7Fa8r3C27vNoBMCwTiA+BG/M2ggvCnDjsdzd1/UbjvfV64z/uiEz6sb844Ws8u9lxeCF/qRO4pEkCapuh2u1heXka73cb6+jqWl5eLGP+qdnffa14d3gReWcKHEBUvvJnmOYajIY4Oj7B/sI/tZ89wcnJC8fx+AN/34AcBlFKFuK+Uhu+XxC0dSily9hEvQOrMJCUYSyIQTLn+AnRsQfjFcXmOe667LXD3u9vu+50Game6XghafmX+Ln/bbSX7jSUhiJ5JsSJvZWWlCLZZXV2F1hpRFBXpvly43zGvDm8CrwThu7BfOWfiF26cpSmOjo8xGg6xs7ODvb09JEkCsMnP9zykshhhQejTDeCK/7aC0IYQv3Yj/vhXCKmK+GV/1e9FcdmOY3dye9u9n01oQkjlIDl7rr3PPT5vnw33uLt9WcIXDm7P32XOLoMAuD60496rrEVfm80m2u124U3a6/WmnnkW3O9xt28CXwjCV4qDYXJDnBoKo8kEx8dHODg8xOPHj3FyfAIA8H3JtlJycBduQ3g8JQjYV8ANCa7S0rtEJb82XIKvepfzwH3f88J9x1ed8G0ilWJYhE84wab8nbFZ2FiDshC/1Idk69GcqbfVahW58SQ/nnaccc4D93vc7ZvAK0/48pcdAONBIYPBZDzByckxjo6Psf1sGycnxwCAJE3hFSN6dSeyIXoBGQDER8AXycBMv5PNLQyLlTZcQnd/L4rLdpyLEr5NULJPc4JK+1z7evde8/aB95sK5Zu7PY/wqyBzcvGqk22b4AWKU2tLe4nTWK1Ww9LSEu7evYuVlRW0Wq2Zd3oeXOW9zotXnvBhEb8NSr/F9tcsx+7uLp5t07x/Mp4gzVKK6ffKjir3PW1AkHsSAZCOwNN6StwXm+686CuX0N3fi+KyHedFEv5ZBG4fd/fPg7Fs7TbntgnelbzkXaTY4bKSE0/m8Z1OB81m80IDz3ng1sNN4JUk/NNg59uTCjXscx9FEfb29rC7u4uTkxMcHR8jzymhh90ZxdGHOgNrei1x3nb6KRWFZeOJmUeSOQpxnNVhpFOedZ4Lt+O4TeoeF8h58wjfJniBfKv9jjbxn0b47ntUfaf97vbfuRXuOg/Gsr/L+bLP/hXIt8h+xbb5breL9fV1dLvdIvOtvYadFLe+3HqfB7ceXgS+cIQvn+N+lmxnWYbJZILj42McHR0VedbFNhuw5t++Toq9LY1v39v+W1tJHeU8+9clEPe4Ys3xeeDex/1297hAzrtqwq+6Ro7Z3y7nuu9hEy24zew5un1PF257ufey68bjRBmG273dbhfKOlnYQub5dlu4z5Ztt97nwb3+ReBLQ/gC6bjSkQ4ODrC3t/f/b+/clhu3kTD8A6Qki9b4MIetbFK1533/F0pV9irZnUpsjy3bkiUCe9FosNkiJdvjGUt0fyoWRRKEIJI/0Diwkf3580Mmz5c3Sj9YutTiYy6VCGzuQwlbCl8/CF74XNfHutBp0PTFIcUhtzm8FjFfO5cypaCsGLktf1P/T742vJbXU9e/o+p603F3Ie9dl/D5+vM9mKQ5HD98+ICTk5NszrPY9X/Sv6+3D4E3J3yIBy8mH+eL9G7/xcVFrgaENDQ4JhORS279EMk49T4Wgn5gnBCQhLf5oZTn8n5J3/k6bh1Oo6+VTIfc5nhp8BPNc+icRy3eYOz6XS8sAhaiFHjfNdVwHBqOn+Pha8fVAr6HHLZMM+z49FLX+/fvs2nP3nHkf+m6DhK9fQgMTvjY8fCg5/h6vcb9/T3m8znu7u5wfX2N33//HYvFIjtp5FIYanYURj4AfKyvFJTo/TK8PNYXj34g9VpnGIwWEqdZxy/xzpPwC5+7T7335F5MCV8KXgo8CB94Xcg4+r4zUvRct5fVKxmuTDM0T6dTnJ6e5sa6yWSCoih6Z9HRce3aPgTevPCdaKjh5eHhIXn3+YKrqyvc3t5iPp/j+voa6+QYhEsVftid6tuWItiVHk3fg8T7+9Y6HKOFr4/vSp8M71KJX/hG+BHJr+AO4Xet5Xf9f3Q6u+BrjZSRcYbiUnXEJVN+NptloU+n0+zTXrfBdKVPp2PX9iHwpoXf94DFGLNHlfl8noV/eXmZLQI2VWUDEcfVVzLLB1SLcRs6nX3rx8Lh9XXS16UL7xx8cmoqB0918Vgh6d/V613wNfeiasSl+9HREaqqysL3ybznHhdJV1q70OnS24eACb/nxkVR+nMpslwuc3vA1dUVLi4uciaxTi9uxC11Q2a9Xm+02EuR9KHTqx9c/Tu76Ps9/fYhj1HIv5vr+JvCd6r9gq9j6PAdz9tsFehzdfhtsNAnadacqqpQVVXex+/K6+suMeEPHP2X+26czCC4PupSj8D9/T0uLy9xeXmJm5ub3D7Ag0X4gXfCAuBBJNxl2Pe7WtCMFoRe63C98OwlCf22oXc01wHHI68X7aP9+e1F4blY/l+kc9kikteTj0l0uvkacZWKMwjpsNIlU55NeGnGT6dTFGnI7WPpEr9Ol2bX8X3EhN9x4/RxCYet01hvngRRNgze3Nzg9vYWi8UCUVkESP3HTtRBu0Qh4X3agtAPNO/viiPjIvRYR/nbjoOIeNpp46Vb+Iy8hvp66vTJ7ZDG0iNdJ2m+szk/Go2y2LlEr6oqd8V1ZaxRtT/0YcIfMPov6xunj0v0w8QmbBT+1JfLZfb7v1gscsPg/f19DssZgRaXRKeLzVQpBAnv1+dlsuifKny5zcum8Pm/0TnbhS/TKrdjygTZdEfKZLnb7fj4OIu7qqrW1NLbeKzw0ZHeXTw23n3ChN9x4/RxjTzOA0u4qy+KhsEYIxaLRbYIuI1gsVjQZCBpwgXuhtLodD1X+JReVm9EjN3daOyQxCdhs9Dp/GZfCBHeNyZ0iBFwQFmQEwrp1iyIV2D5fF64BJeWjPce0+kUVVXh9PQ0D30u0ijIMk1vra2fXSa9Cb/NmxT+18AlksRtaZiT9X2k81erFRaLBe7u7nI1YLVa5YyAqxB3eZagpmGMRROT1eCcQ5m8vrCJ7D29PERh9UMfESEyGdIswMIT9Xs6x224Hw8hYjQat/4zpwPOIcb25KXOudywxgLm70gNc9zyPh6PMZlMKK50jNPv02g6af4bz8OE/0S6LlfXvj5kqbRK74VzvZarCbe3t/m7tB6QMhIeVCTHFHCGEoVj0hgD4CLKonm5hEr80FgAQPYnwMLn7jrnqI8eAGISGjUE0ostALIjU+nFmMI2JTF3n42Sv3luYR+NRijLsjWIBul6ck9KTpeyDIyvw4T/DPQl09t9bDNF+UGPYiCR7CHgdQghC5+tBZ6YcSU8zNT1GsvlAqu1fO+ARK+FLxv5aXBOkbwTF3Deow40NJctgBgjlssHHB0d4eTkBCcnJxiPxiiTsCdHUxTK/ZRPjXIsYN52osdECruxOJrra4J/OUz4z0BfMr39GPgh7nqYWfjbMgqI7kG5JgsiTdp4d4vlcoGff/4ZAM3eE2ONkISfUtCa2cexwxFfZF8F3pet5sDVugYicH5+jh9++CFPD1Um92Tsugy5jk8j6UYjygxWK7JUWPj8f6XYjW+LCf8FeOwl5If7KbAoQseYf10ipjMQIzWo/XHxB/7zyy/4/Pl/TZhYI8SaXrCJyCU4kErZVPIWaeYhEuwo19nrEFCvycz/8PEj/vKXv+LPP/6IpqVgk/Z/zllMs+eJ18T4erYXKcaL8pwHnEtB7vOXiw6j9+fjnhr5vJP1eF44VASPundACt9MH96OlTKBx2Z4bZ5zjvHSmPD3GBayrBf7HS3aOQPw1Ei3mSmQuKk5Pwndk9B5v3MAHK15RiIZP3ssMg4XE/6godLVJRO+Jfq8AC6KOn4K5znTcXScRvEkayA/NTHPJqzjNPYbE/4LoEvVl1q2ocPKc1r7PLIJn88Vpjt/d8kAcBHw/B10mk/VBKoqUBXAeeoujDG0jlOG0Z++rsX4/pjwB0Nb3N5RycyiZ5FyY2EM7RmBnKjjy23Rkw+HmMXPv9d0DTbhjP3HhD8I2mZ2U+LSejOcJgAuLZBCTgubAqn+3y6pTfSHiAn/YFHifMqxVKfvrPcLkT9N0I8JA1XRMF4LE/5Bsk3YRK67J7OdRd0lO73N8UpTn/ICB/pEahDkPKKXdipM9PuDCf/g6BP7ZkZAomxEL49vl6GMv/uc/nM1Tz/D+PaY8AeBFDUtLjXuAbqe/xyajCPEkIb8En1TjRn7jd21g6ddytMu+RJOKq2VWd5xVkZnE9QLkHoFQgCC7r9Hq1TX5xv7hwl/cCSPv6nlPUYajMPEGBHUApExdNXZWxmG6A5EGuhD/Ybtxfrp9xsT/gChMfTtob25hr1D2F3ENHIviz47Fkkn8tcd8Rj7gwl/sLxMacsiD1L0wiuv63C0aew/JvyDR7eWd30XY/Ly4aaIJr/4TbGd9vYU5bKHQIm+tanTZewTJvxBwCLrXqT/O5Jse3RejAHyk7djQHQUilvzI6+zpl0TV0hLFG0Bz3p11/jWmPAHgyhhoyxtk4cbR0408tj6FCSmjySmSj+t6dx0RK0VOU7eMPYVE/4AoXp3I072affcEljPtGN994eP3cHBQk4381bNpX03jeG/DV2K623J9piM18WEP1RU63tvSe8AePLYk5fcB0+PB1kQJHLaR8dkmDY7qgTGq9N114wBQGY9lfD8XU+MIdld2qOpxG8t6ZndsRmvhwl/gPCIvZeAxwLIUXgvMT7AeF1M+AOnKAqs16tWaR+S9x1Gdr21Buqwx57Q7pp7qUzFeD1M+G+A0FHXjzEg1HVq9Ht8a78UP2cOxuFhwn8DeDWsVgu9Vbqrkr9tATSZhnHYmPAN4w1iwjeeBDvhiCFZA2pwj3EYmPDfMJsmPznaIPM+tBr1qCpAot/WLWgcBiZ840lwCS/bAmiWHeOQMOEbO9no1suWQPL2YxwcJvyDY9fIuXQ8yu8OLrnG5hfzWsiw+WieMqdxtL1xIu2Q3YUUWhJ3LMZrYMI/SKRIH7c4CPFD+9ejzIFf52086juQpumdfl4iv3YfIsqyEOniCNl/v5yWa9tifG9M+AfLprhpaR93XMILkUsfe93+9igeOpSn1KBF/kSibe6n74/W9aMCGS+MCf+N8DV1cdmq327pj3h4WKEYlfoUY88x4Q8M2fjGprn3BWKMWK3WqNd1aoTXloK2Grq+01KHgFAH1Py+/1dkKsbrYMIfEFyq89o7j7IcoSxGiBFYr9ao6wDugetdAq1DHRDS9xjSPB1wiIEb9BzGo7HIIIxDwYQ/IPh1XPKtF1GWI0zGE2qQg4MvCoxGIzjfNMhFQPjooyVGoK4DQoiqxT6dE4HRaIxqWuHoaKoPN0ijwdgrTPgDxDsH7z0mkwmq42PM3r3DeDKGLwvAJ+ebudEuwa360SHU1HJPJf/msNwYA2azGc7OzlAdV61jGRP8XmPCHyAR5CJrNCpxPJvhw4cPqI6P4ZzD/WKBVR0Q4RHhAVfAuSK50qLFF7QNtLv46hCwrmvAeVTHFWbv3qEoS8CRBUHt843irb1+fzHhDw7ygxedgysKnJ6e4p//+jf+/rd/4P35R0wmU9Qhog5AiB4hOqzrkPbRwmIPeTSuI8edroAvSpydn+Hjp094d3oCVxQAyILgYn7DmjD2Dhe/pp/H2Dsaz7pU3npfIIYaX66u8Otvv+K/v/2Gi8sLPCyXuF8sNqUaAV8UKIsC3ns4T2XDeDzC8WyG4+MZPn36E3786adk5rPDzf4pu/r2N1hjwPfGhD8wmpZ9mjiDfeWFEPDlyxU+f/6Mq8sr3M7nuLm5wXK5xHr90DLKC8/CL1AUHuPxGFVV4fT8HKenpzg7P8PJyQnNjAvkqgDPo8eDgniIr98pahP+98aEPzDawkcWtPceIQTc393jYbnEfD7H9fU1bm/nWC4XIgag8J6EXxQYlSWmVYXpdIrj2QyTyQSTyQS+8Gksf2Mz5Ak0+Yky4e8tJvwB0txSzgS45Pc0+q4OqNc16lAjhBrr9Roh1AipG1B61PXOYTQeYzweoyzLrM9QByC79KKKggn/cDDhDxB9S1vb4u082i+XNl7096cdQGpDCKGm7YQJ/7Aw4Q+QXbfUpdlsqVQXohcl+CYpDPfp58kxxdGco6S1CX9vMeEPkF23tPVGnut+4y6Nz21ozIS8S/8KN+Y9rXHPRP8amPDfAF23eLOLTYTZDE6IU2Scm3E9ha8513guJvw3QNct3irWzeDENxG+8RqY8I1N+p4I0/dgsCG7xiZdAu/aZxws/weANtQkURhh6gAAAABJRU5ErkJggg==;direction=west;movable=0;resizable=0;rotatable=0;deletable=0;editable=0;locked=1;connectable=0;" vertex="1" parent="1">
          <mxGeometry x="650" y="183.31000000000003" width="131" height="244.98" as="geometry" />
        </mxCell>
        <mxCell id="Y-hvcmrSchfvY5Ri_YWS-20" value="" style="endArrow=none;html=1;rounded=0;entryX=0.323;entryY=-0.001;entryDx=0;entryDy=0;exitX=0.998;exitY=0.622;exitDx=0;exitDy=0;exitPerimeter=0;entryPerimeter=0;strokeWidth=2;strokeColor=#FF0000;movable=0;resizable=0;rotatable=0;deletable=0;editable=0;locked=1;connectable=0;" edge="1" parent="1" source="Y-hvcmrSchfvY5Ri_YWS-19" target="Y-hvcmrSchfvY5Ri_YWS-18">
          <mxGeometry width="50" height="50" relative="1" as="geometry">
            <mxPoint x="290" y="490" as="sourcePoint" />
            <mxPoint x="340" y="440" as="targetPoint" />
            <Array as="points">
              <mxPoint x="741" y="532" />
            </Array>
          </mxGeometry>
        </mxCell>
        <mxCell id="Y-hvcmrSchfvY5Ri_YWS-22" value="" style="endArrow=none;html=1;rounded=0;entryX=0.695;entryY=0.156;entryDx=0;entryDy=0;entryPerimeter=0;exitX=0.022;exitY=0.799;exitDx=0;exitDy=0;exitPerimeter=0;movable=1;resizable=1;rotatable=1;deletable=1;editable=1;locked=0;connectable=1;strokeWidth=2;" edge="1" parent="1" source="Y-hvcmrSchfvY5Ri_YWS-13" target="Y-hvcmrSchfvY5Ri_YWS-18">
          <mxGeometry width="50" height="50" relative="1" as="geometry">
            <mxPoint x="410" y="440" as="sourcePoint" />
            <mxPoint x="460" y="390" as="targetPoint" />
            <Array as="points">
              <mxPoint x="600" y="300" />
              <mxPoint x="600" y="390" />
            </Array>
          </mxGeometry>
        </mxCell>
        <mxCell id="Y-hvcmrSchfvY5Ri_YWS-26" value="" style="shape=image;verticalLabelPosition=bottom;labelBackgroundColor=default;verticalAlign=top;aspect=fixed;imageAspect=0;image=data:image/png,iVBORw0KGgoAAAANSUhEUgAAAGsAAAB/CAYAAADo+DyBAAAAAXNSR0IArs4c6QAAAARnQU1BAACxjwv8YQUAAAAJcEhZcwAADsMAAA7DAcdvqGQAABaOSURBVHhe7V1taGRXGX7u98ydyUyaTJrUZJOtNW5bqKXLtlWE1VV0xX5IKfVXBVvB0mqLf/whiN0/K61rBf1VFRELQinuH5HiD4ut0aIulJYu7QpaaJfGbGw2m8xMZu7n8YfnPbw5eycz2Z3MznXngcPce+655+N9zvue7zuGEEJghFzA1D1GGF6MyMoRRmTlCCOycoQRWTnCiKwcYURWjjAiK0cYkZUjjMjKEUZk5QgjsnKEEVk5woisHGFEVo4wIitHMHaz+JimKQDAMIxtv//viOMYhmHANP9Xt69UuXsiK4oimKYJ0zRhGAaEEBBCwDAMdZ9n6PnXydDveXghhCJxr9ETWTqEEEiSBMgoSBZ6CXMlwUWQZTWiKNpWQW3bhmVZ6vmg0BNZYRgCAJIkUSQ5jqMyHMfxtvB5Q6fKxP3JsuhaRAQOAj2RxUH2m4gi8nbCoApzqeD5000cZBkty1LNQJqmiiSdvL1ET2RFUQTbtgHZyeCZjKIIjuNob+QfWaaR/HUZDAo9kRXHsSIrjmMkSQLHcVRmu0XR7fnlopvm9pp+VntFIJJIuwikdYNAT2QR6vU63nvvPSwvL6PVain/rMJxUJd/r9At/W5F5CQRGfRrSJNvWRbK5TKmpqYwPT2NQqEADANZgvX2KCOGYeDFF1/EU089hTNnzqDZbKJSqSBNUwRBoApG0Zmmqey853nqnqdB8WZkYRu6Pe8G0zQhZG+OkKYpkiRBmqaIoghxHF+kObZtw7ZtVYZyuYxDhw7h29/+Ng4cOKDaLRradCpfv9ATWWmaol6v42c/+xmefvppnD9/HgDgeR6CIFDv6WRRAaimkiD0JLsVSA+/W3QjC9K86wK2LAuO46DdbsMwDDiOg1tvvRVPPvkkjhw5osiM43ggZPXUQpKGNBoN1Ot1QHbdqR0j6MIQ0s6TGRlWR3nl5aAKG8cxPM+DYRgIggBra2toNBqwbRuO4/SVjG7oiSxIwjzPUz0/ToTjOHBdd5vzPE/96sLRHWndXjky0fyeP6e8Oo6jHJGh+4VhiDAMYV2BMWZPZNGgmAoKmUny5yaFBs7k4ji+yHH/TmH08Jfj9HT4tR4/L0Mcx4iiCK1WS5U1DEPVRqPPZq4beiKLah0VgGod1Uy9kFxASZJc1F7QPTmq+XvpIAWrXxuGofLKKx1ZjiRJYMohimmaKizFQxo2CPREFqT2BEGAIAhUhqMoQhRFFwlGd1SDKTz1vnS/vXJ6Wnq6nMROpjKVvUaSAb3LK+Feo2eyqG2iWka9KMuyVC2kGskb6ESOQyzLUr0nmgglPy6ULKe3cbt1eny6I+2nclH+6ZqIhCSTLMugocjipko3U5TpJElg27bKPJlGAi8U1UxLdt3p/ViOZyhMLy6rIuh50x2Pn9+DlU/PY1YZDGkZCGRRqDkYJHrWrMsFFZxqMxccXfN2rxdC6TkHf0Yk6c92CpMFPQ3+jv5sLzEwssC0LYswSBPDTRc904WsE6VrUlbc9IzivlQhU3xcgweFgZHViSgwQmzbVuM0MrdZZFF89MsdxU3P+fv0TA/TKzhRVwIDIwsZgiVh6ZrAtYE0jAtWF7Ien46sNDuF7QbK35UgbKBkdSqgxWYD+PCAnumC5fHomseRRZIubP2dbuhUhkFgIGRxgWQJi3edyUxSWP6M/PR4OmkmGGH6O5cj9Mt593IwELIInQQVRRHSNIVt2/A8D57nwbZtNRDl72bF00k7umkVhbkU6GUYBHoiSzcnVEB+DVYAg41fTNOE67ow5TLFPffcg8cffxxHjhxBuVxGFEUol8uYn5/Hww8/jBMnTuD48eN4+OGHceONN8J1XViWhUajgenpaTzwwAO49957L5pUppnwz33uc/jGN76BhYUFhGEI27YRBAHSNMXMzAy+/vWv495778U111yzjTwqi04mDSHAtJ6mm6hMA4OQSNNUpGkqhBAiSRIRhqEIw1AkSSLSNBVhGIonn3xSeJ4nTNMUAITrusIwDAFgmzMMQ1iWJVzXFZ7nCdu2RbVaFTfeeKNYWloSYRiKpaUlcfPNN4tCoSCuu+468dOf/lQIIUS9Xhdra2ui3W6L3/zmN+JDH/qQqNVq4ktf+pJ47rnnxNmzZ8Wrr74qFhYWBAAxOTkpJiYmxPz8vLj//vvF3//+d7GysiIeeughMTY2JiqViqhUKuLAgQPi5MmT4ty5c+LXv/61mJubE2NjY6JYLArLsoRpmheVxTAMYZqmcF1XABCmaQrf98UPfvADEQSBklsYhiKOYxLlRfLsF3rSrEsF1bpisQjLsnDbbbfhpptuguM4uOGGG7B//364rosgCPCvf/0LP/nJT/DYY4/h2WefxdbWFg4ePIharYZarYbPfOYz+PznP4+5uTkUi0V4nofJyUm0Wi0EQYCZmRl87Wtfw+23345rr71WaZvjOCgUCvjqV7+Ku+66C1NTUxgfH1faxrcnDDv6TlaWaaQ1raNHj8JxHJw5cwaTk5P48pe/DNu2EUURnn/+eXz/+9/HysoKfN9HvV7HysoKms0mlpeX8cILL+D5559Ho9FAq9VSq7dBEODw4cM4duwYPv3pT+P06dNYW1tDGIaoVqsolUr41re+hYceegj/+Mc/0Gg0EMcxHMdBuVyG7/vb8j/M6DtZHGT/gyDA4uIibrvtNrz77rs4efIk3nnnHdx6661YXFxEs9nE6uoqarUavvOd7+Cxxx7D/Pw8/v3vf+P9999Hs9nEqVOn8Mc//hGWZaFUKsE0TbRaLSwsLODBBx/EJz/5STz33HNYWlpCqVSCYRjwPA+HDx/GAw88gNOnT+OXv/wlNjY2ADmvSVqZF/SVLF2rIAmL41iZMM/zUKvVUCqVUKvVcPjwYYyPj8PzPJw7dw6//e1v8cILL+CDDz7A4uIibr/9dlQqFczMzAAAms2mWqJIkgSHDx/G/fffj3a7DcuycNNNNyFNU9x33304evQovvnNb2Lfvn1wXRcf+chHEEURDhw4gKNHj8L3/W0T0cOOvpJF0AmbmZnBJz7xCZTLZZTLZXzxi1/Evn37MDc3hzvuuAPVahXj4+NotVr48Y9/jB/96Ed47bXXUKvVcO2112JrawsXLlxQ3fpKpYJisai0Z3NzE1EU4a677sLBgwdhmiaOHDmCT33qU2i327hw4QIWFxdxzz33YGFhAQcOHMDHP/5xzM7OYnx8fFtehxl7OsdPHYyPfexj2L9/P1ZWVvDDH/4Q6+vr8H0f3/3ud3HnnXfi4MGD2LdvH2ZnZ/H6669jZmYGs7OzKJVK2NjYQLVaxfT0NO644w41YD506BDK5TJefvllPProo6hWqzh//jweeeQRfOELX8CJEyfw+9//Hr7v47rrrkO73cZHP/pRPPHEE3jnnXfw4osv4p///Cc2NjbUDMrQg7qF/ei6G4axzVmWJWzbFt/73vfE+vq6OHHihJidnRW2bYvZ2Vnx85//XDQaDfHMM8+IU6dOifX1dbG8vCw++OADsbm5KX7xi1+I66+/XszNzYlnn31WrKysiFarJeI4Fn/729/Egw8+KKrVqhgfHxcTExPC933x9NNPi9XVVfGVr3xFeJ4nKpWKKJVKYmJiQtxyyy3i1KlT4ne/+52YmpoSk5OTwjAMYdv2Rd12Ko9t28JxHFWmQqEgnnnmGRGGoZLboLru1rFjx45x8vSBIU3lpGmKpaUl/PnPf1YLfpbcxsXf5aCBYxRFePPNN/HSSy/h7NmzcBwHaZpiZWUFp06dwl//+lcsLS3h7bffRrPZxNtvv41f/epXOHnyJN5//32V/unTp/HSSy/hT3/6E/7yl7/gjTfewIULFxDHMVzXRbvdxsbGBs6cOYNXXnkFzWYTltyVJYRAq9XCxsYGXn31Vbz11lsoFApqaT5rcEv5p/QhN35+9rOfxZ133qk0Mt1h77suk8uB2uRJmaWMUcNLE6lxHOP48eN46qmn1PSQ67rb9iFQxgRbhTVNE7VaDUEQKOLIPwxDFItFtNtt1ZW2LAutVgux3OdBz4rFopp+IuG3222V11KppJ5bloWtrS2USiUVnnYk+b6Pra0txHI/4ObmJgxtfpJgyPUvKj/kxtbjx4/j8ccfh+M4qgNlDssmz91ALzAAtNtttFotWHK/RrvdVjWWpoRarRZWV1exsrKC8+fPq8EqTTdtbGxgY2MDYRiiXq+jXq8jlrtobbmfj/b2pWmKUqkEyPzQ6rNlWWqu0fM8dZ0X9JWsLKIMOXAtFototVpIkkRt6iczSr+maWJsbAzj4+NwHEftQjLkwqTv+ygWizDlphXXdZUGJ0mCra0tpVk0jiKTa7NtzrZto91uA3K8lRf0jawsdSc/qtVkejzPQ7PZRJqmKBQKaLVaKJfLKJVK2NzcxNramjJZpImQ7aduXtI0RRiGcF1XmSS+XU4Ise15GIaI5IYXg7VFeUBfyMoiimtZmqZoNptKOBsbG0rLCM1mE3Ec45prrkGlUkG73Uaz2YTruipcIjfSUNtA7QgJ3DAM1XYlSaLaVLq3bVu1p67rIgzD0aCYwzAMFItFBEGgTE6appicnITv+9jc3IQj9yNGUYRGo6HaNDKPhUIBpmkiCALV+SDtoDWwVquFZrO5zXy6rqvep+3PvOMUBAFc192W32FGz2RxTaFr0WXlVch9fWEYwvM8pRnUzd7a2lLCpW6vkEMCg/XQyKRRW2TIXhp1JqhN8n0fjUZDkRvJ47Wp7FpThyKRe/+ok2GwdTrqqXI/yhc9p3IMGj2TxU0dXfPC8MJRoXYSAPcjgXdyHFmVohuy0uS/lA5VLv2al5HHN2j0TNZuhLSbsMggWnf9AI9Hj5On0+kamkW5EuiJLN3cZWVaf0a1k2qo/j6vwTo5uuPQ79Ehf7txuwV/71Lev1T0RJahmQ1qX/i1LtgsgfNf7nTh6S4rHu4oHzs5/Z2s9HWQPy87/6W8DAq7IstiJzKsjJMa3fz0e3KOdsJQdzox+r3NTqdkOT093fFwWdecdCqHmbH5dK/RE1nQVJ/uCVlCzPLT77n/To6H0d8zehCWnp4eHyeO/LkfR5YGDgo9kcV7ZtRt5Y6bLGgNcRbBetg442gqd0SILnDy4+l3cjq4v56e7vTykoO2VW2vocgiAQjZRlCtogKZpqnGREmSYGxsDO12W90n7JyuyU4K8l8envY+8IIncj8exUOD2lSO1cIwRKvVQiq70zR7Tul3ckEQoN1uq7IlbIadZuMpzyKjy95ut1GpVFTZTNPcNgVmsTNoFC+vUP1CV82iggDA/v37cfPNNwPyazOWbG/IvlO4SO6PIBIojGVZcF0XhUIBhUJh27vckb8QQg1sHflFAEfOrFtyncr3fSXATo7mI6n9I1IoDpovhNQ4bvpSOeDe2toCAHz4wx/GDTfcgEqlAgDKfxDo+NES/mvKCdSzZ8/iD3/4A1555RW0Wi34vq/230GeZN/c3ES9XkcYhjDlbtyEfTJnYmJCzd+5rotYThmZcmbAYQfNAWB9fR31el3FEccxLNm2JEmCarWKqakplfcskKYkSYJGo4H19XWVLtcyIQRqtRoqlQqE3EJHZTPkxPKhQ4dw9913Y35+Xr1DGkvot0YRdiSL0JYLgLY8lnn+/HmYpqmWPeidMAzxn//8B8vLy2g2m8pECNn9tW0bc3NzqNVqMORkKmmgKaeHHLmkQf6rq6t47733VI2PtU+gTk1NYXFxcVt+dZCJCsMQq6urWF5eVvOPlDakBZifn8f09LTSyETOJRJ5xWIRkCY7lqsIXF57RRQ6kUWgR5QBfs9rP5kXIQTW1tbw7rvvqnk/sHUrx3GwsLCAWq2maiOvlaQ1lE6apjh37hzOnj2rzBGfy7MsCzMzM9i3bx92AlUWHl+73VaaRWEcx8H+/fsxPT2t0qDnYRiqCkb5JpIHRdaObRZlmEgJw1A1rJZsr3jNMmUnhLTIlQcSSFMS9v0I0hwyM/Q+pUlaabMD55zYrHc6ORK4Hpbi5G0qmWSejmVZKBaLyhJQOYTsyepx7hV2JEuHJz+bk8hZayIvSRKEYYhU9tpacntzEARqnYqWNLjWUO2kOGL51RrqvdEvxR91+I5FN0dpCvYhEnKxXKyk3mbMvvFBedza2lLX3GxCbqAZFHoiy5bLDJC1M5Z7xQuFwkU1iq4t2fPjtZY6BmCNPhFGmurK88Q8PDkjYyZF16IsR1pMBFGa5HgeKX+CdRxoKwF/z5AWh5vALHR7vhv0RBYkSZBkeJ6n/KlLzAvqykPckdzJBEa4LVdrac3JlD1GaG2izb46RgQRiXRPft0c7d61bRulUkmlL4RQbRAni1cuix2TpTwRKH87odvz3aBnsoYB/ayleUSuyAIzT/y+F+jh6F73H2bkjizCpQg5jwRx5IKsTsLt5P//ilyQhQzzd6m4FBM6LMgNWQSdtF4Err9Dfvw3D8gdWVcz+kJWytZ+bHlIwGTfi6DaS4PUrJreKygOcnwQS4NsHYZcFjHkQNayLCTsc6r8HX1clBXflUJfyBphMMgdWXpbM0w1f6+RC7J0QvT7qwW5IAsdCMry+39GbsjCVUiOjlyRhYy26moiMBdkXU2E7IS+kEXjGLC/FaRxDPnTYiPd6+OZnSDkop9gK7WGXFSksdLlgOIUcpme++8mn3uNyy/pCANDrsjKquVXk4nMBVk0tcRxNZFEyAVZOq5GopBHsriGicuYEM4jckGWbgKvVuSCrBH+h76QlbCvt5hy6zTtaDXlplAhtymT6WrLz6TSpktIDRLsDDHk+piQhwoM+fezNFaz5feY+PudtJDnL01TFItFFSfln+cFQ6jRfSGLhMQLR5slDbmBkguUNk9SOHpPb3+IWIMdduPboQ1tw2kn6BWA/Cht2mRK6RCoUgwL+kIWFzLNUpBwhDyqQ1uYKSwJRRcgFyqRBe2kClUC0txu4EKn65h91caUx410rdIrz5VG95L2ACoUFy6kYBL2kSya0gETBg/PnxGIFLqm2i+kaaTjrjuBTyEJqVHcBCbyKCuvKPx6WNAXskjwhrZHncOSx2ZseeqCzJpODIHH58qzxbF2KNyVH47sBsqfkO0mfRpP10rf99Vedj3/w4C+kMUF5vs+fN/fRoqQBwHGx8fhyu/+IUMgdC/khK0h26RarabiI8GXSiXMzMygVqttiyML/N1isYhqtQqDfVKVKlKtVoPv+9vMJtf8K42+kGUwU1UoFNSpDRJ4kiTwPA/VanVbb44EoZNH7R7kKZWJiQnY8gQJnfrwfR+1Wk0dG90JpMVCCBSLRYyNjcGUJ1gg03NdV/0ZADe7w4S+kAX2HT9Dmi7yE/IbtZZlqWM+FJZMk04W93PkWWZqd7j55L3MbqAOjmEY6rOvpMHUflHPkvJnaicgrzT6QhbVTKqRZPrIzDiOs+0koSO/p8FNJQe1e0K2WxSW7iEFzcdt6KIJfLiQat/MJdNMJPGD38OEvpA1wmAwIitHGJGVI4zIyhFGZOUII7JyhBFZOcJAyDIyJkj5fS+gd2jmQY+nV2QNxPmAnj8DGyAPAwZC1gj9wYisHGFEVo4wIitHGJGVI4zIyhFGZOUIfSGLrzHRPV/t1cMhY5WYj390R2Mh2uhiyt1INC7aDbLGZ7T+xp/zZ8OCocmJLqQsoV7tGBqyCCOCOmPoyCKMCLsYQ0vWbtuiqwFDRRbvVPD7Ef6H/wJ3FVhj9mrDwwAAAABJRU5ErkJggg==;" vertex="1" parent="1">
          <mxGeometry x="111.5" y="280" width="107" height="127" as="geometry" />
        </mxCell>
        <mxCell id="Y-hvcmrSchfvY5Ri_YWS-27" value="" style="endArrow=none;html=1;rounded=0;exitX=0.629;exitY=0.967;exitDx=0;exitDy=0;exitPerimeter=0;strokeWidth=2;strokeColor=#33FF33;" edge="1" parent="1" source="Y-hvcmrSchfvY5Ri_YWS-26">
          <mxGeometry width="50" height="50" relative="1" as="geometry">
            <mxPoint x="440" y="430" as="sourcePoint" />
            <mxPoint x="220" y="403" as="targetPoint" />
          </mxGeometry>
        </mxCell>
        <mxCell id="Y-hvcmrSchfvY5Ri_YWS-28" value="" style="shape=image;verticalLabelPosition=bottom;labelBackgroundColor=default;verticalAlign=top;aspect=fixed;imageAspect=0;image=data:image/png,iVBORw0KGgoAAAANSUhEUgAAAUYAAABCCAYAAAArMX9SAAAAAXNSR0IArs4c6QAAAARnQU1BAACxjwv8YQUAAAAJcEhZcwAADsMAAA7DAcdvqGQAACMLSURBVHhe7Z3Zsy1Xfd8/v7W6995nvgMSkm0JJFnGgMVkG2wwAWMlOB4hgF1OYipl5IdU/CekUpWX+D1Vqbj84qqQwUkFKg9+S6WcWCCMJIyRMMZ2ghBCA7rzmffuXuuXh7VWd+/evc/Z555z7r3nqr+7frW7V695+PZvjS2qqvQ4dWhDEqQhUw8Sqgdt15WrpsWZ+y4vkz/BRtufHkdFs0SmDABk5mnjebs8439HcWj1CyUngJnytcNRj2NBemK8zUi53y6FqbreRYzpMpBb23kTQttphz89bg4HZXzCFGu2JVrQSHUyXSZtm0TvBG2UejDpcXLoifGUoRrquvcOY0zrIbFRTBuDNrSNeD9rKUJAav2hbWuKB6NBp50eN4cmNzXv2xAFfJQ23Qlgox6Y6kiyR6TAQH7Nspp+HfaleJLoifGUEQjR4twEYwwiGd6XGGNrS1o3gmgQybFxneA9mCH4Sby2YHLwUE4mZMMlvFec93jvGQ7DM6jbXLpN6PWNo0OrTm249t5XuSgq8ZkHnSApx42AAa8uKobBPNgdAFn0I5Goa4QXS0ktikEVrEnh9+V30uiJ8ZahAF+AMVDu44sx+3s7iIRmIei0AjGjVQSoKt55rDGM9/bZvb5FZnPW1jYYrp+DlbWoQUbxiiscGLDD0ZSvqTH1xHh0hBG/QF6B+Bo5qC68tHAUm1dAPKhQqqOgAFtirMPpBBEw5IgfoqXFkGHEIKYue0UwIiiGfLiKGa5RFkKWD6erTI8TQ0+MpwyvUBb7DAYAE3Z/8AKvvPi3XH7tJYw6irKc88bvLhabWdQr1hq+8fRf8I0vP83Q5KysbbC6fp7z97yZ+3/kLbztHe/kvgcfYe3Rd4TxK2Pi+JUFY27DCNXd2IRLtNxBMmCyw+71K2xdu8x4d4udG9fY291kvL8VadTijcPZfYarigx3KXUHUSXPVnD7Q/a3wU9yRC1BGRREQ36JUTyWe+5/Kw89+h6WLj4C5LELLndp/t4+9MR4yii9khkFvcGN732bv3z6/2D9HrlxwVyEhYog1v08z9nd2WV5aYmvffmrfOfr32RIRumV/YljXHrE5mBzfDbkre98L+/66Z/hgx/9CEv3/RDYIUgWuuAEgqQ1djWL2ae1LkPn82nU2k89hnZ0tHNpXqhtexxg9zDUdJPGB5tSsPXad7n82ktcfv0Vir1t9ravMbCwlFsyC86NUSEQo5S4bIeVC4Jd2WZcboJ6Rvk6bnfI1lWPdWuI5iFQr4gaVEN4XixjZ8lGF3jnuz7E+R/+McjXUM0QSeR4UEoPetajiZ4YTxleFSNj3KVv8+f/+08YWsXgAI9G6W7K0wg2BIvBl4715RWeefIpnn/qGTaWVihLh7EW50AlzVkKpYfNvT2Wzp3j7e/9ST78C7/Ej77/Q7B8DlWD5EuNBtPQPHz8N4E4qxE1DRNK3igej6hiolYTNJx4OQWtupMiGc4FXhbTkfQD2m6iVwH2xmOWhsODrHdCiRNizXBjwlSDAGGiTJJWrZiKDLfRnWu89vJ3+f53/xa3cw3jJ2EsWRQjMbc0pFkNqIRxR29KvN1hsF4gKzt42cMai7gBtlxh+7JiirXQrY4vHVVfpVExGDtEyXHe8p4PfIzhDz+G9znG5Ki6SJDzEMqyx+HoifGWYItv/ul/5dorf8fqaIigeAEVRdV1sMMsNHKWFYsWjo1IjM899TQboxVKV2KNxSVCIzR+8R47yNmajNl1yr7PeNMDD/P4J3+DDz7+cbJz58HmQYtEYkCNZSPqQRXFIGJBw6SRNwaHkpEmGg5DnIDQpDG62EbrZl//NykwSXRXFpBZoAxxK8uGH414NKOkAhK7nDY+lBSPZnitckhLCigYb11l+8YlXn/lO1z5wffZ373G2tAixR4Z2klIKuBFK2JUU+ASMa7u4GQPKxniBmTlCjuXPbY4h/gRKjE+PuZbzIfMDlAPu3v73PPAj/NjH/w1vF3HmJxE7l1xqZHys8dB6InxFmC89QrP/dl/p9x6lVGeRWLUBjEejqSUWTqIcWmFspwlRqMgPi4MtqDGIibj2s4uG/f/EL/46U/hl5YYbZzjwsV7WVk9x/LKOtYOsDZHrEFWkkZpwUexQ7zkqLGh4WoivdkGV83OxkkKAdAS7CSQWyIoiUSUBE3MUpO1At7B/m7QQH3ZCnM2/MB1kRgzC8Ms/IuNYUSNPRHRpMCPx+zv7jIe73H9xmU2b1xhd/sGvhxTTnax4sgzyAwY5+LLYzbskyRGUy3JMqAG5xWXb/C+x3+Lwdp9ITwFqQh/HnpiXAQ9MZ4qQtZuXf4Oz33pi+TldXIjCD40GEJXaRHMI8bnn3qa9dEKzoUlQL6lMZp4K9ZgM4sAm3u7vPXtb+NnH/95bviSwhgUG8bBVLB2QD4YkuU5ZHEcUjNEMzIz5NrWhH/1+/+Wa9vjQ4YM0+SBB3EIDl+M+Se/9Ul+6eMfYm/3GlYI3U7Ae49vdmcVrDcxDcLAeczmFtde/C7Dcp9lK5TjYjrIBkQDMSsGJ8JOlnHxPY+xm1l87CbX01CKqsc5j3MO9R7nCtSPsVbJrEHwGNGw3ErichmfiHx2gejpEaNgbMaOG/Guj36atTc9FIZkVHpiPCH0xHiqUMCxe/0lnv1f/5ll2cFEDUWrdrRYJVUJ3rW70s/HrrQrS4y1eJeKM06rRFJRBBXIbMbm3g73P/IgH/vVf8iucZQmEEhk6oYb8Cb4JGoQzbB2yOUbJf/sX/xLLu8GXbCrAoVlSEnbU7AEjdHBP3/i1/nt3/w429dfZmgkjt91QGO4gFFluXDkr1/m2t/8DRuuYFhOwLvWQuca6gW8walQGuH6MOfihz/IjdGQ0ghqBKNhKQwxzlPu06RHI5VS7dqL92m5aURz7PIkiDGMV9IgtCgq7JtV3v2RT7Ny8eEYnybpdedJT4yL4bDXS49jIVTu+XJUNLWScB0WE6f7VOFD5Z8KLa6DS/PI4BFxUZMrEQrMlEywTLA6JtMxue6T6y6Z7mLZq/bqHtTEQlTjzHsdS4x6Mp2QR3+zGMaMMMZWsseAXdbNhAvsc4/uVfKmOXKP7PMmGXOvGXOv2eeinbBmHUtZkJFxDExBTpBMJ5VYDek3OIx6RH3QGBtk1SbF24ebqUs9DkJPjHctAm15A87EoTri7LA4RGoylLRIWcBjcGJxkuEkdK+r5i8epARxeJmvLdZImrGGSZc48WLUYFWxXiOBzxcRi4hFjYnOQ5c8iUok/U4ByTySeaz1WJuYzGC8YONQQyL4JtELTI0bSpxxT8MTBsVo1MqTHJwZp4K0TCd0/PrmfFLoc/IuRiKXcB1ab9LiUhuutJ6qbx/ceCGOw0msJrHDKvGkl9khtTmowwr0EmA0dI/TOGDnryKmEEkFynISpJhQFiWu9JSlzoh3UJaO0pWUrsB5h/eeSVFGc0dZOpz34Zn6SlR9JNwq4tAgTZraYjMTpliyYV4hlAg3RaI6HdhcDw6KwDzzHm30xHibIbGOHyQwXzXzqng/vQYvIfgdCCZ1rEUkLM2RHGQAmiOaIRgEE7bzimLEY0WxYjBYDBYhaG8YW5HGnGhV8dHYFhVfzcCH2WlFEIwEvztFwoRHtdQHwRgTJcOYHCEL2+haglpsfC6SoWLxWIw1qITlUt6AxrHG8CJoSGP/uhEJ6xPjGGQYO5Tw4khDs3OESPCh+5264fFJypzDMEWCtc8zZDkFic27KQuE1QN6YjxtNCt+803eMO/oynXJzaLyo2o/qZtq0NhgEnmmNhZ1xjAOqc0GnDTIEKN5TbIbwXZoyvVkS0XcnRJddGpHAhrWVs4TMFFHjeltTrJEQuzyeRoHkc/NIZTHEUtV2vFo3/c4SfTEeOpoU1xb3ggIB2TcTGpFZEp6TEOMgWqMscdJoSfGW4LTadBteq1CuQOViSnd7EjZ0U5l0+wNgmrAsyvNd1hB3yXoifEugFD3NqXZNT/zbSamZIoY2nKXYyrdlSGkqbW0S6iJM1/utx89Mb7h0NGQbivmx6Uxdz4tmszeiEjl1y7HmB/zs7PHEXB7iLFdpkfFWXd/wlDqpSVTs6Sd3DFvMuP2ICiDcd94S96w3NfjdLFA+731xNiM0CGR68RZd3+CqAiwcQ8dPa8Zm8nsIDQ96QzlhNCMW5csgrabDrcdRncG83bFt33fREt7bmOO8RsRXUvYZrJ5Dk6PGDWc6afOT8lh5Qod9bur7hyEtptb7b4B7z1FUWBt1n50ixAjnpZ7pDyvln90JapVMJXbg9zcLnQs/EyCdhBJlQGt/9uJdiWbl8/NOAeZTCaoD8uqyiKcBt8Ur1odzNEltxvt+LTFx28XHTm+vt62iddaFsSJEqNqKwJpQWwzoaWrxCVxUeK9d4tJ5eYOcV/OSDjxxojgfdhpcSqYuwulq3G1zea9oZJZ0266PtlubrsxN2U2/i0sFI85aewea7jFaOXvocMcB8e5aoI0jkKO5HgWJZzakbYnEHcqdYv3PrTf0h2dSFs4NjE2K3FaOBuPMQYJx12ZzHaKTWKjxPu2vXlyp7nPZiSHuFtjMBgwHA7b2Xc8xDzWeN21C2Ma858c1uBOB7PjitNjjHHnTI+5yPMcMRliM7Isq5pfXLqPkbRTaI5IOF3otkk7Pi1JSOtYk7ntEDHxaD1r6preXNRwBBzr2LHkMP0LcO3aNcbjMfv7+0wmE1xZNlwQzvhrYHV1pXHXjv1Ro9Z2vygWDSf630xww2A2P5ThIGPv+vf522f+hFW7T26CjURii8wxaDywgfhpAy0dG8urPPPkl3nuy0+zPlrGufCZVo0HM0SX1frBEJ6S5+nYsbfw+K/8Evve42OcmvFSCYuyjYbdI6KBrEyW8fqm55/+3u9zabOO41zET3xKdfAC/N7nfpnPfeYX2Ln2fewgm5v7Qjh4Ne0SWS0mrL76Ktvf+msulJ5hUS5U4b0IpRiujIasfOiDXBkNKY3BE7fqzY3B8RDyMVwLisoEn+0wWCuRlT1Ks4cxBnF5fexYeQ5x6dgx4nbCZiLr67Gscs+jH2TtnodQbym94DVsbwxnYCrq0275btzuRfOH0c94PJ66L4r5528CrK+usTQasboW/n3D/1CfGt2rA5J+08SoMVGlK3n1tdd4/rnneOml73P9xg2KsqQswneUnXOh8be2XzULRESQ+G2RuiaFhno03NSrYfFwZippIJv53R9FvOPiKrz7rUusmD20nEwR0LGI8c8CMW4sLVOWDmtsrGjJxzptXcT49xMxSrCbGmOyC8TzEE+LGF8my+cTI4R9yik9b0xiTNsaZzGWVb72/za5umexdoT3AiZrEWNI5bxadpt58VA0iTBR1UGUtTQaYUTY2Njg3nvv5X3vex8PP/Qwqhrr0mK46a60857rmzf4whe/yB/90R/x51/9Ki+/+gq7e3s477F5jlhLlmeh6xm7qnVXNMNkGWJN2LfaqEiV1nIz0lCdF5K2+4Oky36XWRQa/6eKBch1EVR+3JJI10jNtktOJmVvEMS6SKNe0lEvz4p49YEz4unzWZ6R5Rn5IGcwHHaK8+GTxK9fusTX//Iv+Q+f/zyf/0//ke3dnSovFsGRiVGB0ntefuVl/vAP/5Dnv/k8NssYjkbkgwFZnkciNEELlPAvxsTr8I3jREy07quMaRPYotKRwQdK2/1BEu1XedEw65RkTxURc+CbrkeP08BU3e2Sdp29gyRxg1g7I8aaTtE4XJflOWKC2be+/df8+z/4Ay5duzKT/nk4OjGqsrm5yR//lz9mZ2eH4XAUZpu9J89zjA3HRTXf9M3OyvzIyPRDjWZHkfmeL4gOP6ckoCq45KTHGcaxK80djlhBz2g9bR4eUq1s8b5jBUha9SGUZYn3HmsziqJkfX2DK1eu8IUvfLHt/VwcmRhBePbZr3H16jXybICJx1YZDOWkDGsXowT2mP5Aj2n90hFTBhNm0KoZqxmb6cTA+b/Kfbo+TNp+Hu5/KCgTJZ36ku5bEmfVTlNTDDN7i58+kyqXpuUQpw0NH4sKYabVF3Xe3VZUY8NtPWIRneIOR6PtVfkdZ24rkfYxb3eeVMdx+jgRlbii6xcn6tJ9bjPybMBkf8L66jrf++73+Ktv/lWHqjOLIxOjV+XVV18jzweR8Opg0iBxfTcbfPNZ/fwwaaP9vC3HRdu/tvS4axCXBXXKmcdh9bb9/GxLPUlVmyUFKL0cXvjOC1Xq6w/HzeLIxNjj6FDvEZFT1Rx79OiRPjN7fBzZFyPC/fffR1EUC30Tuc3rbbSf3+nSRlpu0/XstHtiVZgxnKl7TSbNmE1fSxworWw1/Gm7PD00Q+uSE8CccrgrlMIGOpPTHhloSMrddo6fVUkZcBAvPfTww9W1sTL1rImbIEZ4//s/wIUL55lMCgaDHGst3odtOPVYQL1fMY05anPPYpR276UeX2ibLyqz4xTTcpj99vNampWJqkAE8UFM2z3tvaDzC+xmUVWMGF71H6+ruzjmNP1fp6uyma47W9nJoorvTBkE6W7pR8NUfjTvk98nEMbtghInAhvJmKpjU2mf/cHB9f1OEtOIq3pfyZSdxpi19w4RwVqLiGE8HvPAAw/y2E+8o86fA3BkYgRYWVnhE5/4JKPRiO3tnWrXhXPTexTTAHtz2057y8/Ckqbk2+bHEhtl3v202Bh+nRaLNXZma5K1URpbmm4vUvPour7bEWkjfuoU0pcJp3PirKP5Hll0yCblQ41EsUeVw9C235b50PTVxurjZGGhdmprTfdJ+UjjiePxGO89m5s3OH/+HL/xG5+Z8vsgHLnlFi6Mlz366CN89rOf5YEHHmB/f4/JZEKWZY2EzJ6QsZi4KC1zF6VtPiPJ/Txp2y0bz9J1288oMfx607rDu6b74Na5KP7kNcQ2quqVNIeGBlEtKToASYGk5WYRt8dFFd+OfdJhr3TbxVGRGk1UKYgNx6RnBzfKs4xZcqxqRS3StjPH3oGyKNruDnefeKRqa51SP0uk6L2jKEpEwulDP/VTP83v/u4TXDi30Q5iLo5MjLk1ZCY4fPBHfognPvc7PPHEE7z3ve9hfX1tihxBGY/DnulpGR8gXXZuxv0RpIiyoP9FlCm3DffpeTGZxBmxY7fwTlTVqkFs1f0CQSb7VRVtEuSh1fak0G4obTkumn6k4YyW34GdZ+UMYeo9EpNWtUP14KOke43d0YZG1hzyWUwWtT/P3jzzIEBYk+gcZVlSFAVFUUy182AWvhVeFOFcBvXKxYsXeNe7HuN3n3iC3/zMp1hdXmZSHrzPuomb3ivdRlgTJ7zy6qtMJpNai8zzqUqYZ9OHSIQ90tVd4/nNRmtBVoDZBrIQmv53uJ8KWjGibF16gRvfe5a8vE6WNJeo2S2iGOkBe6W/+dQz1V5pYyze+3Ykgh8EzSyzls39He5/OBwiMcFVe6WRsEM62QWOv1e6kVUGyAR+73O/yuc+8zF2rr2MzWzLwTTCkrCAo++VDt9E8SKUxnB1NGT4gfeztb5OARRH3D97VIR8DNensVd6X1Y5//AHWLn4Fry3qApi8lAjJb0ACO5TNU1lndCu/t1BdSME1OEoedrwvG2FxdxXh0hEK2nvdCi3eo10+s+sZWN9PShpeXbTw1knRoyq8WPuEaFYaq/bhXtz0T2LUHauvsA3nvwCQ7+J+DLkzAkR4/ORGF3pMNbi3c0T46kcIpGicgAxHlQBUwPgWMRIJMYRg/f/NNsb6xQiFP7sE+N7fv4zLJ1/EDTD+XAsVx1u42SdKiLt3G7fH4ZWXOYVwNxwjuZefWggdTGFi5QnR+ORdpzmhH1kfw+B857COQoX+v5NaOvnovh6YTsOpWz4cfalwPmSonX02olBgqSGoKkxNuQwVG5jHan8aSgZp4fZccXpMcbwAjkWooaexKuLjWzRHLqz4VzoknrvUO/xYZ4prPpIXVXf6K42VojU3dnZbmy3RLszfjSfN8KcCWdx9wliJOyWarxh1dfzFu02ByH9rnRMJpPKn9mWcXD5nygxWmOqQ1ohsL1BsA2pt/YlCZEwEOw0/Dj7kmFNuE6V4o5Dg3hmqspxSekOQXx/QNSgmtdnHcYEbSps+ZP6oNrqwNqOw2GnJGjli8lhdg96nuLUNm/bCdfxvVgRqNcwuWIxZKaW3FryRpuDkB82s+TV2a8zNfsQ8xMkxtSNThUvRbxd+dLzuoIe/Pysi+opzk7HchXqLnlb7mzMrl2cXscYGshxUOWLgomS7u8GGBN3+BvBThFjOn+gTT4NmVFSFpS2PzPk1iLAY7ivSFCCzCOyrvp+nEnPEyPGHgdD1eOP8DGeRTFVIU7e+1uCNplPE/vNV+4K7ZdG4/5sIxX4QQV/0LMe89ATY48ePXq00BNjj7sflWpYzyid3gcNzhKOqjcf1X7CbD/gaDgp923MM++JscddjkCAsQFou4F1N4q7AxrXehyGdn4cJjeLO8V9W7rRE2OPNwCajSARZT/6VqNNFvPkrGPx9PTE2OOWIBwo0jbt0ePORE+MZxgVz0TVZ+p+Sh1qGjSub2LNisZPIpzcksz2W3xaphcAx21uQlciD0bD6t3Fzx3l2uPY6InxjKOikK71jErdYNIOkKn/00M6ci6uPm4/hma8O9YwytSWl9ToO3ZK+NaOi/bui8Z/OgO0Mo8k35SzhzpvenI8OfTEeAvQTQsnixRGU9+abSjt66M3ompHTyYHnoC8OOb7IRrXf0ZR1XgmZ9ghZawcfEZnPMMznY1p42c3w7ma4RzNuwPtcry5su1R426pGXcshDd2HQ0aIUjcunZc1GdiusPP6IzPXXLjgptw705vR9JtwnF2evSYRk+Mpw5FxIN4VFJDbCwhWRTtrnA8vyhJOI2lcWwYRCYKYbXDq67UoNgoGao5ngGeIY4hpQwpGVKYIYWM2HUZ+6WhKPTAr6zVCCE1e+4eQykDJrJEIcMOGVHIiIkZMZERhRlRSri+5nMu65DXGfGajPiBDPkBgyjDaZFg5zUZ8poMucSA696yXRp2CsNuIbiYziADSqnFSY7HopgozbWPUzndQK2zh1OJ6n2/SYsPh2T4+N/0IW6DbGyVDC5Cyda/ZvmaRpg9TgonduxYjy548BN2b3yPP//Tz7PELkMZIGriUV+RtmZKYHoMUAEf78UrWpSsL6/y7JNPhfMYR6uUpcMaC7EBU52RGY8tU8U7T5YJ++WY+x56gI9/4te4se+YKDiveAXJhojNwGbhX8KxYKERC6urG1zfKvnX/+bfcX2rQGw45qoJoXmOogAaDjugZHvzCp/9x5/iV37xo5TjrXpCpYlECCLx1a1YVUalw1+5yrUXX2TkPCMRXFm2KKEmCaUmHkXYyy1rjz6Krq9RatAcrQiS8gmHd46inOBciS/HZFoyyMI+ZNQBHh+PjsvzHO/DR97RSFBaUWIIWGoq83ZCmW2RbxTIyg6F2ceYHCkHDMoVdi4peXEe40YxT1L8A6sqihghKLqGfVb5mX/w22Sr9wVCrT5nHFLTzo8ei6MnxlNF0BC3r/4dz37pvyHjq6xmSxiVqsHWmkQToVFUd6JzifH5p55hfWklnMdoMiQ20Mq1wHgyQcVg8xwxlitbm9zz1gf4xX/0KTRbZrS2wblz51leXWfjwj2IzcFmmCyP5CiVdmNMDnYJ9SOQAYriY2hVOhofJkokbUQDqZR7mEzAeNAikk0XYoM2gVhRDSdQFwWM43FSnVW3lZvpVgSsgTyHeAoLpGzWcKo1CurQ/T12drbY393m+pUfsH39Cjs7N/DlGC33MeIZDjKyTPDpVOjq3MpAjJHL6jMuAW8mlPk2+foEVrcpzT7GDJByQF6usHtJyYpzWDdC8CFv47p0QfHpeyY2o3DKvq7x9375d9D8PMbY2JXuifEk0BPjqSKcMom7wV88+T/YvfIiI+Ox6hsVtqviNoskdL2qTrhXtCxZX17hmSe/zHNfqYnRGhuIMXbHAr06TJZReGV7XHJjr+Digw/xsU9+mvd/9HHWL7wZbA7ZAIwFycKAIEH7hKAl1V13UCzCAOfAadCe2lpv+/u+IiZqx1EbthnoOBCS0JEH8b7yJ5AW6sNZW2m9kPPT2ZVQeafheSINE4gesTE90vqPafUl6h0iivoJu1tX2b5+icuvvsj1K68x2d1kZWgRnWAIcahKM55mn8oOBNTiTYnLdiIxbsWDamti3LnsyIoNjB8AoavtohZoNeSx84pkA8YqrN/7CI/97K/jZa1eBVAlvCfG46AnxlOFhsbld9m69H/5+lf+J0Ozj9VJbECLVNrWOFQkxo3lFZ558im+8ZWnWR+txC81ZtWYk6qgImzt7UI2wIyW+LHH3sMHPvw4j33kF2D9ApDh1QYtUIIWVZaBeELXdxqKx2uJ94qRQVTYfKUdNu3X8wCBoI2ERLjCY7PoeVpyI1SaZRvNTxsQvxAHMB7vMhwudXJibVaPrgZIHGpoxLXJHxWCoUdx6kFLMuNiSvbwW1d59aUXePX7LzDeuYqhxKgieIz6+B9eAF7CS1DUolLi7C75xgRJxChDpByQlcvsXHHYYgPjcxCPF/BkCGC9IiqoWCbe4ocrvP29P8f5+9+BmpUWMcq8hPVYED0xnjK8A2MUJld5/aVv8a1vfAk/2WSQGwzKwCbNZR5CxU5jkpkxjHf2OL+6zte+9BWef+pZRnbAeFJgBwO298Z4EbLhkGxplQcefTvv/sDP8ZMf/igrF98My+uBBMVEkrCh4TZC1FazqmMXtKmgv4bT9YKm1G58jfS0NEeSghjZqRoDrMi/JjLReqY1kdnBhBZQP2rna4flOUguax8cgkNSLwAPlGz+4EUuvfISr738IuLG7G1fZ2BhKTdkVij8GCSQGlKg2S6D9QKztkMpY4Qh5b7BFkuMbxhksgp+ECfqBDQP50jiUAyl5vhsjUff9bPc+8g7QYZ4Td3o9CJZPJ09utET4y2AOkXcLugO119/gW//9V8w2dvGFWNsHD+qLdOq2GE8MnWlM2Oh9CwPhjz39Nf4+pe+yvryGpLnLK+vs37+Avf9yAP8+GM/wVt+9G2sPPgI5Mtgc8alZ5AtNamnEUqLsBpklBDu0wcp0qzpFF01bEb70pqcaczQaiLE+BGuykLyVdsaY0AVz+qmC9PVOvnatr5o5a9TVA8pGOLEC/sw2WHr6iV2blxmf2eTnc1r7O1tsb+/E7RqFKREzR75qoOlPUrG5HYZNzHkbpnxluD3R6A53pSxICyigsGjGC7e+wBv+dGfYPnehyBbAg2jkT0xnix6YrwF8L5EKBGjQdvQgsnWNXxZhB0ZVQnMElZC0BgFvOInJUuDIeOdXXa2tlhdXcXkA0Zra7CyFiYprAU7gvE+aiwuy8IEzJzlHdMmCnEuNVBJw64yZ9IjIE4oVzOp7RVhqlQLiKpwmkMFEUKDGMPsw9zudniS/Gua1m5CWkya5K6SFF44yV1HnlSP6jxp2hbC91aMySkn22SDLGqUYTx0f/M6RlPX2uF0TLZk0Lxk4saoN2ghDGSJYheGZg1F8HYclvSk/FcBLEvLGzA8F8dmbShrSTHrifGk0BPjKSJ94yVUVsX7QITWhvvQLGW6qSVmaSIZqQaiieOBlGWcyMjBFWAHgFCqQ4FMLN654N4YFI20mJr0dBA1hTSbf6OhJaOkvkrTMKAmxgCR6XA0TsBMEdkcYkQJ3fXKYHrEMCD4M9ttnn1SEWMDYUa9mdYaQjcxTuWWhvFUVXDekafvHbXIv9I0fREmgHA4Jliy6McSlB5kEMIzE5A0Yy+AiZ+FFqwN3zLRuEBdGtWmS8PucXT0xHhL0M7iZmNsot3oD0DTeeUsUVvtT7oK1lOzTvZqTIfcjlsrXhVZTBvPQ7dvbdNFMC/A+X5NP4kp19qrZr60/Z8NrdteQh1Wyuf2k+Z/2y8JxFwxXN1lr58n6XHa6ImxR48ePVro9e4ePXr0aOH/AzPX/PzQOZPKAAAAAElFTkSuQmCC;" vertex="1" parent="1">
          <mxGeometry x="210" y="390" width="126" height="25.51" as="geometry" />
        </mxCell>
        <mxCell id="Y-hvcmrSchfvY5Ri_YWS-29" value="" style="endArrow=none;html=1;rounded=0;exitX=0.629;exitY=0.967;exitDx=0;exitDy=0;exitPerimeter=0;strokeWidth=2;strokeColor=#33FF33;" edge="1" parent="1">
          <mxGeometry width="50" height="50" relative="1" as="geometry">
            <mxPoint x="330" y="402.52" as="sourcePoint" />
            <mxPoint x="360" y="370" as="targetPoint" />
            <Array as="points">
              <mxPoint x="330" y="370" />
            </Array>
          </mxGeometry>
        </mxCell>
      </root>
    </mxGraphModel>
  </diagram>
</mxfile>
